M48
; DRILL file {KiCad (5.1.4-0-10_14)} date 2020 January 18, Saturday 15:16:38
; FORMAT={-:-/ absolute / metric / decimal}
; #@! TF.CreationDate,2020-01-18T15:16:38+01:00
; #@! TF.GenerationSoftware,Kicad,Pcbnew,(5.1.4-0-10_14)
; #@! TF.FileFunction,Plated,1,2,PTH
FMAT,2
METRIC
T1C0.750
T2C0.800
T3C0.900
T4C1.000
T5C1.100
T6C1.200
T7C1.500
T8C3.200
%
G90
G05
T1
X-207.5Y747.0
X-206.23Y747.0
X-204.96Y747.0
T2
X-288.5Y760.0
X-286.0Y760.0
X-273.5Y760.0
X-271.0Y760.0
X-255.08Y753.5
X-250.0Y753.5
X-240.0Y770.0
X-240.0Y767.46
X-240.0Y764.92
X-240.0Y762.38
X-232.38Y770.0
X-232.38Y767.46
X-232.38Y764.92
X-232.38Y762.38
X-266.5Y767.62
X-266.5Y760.0
X-263.96Y767.62
X-263.96Y760.0
X-261.42Y767.62
X-261.42Y760.0
X-258.88Y767.62
X-258.88Y760.0
X-256.34Y767.62
X-256.34Y760.0
X-253.8Y767.62
X-253.8Y760.0
X-251.26Y767.62
X-251.26Y760.0
X-255.08Y757.0
X-250.0Y757.0
X-278.5Y760.0
X-276.0Y760.0
X-237.58Y758.5
X-232.5Y758.5
X-283.5Y760.0
X-281.0Y760.0
X-288.0Y770.12
X-288.0Y762.5
X-285.46Y770.12
X-285.46Y762.5
X-282.92Y770.12
X-282.92Y762.5
X-280.38Y770.12
X-280.38Y762.5
X-277.84Y770.12
X-277.84Y762.5
X-275.3Y770.12
X-275.3Y762.5
X-272.76Y770.12
X-272.76Y762.5
X-270.22Y770.12
X-270.22Y762.5
X-243.5Y771.58
X-243.5Y766.5
X-227.0Y755.0
X-224.5Y755.0
T3
X-247.5Y771.5
X-247.5Y763.88
T4
X-279.08Y753.0
X-229.78Y749.5
X-229.78Y746.96
X-227.24Y749.5
X-227.24Y746.96
X-277.695Y750.16
X-224.7Y749.5
X-276.31Y753.0
X-224.7Y746.96
X-222.16Y749.5
X-222.16Y746.96
X-219.62Y749.5
X-219.62Y746.96
X-217.08Y749.5
X-217.08Y746.96
X-214.54Y749.5
X-214.54Y746.96
X-212.0Y749.5
X-212.0Y746.96
X-274.925Y750.16
X-273.54Y753.0
X-272.155Y750.16
X-270.77Y753.0
X-269.385Y750.16
X-268.0Y753.0
T5
X-227.92Y788.37
X-227.92Y785.83
X-227.92Y783.29
X-227.92Y780.75
X-227.92Y778.21
X-227.92Y775.67
X-227.92Y773.13
X-227.92Y770.59
X-227.92Y768.05
X-227.92Y765.51
X-227.92Y762.97
X-227.92Y760.43
X-212.68Y788.37
X-212.68Y785.83
X-212.68Y783.29
X-212.68Y780.75
X-212.68Y778.21
X-212.68Y775.67
X-212.68Y773.13
X-212.68Y770.59
X-212.68Y768.05
X-212.68Y765.51
X-212.68Y762.97
X-212.68Y760.43
X-207.52Y779.47
X-207.52Y776.93
X-207.52Y774.39
X-207.52Y771.85
X-207.52Y769.31
X-207.52Y766.77
X-207.52Y764.23
X-207.52Y761.69
X-207.52Y759.15
X-207.52Y756.61
X-207.52Y754.07
X-207.52Y751.53
X-194.82Y779.47
X-192.28Y779.47
X-192.28Y776.93
X-192.28Y774.39
X-192.28Y771.85
X-192.28Y769.31
X-192.28Y766.77
X-192.28Y764.23
X-192.28Y761.69
X-192.28Y759.15
X-192.28Y756.61
X-192.28Y754.07
X-192.28Y751.53
T6
X-287.0Y779.59
X-284.5Y779.59
X-282.0Y784.596
X-279.5Y779.59
X-277.0Y779.59
X-267.5Y779.59
X-265.0Y779.59
X-262.5Y784.596
X-260.0Y779.59
X-257.5Y779.59
X-246.5Y779.59
X-244.0Y779.59
X-241.5Y784.596
X-239.0Y779.59
X-236.5Y779.59
T7
X-249.0Y777.0
X-246.5Y786.5
X-246.5Y774.5
X-241.5Y777.0
X-236.5Y786.5
X-236.5Y774.5
X-234.0Y777.0
X-270.0Y777.0
X-267.5Y786.5
X-267.5Y774.5
X-262.5Y777.0
X-257.5Y786.5
X-257.5Y774.5
X-255.0Y777.0
T8
X-286.04Y751.58
X-261.04Y751.58
T0
M30
