M48
; DRILL file {KiCad 5.1.10} date Tue Feb 22 14:04:50 2022
; FORMAT={-:-/ absolute / inch / decimal}
; #@! TF.CreationDate,2022-02-22T14:04:50+13:00
; #@! TF.GenerationSoftware,Kicad,Pcbnew,5.1.10
; #@! TF.FileFunction,Plated,1,2,PTH
FMAT,2
INCH
T1C0.0157
T2C0.0295
T3C0.0315
T4C0.0394
T5C0.0433
T6C0.0472
T7C0.0591
T8C0.1260
%
G90
G05
T1
X-11.127Y30.2195
X-10.938Y30.2215
T2
X-8.1693Y29.4291
X-8.1193Y29.4791
X-8.0693Y29.4291
T3
X-11.3386Y30.3197
X-11.3386Y30.0197
X-11.3189Y29.8819
X-11.2386Y30.3197
X-11.2386Y30.0197
X-11.1386Y30.3197
X-11.1386Y30.0197
X-11.122Y29.8819
X-11.0386Y30.3197
X-11.0386Y30.0197
X-11.0236Y29.8819
X-10.9386Y30.3197
X-10.9386Y30.0197
X-10.8386Y30.3197
X-10.8386Y30.0197
X-10.8268Y29.8819
X-10.7386Y30.3197
X-10.7386Y30.0197
X-10.7087Y29.8819
X-10.6386Y30.3197
X-10.6386Y30.0197
X-10.5118Y29.8819
X-10.4921Y30.3197
X-10.4921Y30.0197
X-10.4134Y29.8819
X-10.3921Y30.3197
X-10.3921Y30.0197
X-10.2921Y30.3197
X-10.2921Y30.0197
X-10.2165Y29.8819
X-10.1921Y30.3197
X-10.1921Y30.0197
X-10.0921Y30.3197
X-10.0921Y30.0197
X-10.0425Y29.8031
X-10.0425Y29.6654
X-9.9921Y30.3197
X-9.9921Y30.0197
X-9.8921Y30.3197
X-9.8921Y30.0197
X-9.8425Y29.8031
X-9.8425Y29.6654
X-9.5866Y30.2787
X-9.5866Y30.0787
X-9.4488Y30.2559
X-9.4488Y30.1559
X-9.4488Y30.0559
X-9.4488Y29.9559
X-9.3535Y29.7835
X-9.1535Y29.7835
X-9.1488Y30.2559
X-9.1488Y30.1559
X-9.1488Y30.0559
X-9.1488Y29.9559
X-8.937Y29.7244
X-8.8386Y29.7244
T4
X-10.0364Y29.5035
X-10.0364Y29.4035
X-9.9364Y29.5035
X-9.9364Y29.4035
X-9.8364Y29.5035
X-9.8364Y29.4035
X-9.7441Y30.2787
X-9.7441Y30.0787
X-9.0465Y29.5079
X-9.0465Y29.4079
X-8.9465Y29.5079
X-8.9465Y29.4079
X-8.8465Y29.5079
X-8.8465Y29.4079
X-8.7465Y29.5079
X-8.7465Y29.4079
X-8.6465Y29.5079
X-8.6465Y29.4079
X-8.5465Y29.5079
X-8.5465Y29.4079
X-8.4465Y29.5079
X-8.4465Y29.4079
X-8.3465Y29.5079
X-8.3465Y29.4079
X-8.0551Y31.0256
X-7.9551Y31.0256
X-7.9163Y29.4626
X-7.8551Y31.0256
X-7.7551Y31.0256
X-7.7163Y29.4626
X-7.6551Y31.0256
X-7.5551Y31.0256
T5
X-8.9732Y31.0382
X-8.9732Y30.9382
X-8.9732Y30.8382
X-8.9732Y30.7382
X-8.9732Y30.6382
X-8.9732Y30.5382
X-8.9732Y30.4382
X-8.9732Y30.3382
X-8.9732Y30.2382
X-8.9732Y30.1382
X-8.9732Y30.0382
X-8.9732Y29.9382
X-8.7224Y29.8346
X-8.7224Y29.6575
X-8.4665Y29.8346
X-8.4665Y29.6575
X-8.3732Y31.0382
X-8.3732Y30.9382
X-8.3732Y30.8382
X-8.3732Y30.7382
X-8.3732Y30.6382
X-8.3732Y30.5382
X-8.3732Y30.4382
X-8.3732Y30.3382
X-8.3732Y30.2382
X-8.3732Y30.1382
X-8.3732Y30.0382
X-8.3732Y29.9382
X-8.1701Y30.6878
X-8.1701Y30.5878
X-8.1701Y30.4878
X-8.1701Y30.3878
X-8.1701Y30.2878
X-8.1701Y30.1878
X-8.1701Y30.0878
X-8.1701Y29.9878
X-8.1701Y29.8878
X-8.1701Y29.7878
X-8.1701Y29.6878
X-8.1701Y29.5878
X-7.6701Y30.6878
X-7.5701Y30.6878
X-7.5701Y30.5878
X-7.5701Y30.4878
X-7.5701Y30.3878
X-7.5701Y30.2878
X-7.5701Y30.1878
X-7.5701Y30.0878
X-7.5701Y29.9878
X-7.5701Y29.8878
X-7.5701Y29.7878
X-7.5701Y29.6878
X-7.5701Y29.5878
T6
X-11.2992Y30.7319
X-11.2008Y30.7319
X-11.1024Y30.929
X-11.0039Y30.7319
X-10.9055Y30.7319
X-10.5315Y30.7319
X-10.4331Y30.7319
X-10.3346Y30.929
X-10.2362Y30.7319
X-10.1378Y30.7319
X-9.7047Y30.7319
X-9.6063Y30.7319
X-9.5079Y30.929
X-9.4094Y30.7319
X-9.311Y30.7319
T7
X-10.9843Y29.6083
X-10.9297Y29.4965
X-10.8752Y29.6083
X-10.8207Y29.4965
X-10.7661Y29.6083
X-10.7116Y29.4965
X-10.6571Y29.6083
X-10.6299Y30.6299
X-10.6026Y29.4965
X-10.548Y29.6083
X-10.5315Y31.0039
X-10.5315Y30.5315
X-10.3346Y30.6299
X-10.1378Y31.0039
X-10.1378Y30.5315
X-10.0394Y30.6299
X-9.8031Y30.6299
X-9.7047Y31.0039
X-9.7047Y30.5315
X-9.5079Y30.6299
X-9.311Y31.0039
X-9.311Y30.5315
X-9.2126Y30.6299
T8
X-11.2583Y29.5524
X-10.274Y29.5524
T0
M30
