G04 #@! TF.GenerationSoftware,KiCad,Pcbnew,5.1.10*
G04 #@! TF.CreationDate,2022-02-22T14:04:46+13:00*
G04 #@! TF.ProjectId,transcribe_circuit,7472616e-7363-4726-9962-655f63697263,v0_5_1*
G04 #@! TF.SameCoordinates,Original*
G04 #@! TF.FileFunction,Legend,Top*
G04 #@! TF.FilePolarity,Positive*
%FSLAX46Y46*%
G04 Gerber Fmt 4.6, Leading zero omitted, Abs format (unit mm)*
G04 Created by KiCad (PCBNEW 5.1.10) date 2022-02-22 14:04:46*
%MOMM*%
%LPD*%
G01*
G04 APERTURE LIST*
%ADD10C,0.300000*%
%ADD11C,0.350000*%
%ADD12C,0.120000*%
%ADD13C,0.250000*%
%ADD14C,0.150000*%
G04 APERTURE END LIST*
D10*
X-243335714Y774796428D02*
X-243335714Y775796428D01*
X-243335714Y775653571D02*
X-243264285Y775725000D01*
X-243121428Y775796428D01*
X-242907142Y775796428D01*
X-242764285Y775725000D01*
X-242692857Y775582142D01*
X-242692857Y774796428D01*
X-242692857Y775582142D02*
X-242621428Y775725000D01*
X-242478571Y775796428D01*
X-242264285Y775796428D01*
X-242121428Y775725000D01*
X-242050000Y775582142D01*
X-242050000Y774796428D01*
X-241335714Y774796428D02*
X-241335714Y775796428D01*
X-241335714Y776296428D02*
X-241407142Y776225000D01*
X-241335714Y776153571D01*
X-241264285Y776225000D01*
X-241335714Y776296428D01*
X-241335714Y776153571D01*
X-239978571Y774796428D02*
X-239978571Y776296428D01*
X-239978571Y774867857D02*
X-240121428Y774796428D01*
X-240407142Y774796428D01*
X-240550000Y774867857D01*
X-240621428Y774939285D01*
X-240692857Y775082142D01*
X-240692857Y775510714D01*
X-240621428Y775653571D01*
X-240550000Y775725000D01*
X-240407142Y775796428D01*
X-240121428Y775796428D01*
X-239978571Y775725000D01*
X-239264285Y774796428D02*
X-239264285Y775796428D01*
X-239264285Y776296428D02*
X-239335714Y776225000D01*
X-239264285Y776153571D01*
X-239192857Y776225000D01*
X-239264285Y776296428D01*
X-239264285Y776153571D01*
X-241978571Y772246428D02*
X-241978571Y773246428D01*
X-241978571Y773746428D02*
X-242050000Y773675000D01*
X-241978571Y773603571D01*
X-241907142Y773675000D01*
X-241978571Y773746428D01*
X-241978571Y773603571D01*
X-241264285Y773246428D02*
X-241264285Y772246428D01*
X-241264285Y773103571D02*
X-241192857Y773175000D01*
X-241050000Y773246428D01*
X-240835714Y773246428D01*
X-240692857Y773175000D01*
X-240621428Y773032142D01*
X-240621428Y772246428D01*
X-264535714Y774896428D02*
X-264535714Y775896428D01*
X-264535714Y775753571D02*
X-264464285Y775825000D01*
X-264321428Y775896428D01*
X-264107142Y775896428D01*
X-263964285Y775825000D01*
X-263892857Y775682142D01*
X-263892857Y774896428D01*
X-263892857Y775682142D02*
X-263821428Y775825000D01*
X-263678571Y775896428D01*
X-263464285Y775896428D01*
X-263321428Y775825000D01*
X-263250000Y775682142D01*
X-263250000Y774896428D01*
X-262535714Y774896428D02*
X-262535714Y775896428D01*
X-262535714Y776396428D02*
X-262607142Y776325000D01*
X-262535714Y776253571D01*
X-262464285Y776325000D01*
X-262535714Y776396428D01*
X-262535714Y776253571D01*
X-261178571Y774896428D02*
X-261178571Y776396428D01*
X-261178571Y774967857D02*
X-261321428Y774896428D01*
X-261607142Y774896428D01*
X-261750000Y774967857D01*
X-261821428Y775039285D01*
X-261892857Y775182142D01*
X-261892857Y775610714D01*
X-261821428Y775753571D01*
X-261750000Y775825000D01*
X-261607142Y775896428D01*
X-261321428Y775896428D01*
X-261178571Y775825000D01*
X-260464285Y774896428D02*
X-260464285Y775896428D01*
X-260464285Y776396428D02*
X-260535714Y776325000D01*
X-260464285Y776253571D01*
X-260392857Y776325000D01*
X-260464285Y776396428D01*
X-260464285Y776253571D01*
X-263714285Y772346428D02*
X-263857142Y772417857D01*
X-263928571Y772489285D01*
X-264000000Y772632142D01*
X-264000000Y773060714D01*
X-263928571Y773203571D01*
X-263857142Y773275000D01*
X-263714285Y773346428D01*
X-263500000Y773346428D01*
X-263357142Y773275000D01*
X-263285714Y773203571D01*
X-263214285Y773060714D01*
X-263214285Y772632142D01*
X-263285714Y772489285D01*
X-263357142Y772417857D01*
X-263500000Y772346428D01*
X-263714285Y772346428D01*
X-261928571Y773346428D02*
X-261928571Y772346428D01*
X-262571428Y773346428D02*
X-262571428Y772560714D01*
X-262500000Y772417857D01*
X-262357142Y772346428D01*
X-262142857Y772346428D01*
X-262000000Y772417857D01*
X-261928571Y772489285D01*
X-261428571Y773346428D02*
X-260857142Y773346428D01*
X-261214285Y773846428D02*
X-261214285Y772560714D01*
X-261142857Y772417857D01*
X-261000000Y772346428D01*
X-260857142Y772346428D01*
X-284657142Y774892857D02*
X-284514285Y774821428D01*
X-284228571Y774821428D01*
X-284085714Y774892857D01*
X-284014285Y775035714D01*
X-284014285Y775107142D01*
X-284085714Y775250000D01*
X-284228571Y775321428D01*
X-284442857Y775321428D01*
X-284585714Y775392857D01*
X-284657142Y775535714D01*
X-284657142Y775607142D01*
X-284585714Y775750000D01*
X-284442857Y775821428D01*
X-284228571Y775821428D01*
X-284085714Y775750000D01*
X-282800000Y774892857D02*
X-282942857Y774821428D01*
X-283228571Y774821428D01*
X-283371428Y774892857D01*
X-283442857Y775035714D01*
X-283442857Y775607142D01*
X-283371428Y775750000D01*
X-283228571Y775821428D01*
X-282942857Y775821428D01*
X-282800000Y775750000D01*
X-282728571Y775607142D01*
X-282728571Y775464285D01*
X-283442857Y775321428D01*
X-282085714Y774821428D02*
X-282085714Y775821428D01*
X-282085714Y775535714D02*
X-282014285Y775678571D01*
X-281942857Y775750000D01*
X-281800000Y775821428D01*
X-281657142Y775821428D01*
X-281157142Y774821428D02*
X-281157142Y775821428D01*
X-281157142Y776321428D02*
X-281228571Y776250000D01*
X-281157142Y776178571D01*
X-281085714Y776250000D01*
X-281157142Y776321428D01*
X-281157142Y776178571D01*
X-279800000Y774821428D02*
X-279800000Y775607142D01*
X-279871428Y775750000D01*
X-280014285Y775821428D01*
X-280300000Y775821428D01*
X-280442857Y775750000D01*
X-279800000Y774892857D02*
X-279942857Y774821428D01*
X-280300000Y774821428D01*
X-280442857Y774892857D01*
X-280514285Y775035714D01*
X-280514285Y775178571D01*
X-280442857Y775321428D01*
X-280300000Y775392857D01*
X-279942857Y775392857D01*
X-279800000Y775464285D01*
X-278871428Y774821428D02*
X-279014285Y774892857D01*
X-279085714Y775035714D01*
X-279085714Y776321428D01*
D11*
X-193000000Y747595238D02*
X-193000000Y749595238D01*
X-192523809Y749595238D01*
X-192238095Y749500000D01*
X-192047619Y749309523D01*
X-191952380Y749119047D01*
X-191857142Y748738095D01*
X-191857142Y748452380D01*
X-191952380Y748071428D01*
X-192047619Y747880952D01*
X-192238095Y747690476D01*
X-192523809Y747595238D01*
X-193000000Y747595238D01*
X-191000000Y747785714D02*
X-190904761Y747690476D01*
X-191000000Y747595238D01*
X-191095238Y747690476D01*
X-191000000Y747785714D01*
X-191000000Y747595238D01*
D12*
X-268500000Y761500000D02*
X-268500000Y771500000D01*
X-274000000Y771500000D02*
X-274000000Y790000000D01*
X-268500000Y771500000D02*
X-274000000Y771500000D01*
X-257000000Y745000000D02*
X-257000000Y758500000D01*
D13*
X-240662500Y752910714D02*
X-240233928Y751710714D01*
X-239805357Y752910714D01*
X-238776785Y753510714D02*
X-238605357Y753510714D01*
X-238433928Y753425000D01*
X-238348214Y753339285D01*
X-238262500Y753167857D01*
X-238176785Y752825000D01*
X-238176785Y752396428D01*
X-238262500Y752053571D01*
X-238348214Y751882142D01*
X-238433928Y751796428D01*
X-238605357Y751710714D01*
X-238776785Y751710714D01*
X-238948214Y751796428D01*
X-239033928Y751882142D01*
X-239119642Y752053571D01*
X-239205357Y752396428D01*
X-239205357Y752825000D01*
X-239119642Y753167857D01*
X-239033928Y753339285D01*
X-238948214Y753425000D01*
X-238776785Y753510714D01*
X-237833928Y751539285D02*
X-236462500Y751539285D01*
X-235176785Y753510714D02*
X-236033928Y753510714D01*
X-236119642Y752653571D01*
X-236033928Y752739285D01*
X-235862500Y752825000D01*
X-235433928Y752825000D01*
X-235262500Y752739285D01*
X-235176785Y752653571D01*
X-235091071Y752482142D01*
X-235091071Y752053571D01*
X-235176785Y751882142D01*
X-235262500Y751796428D01*
X-235433928Y751710714D01*
X-235862500Y751710714D01*
X-236033928Y751796428D01*
X-236119642Y751882142D01*
X-234748214Y751539285D02*
X-233376785Y751539285D01*
X-232005357Y751710714D02*
X-233033928Y751710714D01*
X-232519642Y751710714D02*
X-232519642Y753510714D01*
X-232691071Y753253571D01*
X-232862500Y753082142D01*
X-233033928Y752996428D01*
X-247948214Y748589285D02*
X-246576785Y748589285D01*
X-246405357Y749960714D02*
X-245719642Y749960714D01*
X-246148214Y750560714D02*
X-246148214Y749017857D01*
X-246062500Y748846428D01*
X-245891071Y748760714D01*
X-245719642Y748760714D01*
X-245119642Y748760714D02*
X-245119642Y749960714D01*
X-245119642Y749617857D02*
X-245033928Y749789285D01*
X-244948214Y749875000D01*
X-244776785Y749960714D01*
X-244605357Y749960714D01*
X-243233928Y748760714D02*
X-243233928Y749703571D01*
X-243319642Y749875000D01*
X-243491071Y749960714D01*
X-243833928Y749960714D01*
X-244005357Y749875000D01*
X-243233928Y748846428D02*
X-243405357Y748760714D01*
X-243833928Y748760714D01*
X-244005357Y748846428D01*
X-244091071Y749017857D01*
X-244091071Y749189285D01*
X-244005357Y749360714D01*
X-243833928Y749446428D01*
X-243405357Y749446428D01*
X-243233928Y749532142D01*
X-242376785Y749960714D02*
X-242376785Y748760714D01*
X-242376785Y749789285D02*
X-242291071Y749875000D01*
X-242119642Y749960714D01*
X-241862500Y749960714D01*
X-241691071Y749875000D01*
X-241605357Y749703571D01*
X-241605357Y748760714D01*
X-240833928Y748846428D02*
X-240662500Y748760714D01*
X-240319642Y748760714D01*
X-240148214Y748846428D01*
X-240062500Y749017857D01*
X-240062500Y749103571D01*
X-240148214Y749275000D01*
X-240319642Y749360714D01*
X-240576785Y749360714D01*
X-240748214Y749446428D01*
X-240833928Y749617857D01*
X-240833928Y749703571D01*
X-240748214Y749875000D01*
X-240576785Y749960714D01*
X-240319642Y749960714D01*
X-240148214Y749875000D01*
X-238519642Y748846428D02*
X-238691071Y748760714D01*
X-239033928Y748760714D01*
X-239205357Y748846428D01*
X-239291071Y748932142D01*
X-239376785Y749103571D01*
X-239376785Y749617857D01*
X-239291071Y749789285D01*
X-239205357Y749875000D01*
X-239033928Y749960714D01*
X-238691071Y749960714D01*
X-238519642Y749875000D01*
X-237748214Y748760714D02*
X-237748214Y749960714D01*
X-237748214Y749617857D02*
X-237662500Y749789285D01*
X-237576785Y749875000D01*
X-237405357Y749960714D01*
X-237233928Y749960714D01*
X-236633928Y748760714D02*
X-236633928Y749960714D01*
X-236633928Y750560714D02*
X-236719642Y750475000D01*
X-236633928Y750389285D01*
X-236548214Y750475000D01*
X-236633928Y750560714D01*
X-236633928Y750389285D01*
X-235776785Y748760714D02*
X-235776785Y750560714D01*
X-235776785Y749875000D02*
X-235605357Y749960714D01*
X-235262500Y749960714D01*
X-235091071Y749875000D01*
X-235005357Y749789285D01*
X-234919642Y749617857D01*
X-234919642Y749103571D01*
X-235005357Y748932142D01*
X-235091071Y748846428D01*
X-235262500Y748760714D01*
X-235605357Y748760714D01*
X-235776785Y748846428D01*
X-233462500Y748846428D02*
X-233633928Y748760714D01*
X-233976785Y748760714D01*
X-234148214Y748846428D01*
X-234233928Y749017857D01*
X-234233928Y749703571D01*
X-234148214Y749875000D01*
X-233976785Y749960714D01*
X-233633928Y749960714D01*
X-233462500Y749875000D01*
X-233376785Y749703571D01*
X-233376785Y749532142D01*
X-234233928Y749360714D01*
X-233033928Y748589285D02*
X-231662500Y748589285D01*
X-247433928Y745896428D02*
X-247605357Y745810714D01*
X-247948214Y745810714D01*
X-248119642Y745896428D01*
X-248205357Y745982142D01*
X-248291071Y746153571D01*
X-248291071Y746667857D01*
X-248205357Y746839285D01*
X-248119642Y746925000D01*
X-247948214Y747010714D01*
X-247605357Y747010714D01*
X-247433928Y746925000D01*
X-246833928Y747010714D02*
X-246405357Y745810714D01*
X-245976785Y747010714D02*
X-246405357Y745810714D01*
X-246576785Y745382142D01*
X-246662500Y745296428D01*
X-246833928Y745210714D01*
X-245291071Y745810714D02*
X-245291071Y747610714D01*
X-245291071Y746925000D02*
X-245119642Y747010714D01*
X-244776785Y747010714D01*
X-244605357Y746925000D01*
X-244519642Y746839285D01*
X-244433928Y746667857D01*
X-244433928Y746153571D01*
X-244519642Y745982142D01*
X-244605357Y745896428D01*
X-244776785Y745810714D01*
X-245119642Y745810714D01*
X-245291071Y745896428D01*
X-242976785Y745896428D02*
X-243148214Y745810714D01*
X-243491071Y745810714D01*
X-243662500Y745896428D01*
X-243748214Y746067857D01*
X-243748214Y746753571D01*
X-243662500Y746925000D01*
X-243491071Y747010714D01*
X-243148214Y747010714D01*
X-242976785Y746925000D01*
X-242891071Y746753571D01*
X-242891071Y746582142D01*
X-243748214Y746410714D01*
X-242119642Y745810714D02*
X-242119642Y747010714D01*
X-242119642Y746667857D02*
X-242033928Y746839285D01*
X-241948214Y746925000D01*
X-241776785Y747010714D01*
X-241605357Y747010714D01*
X-241005357Y745810714D02*
X-241005357Y747610714D01*
X-241005357Y746925000D02*
X-240833928Y747010714D01*
X-240491071Y747010714D01*
X-240319642Y746925000D01*
X-240233928Y746839285D01*
X-240148214Y746667857D01*
X-240148214Y746153571D01*
X-240233928Y745982142D01*
X-240319642Y745896428D01*
X-240491071Y745810714D01*
X-240833928Y745810714D01*
X-241005357Y745896428D01*
X-239119642Y745810714D02*
X-239291071Y745896428D01*
X-239376785Y745982142D01*
X-239462500Y746153571D01*
X-239462500Y746667857D01*
X-239376785Y746839285D01*
X-239291071Y746925000D01*
X-239119642Y747010714D01*
X-238862500Y747010714D01*
X-238691071Y746925000D01*
X-238605357Y746839285D01*
X-238519642Y746667857D01*
X-238519642Y746153571D01*
X-238605357Y745982142D01*
X-238691071Y745896428D01*
X-238862500Y745810714D01*
X-239119642Y745810714D01*
X-237919642Y747010714D02*
X-237491071Y745810714D01*
X-237062500Y747010714D02*
X-237491071Y745810714D01*
X-237662500Y745382142D01*
X-237748214Y745296428D01*
X-237919642Y745210714D01*
X-235605357Y747610714D02*
X-235948214Y747610714D01*
X-236119642Y747525000D01*
X-236205357Y747439285D01*
X-236376785Y747182142D01*
X-236462500Y746839285D01*
X-236462500Y746153571D01*
X-236376785Y745982142D01*
X-236291071Y745896428D01*
X-236119642Y745810714D01*
X-235776785Y745810714D01*
X-235605357Y745896428D01*
X-235519642Y745982142D01*
X-235433928Y746153571D01*
X-235433928Y746582142D01*
X-235519642Y746753571D01*
X-235605357Y746839285D01*
X-235776785Y746925000D01*
X-236119642Y746925000D01*
X-236291071Y746839285D01*
X-236376785Y746753571D01*
X-236462500Y746582142D01*
X-233891071Y747610714D02*
X-234233928Y747610714D01*
X-234405357Y747525000D01*
X-234491071Y747439285D01*
X-234662500Y747182142D01*
X-234748214Y746839285D01*
X-234748214Y746153571D01*
X-234662500Y745982142D01*
X-234576785Y745896428D01*
X-234405357Y745810714D01*
X-234062500Y745810714D01*
X-233891071Y745896428D01*
X-233805357Y745982142D01*
X-233719642Y746153571D01*
X-233719642Y746582142D01*
X-233805357Y746753571D01*
X-233891071Y746839285D01*
X-234062500Y746925000D01*
X-234405357Y746925000D01*
X-234576785Y746839285D01*
X-234662500Y746753571D01*
X-234748214Y746582142D01*
X-232176785Y747610714D02*
X-232519642Y747610714D01*
X-232691071Y747525000D01*
X-232776785Y747439285D01*
X-232948214Y747182142D01*
X-233033928Y746839285D01*
X-233033928Y746153571D01*
X-232948214Y745982142D01*
X-232862500Y745896428D01*
X-232691071Y745810714D01*
X-232348214Y745810714D01*
X-232176785Y745896428D01*
X-232091071Y745982142D01*
X-232005357Y746153571D01*
X-232005357Y746582142D01*
X-232091071Y746753571D01*
X-232176785Y746839285D01*
X-232348214Y746925000D01*
X-232691071Y746925000D01*
X-232862500Y746839285D01*
X-232948214Y746753571D01*
X-233033928Y746582142D01*
D14*
X-289500000Y772047619D02*
X-289500000Y772714285D01*
X-289500000Y772523809D02*
X-289452380Y772619047D01*
X-289404761Y772666666D01*
X-289309523Y772714285D01*
X-289214285Y772714285D01*
X-288928571Y772952380D02*
X-288880952Y773000000D01*
X-288785714Y773047619D01*
X-288547619Y773047619D01*
X-288452380Y773000000D01*
X-288404761Y772952380D01*
X-288357142Y772857142D01*
X-288357142Y772761904D01*
X-288404761Y772619047D01*
X-288976190Y772047619D01*
X-288357142Y772047619D01*
X-288023809Y773047619D02*
X-287404761Y773047619D01*
X-287738095Y772666666D01*
X-287595238Y772666666D01*
X-287500000Y772619047D01*
X-287452380Y772571428D01*
X-287404761Y772476190D01*
X-287404761Y772238095D01*
X-287452380Y772142857D01*
X-287500000Y772095238D01*
X-287595238Y772047619D01*
X-287880952Y772047619D01*
X-287976190Y772095238D01*
X-288023809Y772142857D01*
X-287023809Y772952380D02*
X-286976190Y773000000D01*
X-286880952Y773047619D01*
X-286642857Y773047619D01*
X-286547619Y773000000D01*
X-286500000Y772952380D01*
X-286452380Y772857142D01*
X-286452380Y772761904D01*
X-286500000Y772619047D01*
X-287071428Y772047619D01*
X-286452380Y772047619D01*
X-253380952Y759095238D02*
X-253285714Y759047619D01*
X-253095238Y759047619D01*
X-253000000Y759095238D01*
X-252952380Y759190476D01*
X-252952380Y759238095D01*
X-253000000Y759333333D01*
X-253095238Y759380952D01*
X-253238095Y759380952D01*
X-253333333Y759428571D01*
X-253380952Y759523809D01*
X-253380952Y759571428D01*
X-253333333Y759666666D01*
X-253238095Y759714285D01*
X-253095238Y759714285D01*
X-253000000Y759666666D01*
X-252142857Y759095238D02*
X-252238095Y759047619D01*
X-252428571Y759047619D01*
X-252523809Y759095238D01*
X-252571428Y759190476D01*
X-252571428Y759571428D01*
X-252523809Y759666666D01*
X-252428571Y759714285D01*
X-252238095Y759714285D01*
X-252142857Y759666666D01*
X-252095238Y759571428D01*
X-252095238Y759476190D01*
X-252571428Y759380952D01*
X-251666666Y759047619D02*
X-251666666Y759714285D01*
X-251666666Y759523809D02*
X-251619047Y759619047D01*
X-251571428Y759666666D01*
X-251476190Y759714285D01*
X-251380952Y759714285D01*
X-251047619Y759047619D02*
X-251047619Y759714285D01*
X-251047619Y760047619D02*
X-251095238Y760000000D01*
X-251047619Y759952380D01*
X-251000000Y760000000D01*
X-251047619Y760047619D01*
X-251047619Y759952380D01*
X-250142857Y759047619D02*
X-250142857Y759571428D01*
X-250190476Y759666666D01*
X-250285714Y759714285D01*
X-250476190Y759714285D01*
X-250571428Y759666666D01*
X-250142857Y759095238D02*
X-250238095Y759047619D01*
X-250476190Y759047619D01*
X-250571428Y759095238D01*
X-250619047Y759190476D01*
X-250619047Y759285714D01*
X-250571428Y759380952D01*
X-250476190Y759428571D01*
X-250238095Y759428571D01*
X-250142857Y759476190D01*
X-249523809Y759047619D02*
X-249619047Y759095238D01*
X-249666666Y759190476D01*
X-249666666Y760047619D01*
X-248380952Y759047619D02*
X-248380952Y759714285D01*
X-248380952Y759619047D02*
X-248333333Y759666666D01*
X-248238095Y759714285D01*
X-248095238Y759714285D01*
X-248000000Y759666666D01*
X-247952380Y759571428D01*
X-247952380Y759047619D01*
X-247952380Y759571428D02*
X-247904761Y759666666D01*
X-247809523Y759714285D01*
X-247666666Y759714285D01*
X-247571428Y759666666D01*
X-247523809Y759571428D01*
X-247523809Y759047619D01*
X-247047619Y759047619D02*
X-247047619Y759714285D01*
X-247047619Y760047619D02*
X-247095238Y760000000D01*
X-247047619Y759952380D01*
X-247000000Y760000000D01*
X-247047619Y760047619D01*
X-247047619Y759952380D01*
X-246142857Y759047619D02*
X-246142857Y760047619D01*
X-246142857Y759095238D02*
X-246238095Y759047619D01*
X-246428571Y759047619D01*
X-246523809Y759095238D01*
X-246571428Y759142857D01*
X-246619047Y759238095D01*
X-246619047Y759523809D01*
X-246571428Y759619047D01*
X-246523809Y759666666D01*
X-246428571Y759714285D01*
X-246238095Y759714285D01*
X-246142857Y759666666D01*
X-245666666Y759047619D02*
X-245666666Y759714285D01*
X-245666666Y760047619D02*
X-245714285Y760000000D01*
X-245666666Y759952380D01*
X-245619047Y760000000D01*
X-245666666Y760047619D01*
X-245666666Y759952380D01*
X-229475000Y751764285D02*
X-229475000Y750764285D01*
X-229475000Y751716666D02*
X-229379761Y751764285D01*
X-229189285Y751764285D01*
X-229094047Y751716666D01*
X-229046428Y751669047D01*
X-228998809Y751573809D01*
X-228998809Y751288095D01*
X-229046428Y751192857D01*
X-229094047Y751145238D01*
X-229189285Y751097619D01*
X-229379761Y751097619D01*
X-229475000Y751145238D01*
X-228570238Y751097619D02*
X-228570238Y751764285D01*
X-228570238Y751573809D02*
X-228522619Y751669047D01*
X-228475000Y751716666D01*
X-228379761Y751764285D01*
X-228284523Y751764285D01*
X-227808333Y751097619D02*
X-227903571Y751145238D01*
X-227951190Y751192857D01*
X-227998809Y751288095D01*
X-227998809Y751573809D01*
X-227951190Y751669047D01*
X-227903571Y751716666D01*
X-227808333Y751764285D01*
X-227665476Y751764285D01*
X-227570238Y751716666D01*
X-227522619Y751669047D01*
X-227475000Y751573809D01*
X-227475000Y751288095D01*
X-227522619Y751192857D01*
X-227570238Y751145238D01*
X-227665476Y751097619D01*
X-227808333Y751097619D01*
X-227046428Y751478571D02*
X-226284523Y751478571D01*
X-225808333Y751097619D02*
X-225808333Y751764285D01*
X-225808333Y751669047D02*
X-225760714Y751716666D01*
X-225665476Y751764285D01*
X-225522619Y751764285D01*
X-225427380Y751716666D01*
X-225379761Y751621428D01*
X-225379761Y751097619D01*
X-225379761Y751621428D02*
X-225332142Y751716666D01*
X-225236904Y751764285D01*
X-225094047Y751764285D01*
X-224998809Y751716666D01*
X-224951190Y751621428D01*
X-224951190Y751097619D01*
X-224475000Y751097619D02*
X-224475000Y751764285D01*
X-224475000Y752097619D02*
X-224522619Y752050000D01*
X-224475000Y752002380D01*
X-224427380Y752050000D01*
X-224475000Y752097619D01*
X-224475000Y752002380D01*
X-223570238Y751145238D02*
X-223665476Y751097619D01*
X-223855952Y751097619D01*
X-223951190Y751145238D01*
X-223998809Y751192857D01*
X-224046428Y751288095D01*
X-224046428Y751573809D01*
X-223998809Y751669047D01*
X-223951190Y751716666D01*
X-223855952Y751764285D01*
X-223665476Y751764285D01*
X-223570238Y751716666D01*
X-223141666Y751097619D02*
X-223141666Y751764285D01*
X-223141666Y751573809D02*
X-223094047Y751669047D01*
X-223046428Y751716666D01*
X-222951190Y751764285D01*
X-222855952Y751764285D01*
X-222379761Y751097619D02*
X-222475000Y751145238D01*
X-222522619Y751192857D01*
X-222570238Y751288095D01*
X-222570238Y751573809D01*
X-222522619Y751669047D01*
X-222475000Y751716666D01*
X-222379761Y751764285D01*
X-222236904Y751764285D01*
X-222141666Y751716666D01*
X-222094047Y751669047D01*
X-222046428Y751573809D01*
X-222046428Y751288095D01*
X-222094047Y751192857D01*
X-222141666Y751145238D01*
X-222236904Y751097619D01*
X-222379761Y751097619D01*
X-221617857Y751478571D02*
X-220855952Y751478571D01*
X-219903571Y752097619D02*
X-220379761Y752097619D01*
X-220427380Y751621428D01*
X-220379761Y751669047D01*
X-220284523Y751716666D01*
X-220046428Y751716666D01*
X-219951190Y751669047D01*
X-219903571Y751621428D01*
X-219855952Y751526190D01*
X-219855952Y751288095D01*
X-219903571Y751192857D01*
X-219951190Y751145238D01*
X-220046428Y751097619D01*
X-220284523Y751097619D01*
X-220379761Y751145238D01*
X-220427380Y751192857D01*
X-219522619Y751764285D02*
X-219284523Y751097619D01*
X-219046428Y751764285D01*
X-217475000Y751764285D02*
X-217475000Y751097619D01*
X-217903571Y751764285D02*
X-217903571Y751240476D01*
X-217855952Y751145238D01*
X-217760714Y751097619D01*
X-217617857Y751097619D01*
X-217522619Y751145238D01*
X-217475000Y751192857D01*
X-216427380Y751192857D02*
X-216475000Y751145238D01*
X-216617857Y751097619D01*
X-216713095Y751097619D01*
X-216855952Y751145238D01*
X-216951190Y751240476D01*
X-216998809Y751335714D01*
X-217046428Y751526190D01*
X-217046428Y751669047D01*
X-216998809Y751859523D01*
X-216951190Y751954761D01*
X-216855952Y752050000D01*
X-216713095Y752097619D01*
X-216617857Y752097619D01*
X-216475000Y752050000D01*
X-216427380Y752002380D01*
X-201976190Y746214285D02*
X-201976190Y745547619D01*
X-202404761Y746214285D02*
X-202404761Y745690476D01*
X-202357142Y745595238D01*
X-202261904Y745547619D01*
X-202119047Y745547619D01*
X-202023809Y745595238D01*
X-201976190Y745642857D01*
X-201547619Y745595238D02*
X-201452380Y745547619D01*
X-201261904Y745547619D01*
X-201166666Y745595238D01*
X-201119047Y745690476D01*
X-201119047Y745738095D01*
X-201166666Y745833333D01*
X-201261904Y745880952D01*
X-201404761Y745880952D01*
X-201500000Y745928571D01*
X-201547619Y746023809D01*
X-201547619Y746071428D01*
X-201500000Y746166666D01*
X-201404761Y746214285D01*
X-201261904Y746214285D01*
X-201166666Y746166666D01*
X-200690476Y745547619D02*
X-200690476Y746547619D01*
X-200690476Y746166666D02*
X-200595238Y746214285D01*
X-200404761Y746214285D01*
X-200309523Y746166666D01*
X-200261904Y746119047D01*
X-200214285Y746023809D01*
X-200214285Y745738095D01*
X-200261904Y745642857D01*
X-200309523Y745595238D01*
X-200404761Y745547619D01*
X-200595238Y745547619D01*
X-200690476Y745595238D01*
X-199785714Y745928571D02*
X-199023809Y745928571D01*
X-198547619Y745547619D02*
X-198547619Y746547619D01*
X-198119047Y745547619D02*
X-198119047Y746071428D01*
X-198166666Y746166666D01*
X-198261904Y746214285D01*
X-198404761Y746214285D01*
X-198500000Y746166666D01*
X-198547619Y746119047D01*
X-197500000Y745547619D02*
X-197595238Y745595238D01*
X-197642857Y745642857D01*
X-197690476Y745738095D01*
X-197690476Y746023809D01*
X-197642857Y746119047D01*
X-197595238Y746166666D01*
X-197500000Y746214285D01*
X-197357142Y746214285D01*
X-197261904Y746166666D01*
X-197214285Y746119047D01*
X-197166666Y746023809D01*
X-197166666Y745738095D01*
X-197214285Y745642857D01*
X-197261904Y745595238D01*
X-197357142Y745547619D01*
X-197500000Y745547619D01*
X-196785714Y745595238D02*
X-196690476Y745547619D01*
X-196500000Y745547619D01*
X-196404761Y745595238D01*
X-196357142Y745690476D01*
X-196357142Y745738095D01*
X-196404761Y745833333D01*
X-196500000Y745880952D01*
X-196642857Y745880952D01*
X-196738095Y745928571D01*
X-196785714Y746023809D01*
X-196785714Y746071428D01*
X-196738095Y746166666D01*
X-196642857Y746214285D01*
X-196500000Y746214285D01*
X-196404761Y746166666D01*
X-196071428Y746214285D02*
X-195690476Y746214285D01*
X-195928571Y746547619D02*
X-195928571Y745690476D01*
X-195880952Y745595238D01*
X-195785714Y745547619D01*
X-195690476Y745547619D01*
X-194642857Y745595238D02*
X-194547619Y745547619D01*
X-194357142Y745547619D01*
X-194261904Y745595238D01*
X-194214285Y745690476D01*
X-194214285Y745738095D01*
X-194261904Y745833333D01*
X-194357142Y745880952D01*
X-194500000Y745880952D01*
X-194595238Y745928571D01*
X-194642857Y746023809D01*
X-194642857Y746071428D01*
X-194595238Y746166666D01*
X-194500000Y746214285D01*
X-194357142Y746214285D01*
X-194261904Y746166666D01*
X-193785714Y745547619D02*
X-193785714Y746547619D01*
X-193357142Y745547619D02*
X-193357142Y746071428D01*
X-193404761Y746166666D01*
X-193500000Y746214285D01*
X-193642857Y746214285D01*
X-193738095Y746166666D01*
X-193785714Y746119047D01*
X-192880952Y745547619D02*
X-192880952Y746214285D01*
X-192880952Y746547619D02*
X-192928571Y746500000D01*
X-192880952Y746452380D01*
X-192833333Y746500000D01*
X-192880952Y746547619D01*
X-192880952Y746452380D01*
X-192023809Y745595238D02*
X-192119047Y745547619D01*
X-192309523Y745547619D01*
X-192404761Y745595238D01*
X-192452380Y745690476D01*
X-192452380Y746071428D01*
X-192404761Y746166666D01*
X-192309523Y746214285D01*
X-192119047Y746214285D01*
X-192023809Y746166666D01*
X-191976190Y746071428D01*
X-191976190Y745976190D01*
X-192452380Y745880952D01*
X-191404761Y745547619D02*
X-191500000Y745595238D01*
X-191547619Y745690476D01*
X-191547619Y746547619D01*
X-190595238Y745547619D02*
X-190595238Y746547619D01*
X-190595238Y745595238D02*
X-190690476Y745547619D01*
X-190880952Y745547619D01*
X-190976190Y745595238D01*
X-191023809Y745642857D01*
X-191071428Y745738095D01*
X-191071428Y746023809D01*
X-191023809Y746119047D01*
X-190976190Y746166666D01*
X-190880952Y746214285D01*
X-190690476Y746214285D01*
X-190595238Y746166666D01*
D11*
X-255357142Y759285714D02*
X-255452380Y759190476D01*
X-255738095Y759095238D01*
X-255928571Y759095238D01*
X-256214285Y759190476D01*
X-256404761Y759380952D01*
X-256500000Y759571428D01*
X-256595238Y759952380D01*
X-256595238Y760238095D01*
X-256500000Y760619047D01*
X-256404761Y760809523D01*
X-256214285Y761000000D01*
X-255928571Y761095238D01*
X-255738095Y761095238D01*
X-255452380Y761000000D01*
X-255357142Y760904761D01*
X-254500000Y759285714D02*
X-254404761Y759190476D01*
X-254500000Y759095238D01*
X-254595238Y759190476D01*
X-254500000Y759285714D01*
X-254500000Y759095238D01*
X-288333333Y775142857D02*
X-288047619Y775047619D01*
X-287952380Y774952380D01*
X-287857142Y774761904D01*
X-287857142Y774476190D01*
X-287952380Y774285714D01*
X-288047619Y774190476D01*
X-288238095Y774095238D01*
X-289000000Y774095238D01*
X-289000000Y776095238D01*
X-288333333Y776095238D01*
X-288142857Y776000000D01*
X-288047619Y775904761D01*
X-287952380Y775714285D01*
X-287952380Y775523809D01*
X-288047619Y775333333D01*
X-288142857Y775238095D01*
X-288333333Y775142857D01*
X-289000000Y775142857D01*
X-287000000Y774285714D02*
X-286904761Y774190476D01*
X-287000000Y774095238D01*
X-287095238Y774190476D01*
X-287000000Y774285714D01*
X-287000000Y774095238D01*
X-229502380Y757391666D02*
X-228550000Y757391666D01*
X-229692857Y756820238D02*
X-229026190Y758820238D01*
X-228359523Y756820238D01*
X-227692857Y757010714D02*
X-227597619Y756915476D01*
X-227692857Y756820238D01*
X-227788095Y756915476D01*
X-227692857Y757010714D01*
X-227692857Y756820238D01*
D12*
X-230000000Y790000000D02*
X-230000000Y751500000D01*
X-210000000Y745000000D02*
X-210000000Y754000000D01*
X-210000000Y790000000D02*
X-210000000Y745000000D01*
X-246260000Y768260000D02*
X-246080000Y768260000D01*
X-246080000Y768260000D02*
X-246080000Y764820000D01*
X-246080000Y764820000D02*
X-246260000Y764820000D01*
X-248740000Y768260000D02*
X-248920000Y768260000D01*
X-248920000Y768260000D02*
X-248920000Y764820000D01*
X-248920000Y764820000D02*
X-248740000Y764820000D01*
X-246080000Y767660000D02*
X-248920000Y767660000D01*
X-246080000Y767540000D02*
X-248920000Y767540000D01*
X-246080000Y767780000D02*
X-248920000Y767780000D01*
D14*
X-208790000Y789630000D02*
X-191010000Y789630000D01*
X-208790000Y750260000D02*
X-208790000Y789630000D01*
X-203710000Y750260000D02*
X-208790000Y750260000D01*
X-191010000Y750260000D02*
X-196090000Y750260000D01*
X-191010000Y750260000D02*
X-191010000Y789630000D01*
D12*
X-203710000Y750260000D02*
X-196090000Y750260000D01*
X-206250000Y782010000D02*
X-193550000Y782010000D01*
X-193550000Y782010000D02*
X-193550000Y795980000D01*
X-193550000Y795980000D02*
X-206250000Y795980000D01*
X-206250000Y795980000D02*
X-206250000Y782010000D01*
X-251370000Y753500000D02*
X-253980000Y753500000D01*
X-248630000Y753500000D02*
G75*
G03*
X-248630000Y753500000I-1370000J0D01*
G01*
X-289330000Y765310000D02*
X-289330000Y763660000D01*
X-289330000Y763660000D02*
X-268890000Y763660000D01*
X-268890000Y763660000D02*
X-268890000Y768960000D01*
X-268890000Y768960000D02*
X-289330000Y768960000D01*
X-289330000Y768960000D02*
X-289330000Y767310000D01*
X-289330000Y767310000D02*
G75*
G02*
X-289330000Y765310000I0J-1000000D01*
G01*
X-237190000Y769830000D02*
X-238840000Y769830000D01*
X-238840000Y769830000D02*
X-238840000Y759550000D01*
X-238840000Y759550000D02*
X-233540000Y759550000D01*
X-233540000Y759550000D02*
X-233540000Y769830000D01*
X-233540000Y769830000D02*
X-235190000Y769830000D01*
X-235190000Y769830000D02*
G75*
G02*
X-237190000Y769830000I-1000000J0D01*
G01*
X-242130000Y764000000D02*
G75*
G03*
X-242130000Y764000000I-1370000J0D01*
G01*
X-243500000Y765370000D02*
X-243500000Y767980000D01*
X-233870000Y756500000D02*
X-236480000Y756500000D01*
X-231130000Y756500000D02*
G75*
G03*
X-231130000Y756500000I-1370000J0D01*
G01*
X-248630000Y757000000D02*
G75*
G03*
X-248630000Y757000000I-1370000J0D01*
G01*
X-251370000Y757000000D02*
X-253980000Y757000000D01*
X-267830000Y765310000D02*
X-267830000Y763660000D01*
X-267830000Y763660000D02*
X-249930000Y763660000D01*
X-249930000Y763660000D02*
X-249930000Y768960000D01*
X-249930000Y768960000D02*
X-267830000Y768960000D01*
X-267830000Y768960000D02*
X-267830000Y767310000D01*
X-267830000Y767310000D02*
G75*
G02*
X-267830000Y765310000I0J-1000000D01*
G01*
D14*
X-211410000Y759160000D02*
X-229190000Y759160000D01*
X-211410000Y789640000D02*
X-211410000Y759160000D01*
X-216490000Y789640000D02*
X-211410000Y789640000D01*
X-216490000Y792180000D02*
X-216490000Y789640000D01*
X-224110000Y792180000D02*
X-216490000Y792180000D01*
X-224110000Y789640000D02*
X-224110000Y792180000D01*
X-229190000Y789640000D02*
X-224110000Y789640000D01*
X-229190000Y789640000D02*
X-229190000Y759160000D01*
D12*
X-223130000Y755000000D02*
G75*
G03*
X-223130000Y755000000I-2620000J0D01*
G01*
X-225750000Y757580000D02*
X-225750000Y752420000D01*
X-225710000Y757580000D02*
X-225710000Y752420000D01*
X-225670000Y757579000D02*
X-225670000Y752421000D01*
X-225630000Y757578000D02*
X-225630000Y752422000D01*
X-225590000Y757576000D02*
X-225590000Y752424000D01*
X-225550000Y757573000D02*
X-225550000Y752427000D01*
X-225510000Y757569000D02*
X-225510000Y756040000D01*
X-225510000Y753960000D02*
X-225510000Y752431000D01*
X-225470000Y757565000D02*
X-225470000Y756040000D01*
X-225470000Y753960000D02*
X-225470000Y752435000D01*
X-225430000Y757561000D02*
X-225430000Y756040000D01*
X-225430000Y753960000D02*
X-225430000Y752439000D01*
X-225390000Y757556000D02*
X-225390000Y756040000D01*
X-225390000Y753960000D02*
X-225390000Y752444000D01*
X-225350000Y757550000D02*
X-225350000Y756040000D01*
X-225350000Y753960000D02*
X-225350000Y752450000D01*
X-225310000Y757543000D02*
X-225310000Y756040000D01*
X-225310000Y753960000D02*
X-225310000Y752457000D01*
X-225270000Y757536000D02*
X-225270000Y756040000D01*
X-225270000Y753960000D02*
X-225270000Y752464000D01*
X-225230000Y757528000D02*
X-225230000Y756040000D01*
X-225230000Y753960000D02*
X-225230000Y752472000D01*
X-225190000Y757520000D02*
X-225190000Y756040000D01*
X-225190000Y753960000D02*
X-225190000Y752480000D01*
X-225150000Y757511000D02*
X-225150000Y756040000D01*
X-225150000Y753960000D02*
X-225150000Y752489000D01*
X-225110000Y757501000D02*
X-225110000Y756040000D01*
X-225110000Y753960000D02*
X-225110000Y752499000D01*
X-225070000Y757491000D02*
X-225070000Y756040000D01*
X-225070000Y753960000D02*
X-225070000Y752509000D01*
X-225029000Y757480000D02*
X-225029000Y756040000D01*
X-225029000Y753960000D02*
X-225029000Y752520000D01*
X-224989000Y757468000D02*
X-224989000Y756040000D01*
X-224989000Y753960000D02*
X-224989000Y752532000D01*
X-224949000Y757455000D02*
X-224949000Y756040000D01*
X-224949000Y753960000D02*
X-224949000Y752545000D01*
X-224909000Y757442000D02*
X-224909000Y756040000D01*
X-224909000Y753960000D02*
X-224909000Y752558000D01*
X-224869000Y757428000D02*
X-224869000Y756040000D01*
X-224869000Y753960000D02*
X-224869000Y752572000D01*
X-224829000Y757414000D02*
X-224829000Y756040000D01*
X-224829000Y753960000D02*
X-224829000Y752586000D01*
X-224789000Y757398000D02*
X-224789000Y756040000D01*
X-224789000Y753960000D02*
X-224789000Y752602000D01*
X-224749000Y757382000D02*
X-224749000Y756040000D01*
X-224749000Y753960000D02*
X-224749000Y752618000D01*
X-224709000Y757365000D02*
X-224709000Y756040000D01*
X-224709000Y753960000D02*
X-224709000Y752635000D01*
X-224669000Y757348000D02*
X-224669000Y756040000D01*
X-224669000Y753960000D02*
X-224669000Y752652000D01*
X-224629000Y757329000D02*
X-224629000Y756040000D01*
X-224629000Y753960000D02*
X-224629000Y752671000D01*
X-224589000Y757310000D02*
X-224589000Y756040000D01*
X-224589000Y753960000D02*
X-224589000Y752690000D01*
X-224549000Y757290000D02*
X-224549000Y756040000D01*
X-224549000Y753960000D02*
X-224549000Y752710000D01*
X-224509000Y757268000D02*
X-224509000Y756040000D01*
X-224509000Y753960000D02*
X-224509000Y752732000D01*
X-224469000Y757247000D02*
X-224469000Y756040000D01*
X-224469000Y753960000D02*
X-224469000Y752753000D01*
X-224429000Y757224000D02*
X-224429000Y756040000D01*
X-224429000Y753960000D02*
X-224429000Y752776000D01*
X-224389000Y757200000D02*
X-224389000Y756040000D01*
X-224389000Y753960000D02*
X-224389000Y752800000D01*
X-224349000Y757175000D02*
X-224349000Y756040000D01*
X-224349000Y753960000D02*
X-224349000Y752825000D01*
X-224309000Y757149000D02*
X-224309000Y756040000D01*
X-224309000Y753960000D02*
X-224309000Y752851000D01*
X-224269000Y757122000D02*
X-224269000Y756040000D01*
X-224269000Y753960000D02*
X-224269000Y752878000D01*
X-224229000Y757095000D02*
X-224229000Y756040000D01*
X-224229000Y753960000D02*
X-224229000Y752905000D01*
X-224189000Y757065000D02*
X-224189000Y756040000D01*
X-224189000Y753960000D02*
X-224189000Y752935000D01*
X-224149000Y757035000D02*
X-224149000Y756040000D01*
X-224149000Y753960000D02*
X-224149000Y752965000D01*
X-224109000Y757004000D02*
X-224109000Y756040000D01*
X-224109000Y753960000D02*
X-224109000Y752996000D01*
X-224069000Y756971000D02*
X-224069000Y756040000D01*
X-224069000Y753960000D02*
X-224069000Y753029000D01*
X-224029000Y756937000D02*
X-224029000Y756040000D01*
X-224029000Y753960000D02*
X-224029000Y753063000D01*
X-223989000Y756901000D02*
X-223989000Y756040000D01*
X-223989000Y753960000D02*
X-223989000Y753099000D01*
X-223949000Y756864000D02*
X-223949000Y756040000D01*
X-223949000Y753960000D02*
X-223949000Y753136000D01*
X-223909000Y756826000D02*
X-223909000Y756040000D01*
X-223909000Y753960000D02*
X-223909000Y753174000D01*
X-223869000Y756785000D02*
X-223869000Y756040000D01*
X-223869000Y753960000D02*
X-223869000Y753215000D01*
X-223829000Y756743000D02*
X-223829000Y756040000D01*
X-223829000Y753960000D02*
X-223829000Y753257000D01*
X-223789000Y756699000D02*
X-223789000Y756040000D01*
X-223789000Y753960000D02*
X-223789000Y753301000D01*
X-223749000Y756653000D02*
X-223749000Y756040000D01*
X-223749000Y753960000D02*
X-223749000Y753347000D01*
X-223709000Y756605000D02*
X-223709000Y756040000D01*
X-223709000Y753960000D02*
X-223709000Y753395000D01*
X-223669000Y756554000D02*
X-223669000Y756040000D01*
X-223669000Y753960000D02*
X-223669000Y753446000D01*
X-223629000Y756500000D02*
X-223629000Y756040000D01*
X-223629000Y753960000D02*
X-223629000Y753500000D01*
X-223589000Y756443000D02*
X-223589000Y756040000D01*
X-223589000Y753960000D02*
X-223589000Y753557000D01*
X-223549000Y756383000D02*
X-223549000Y756040000D01*
X-223549000Y753960000D02*
X-223549000Y753617000D01*
X-223509000Y756319000D02*
X-223509000Y756040000D01*
X-223509000Y753960000D02*
X-223509000Y753681000D01*
X-223469000Y756251000D02*
X-223469000Y756040000D01*
X-223469000Y753960000D02*
X-223469000Y753749000D01*
X-223429000Y756178000D02*
X-223429000Y753822000D01*
X-223389000Y756098000D02*
X-223389000Y753902000D01*
X-223349000Y756011000D02*
X-223349000Y753989000D01*
X-223309000Y755915000D02*
X-223309000Y754085000D01*
X-223269000Y755805000D02*
X-223269000Y754195000D01*
X-223229000Y755677000D02*
X-223229000Y754323000D01*
X-223189000Y755518000D02*
X-223189000Y754482000D01*
X-223149000Y755284000D02*
X-223149000Y754716000D01*
X-228554775Y756475000D02*
X-228054775Y756475000D01*
X-228304775Y756725000D02*
X-228304775Y756225000D01*
X-287270000Y760070000D02*
X-282730000Y760070000D01*
X-287270000Y757930000D02*
X-282730000Y757930000D01*
X-287270000Y760070000D02*
X-287270000Y760055000D01*
X-287270000Y757945000D02*
X-287270000Y757930000D01*
X-282730000Y760070000D02*
X-282730000Y760055000D01*
X-282730000Y757945000D02*
X-282730000Y757930000D01*
X-267230000Y757930000D02*
X-271770000Y757930000D01*
X-267230000Y760070000D02*
X-271770000Y760070000D01*
X-267230000Y757930000D02*
X-267230000Y757945000D01*
X-267230000Y760055000D02*
X-267230000Y760070000D01*
X-271770000Y757930000D02*
X-271770000Y757945000D01*
X-271770000Y760055000D02*
X-271770000Y760070000D01*
X-275230000Y757945000D02*
X-275230000Y757930000D01*
X-275230000Y760070000D02*
X-275230000Y760055000D01*
X-279770000Y757945000D02*
X-279770000Y757930000D01*
X-279770000Y760070000D02*
X-279770000Y760055000D01*
X-279770000Y757930000D02*
X-275230000Y757930000D01*
X-279770000Y760070000D02*
X-275230000Y760070000D01*
X-264270000Y760055000D02*
X-264270000Y760070000D01*
X-264270000Y757930000D02*
X-264270000Y757945000D01*
X-259730000Y760055000D02*
X-259730000Y760070000D01*
X-259730000Y757930000D02*
X-259730000Y757945000D01*
X-259730000Y760070000D02*
X-264270000Y760070000D01*
X-259730000Y757930000D02*
X-264270000Y757930000D01*
X-199775000Y749770000D02*
X-199775000Y746930000D01*
X-199535000Y749770000D02*
X-199535000Y746930000D01*
X-199655000Y749770000D02*
X-199655000Y746930000D01*
X-196815000Y746930000D02*
X-196815000Y747110000D01*
X-200255000Y746930000D02*
X-196815000Y746930000D01*
X-200255000Y747110000D02*
X-200255000Y746930000D01*
X-196815000Y749770000D02*
X-196815000Y749590000D01*
X-200255000Y749770000D02*
X-196815000Y749770000D01*
X-200255000Y749590000D02*
X-200255000Y749770000D01*
X-231110000Y750830000D02*
X-231110000Y745630000D01*
X-213270000Y750830000D02*
X-231110000Y750830000D01*
X-210670000Y745630000D02*
X-231110000Y745630000D01*
X-213270000Y750830000D02*
X-213270000Y745750000D01*
X-210670000Y748230000D02*
X-210670000Y745630000D01*
X-213250000Y750830000D02*
X-210670000Y750830000D01*
X-210670000Y750830000D02*
X-210670000Y748250000D01*
X-221000000Y750830000D02*
X-221000000Y745750000D01*
X-223500000Y750750000D02*
X-223500000Y745670000D01*
X-203330000Y786720000D02*
X-203330000Y789380000D01*
X-203330000Y786720000D02*
X-190570000Y786720000D01*
X-190570000Y786720000D02*
X-190570000Y789380000D01*
X-203330000Y789380000D02*
X-190570000Y789380000D01*
X-205930000Y789380000D02*
X-204600000Y789380000D01*
X-205930000Y788050000D02*
X-205930000Y789380000D01*
X-208030000Y745650000D02*
X-204430000Y745650000D01*
X-208041875Y745658259D02*
G75*
G02*
X-207050000Y749950000I1811875J1841741D01*
G01*
X-204421555Y745672316D02*
G75*
G03*
X-205450000Y749950000I-1808445J1827684D01*
G01*
D14*
X-283778000Y785524000D02*
X-285810000Y785524000D01*
X-285810000Y785524000D02*
X-285810000Y789080000D01*
X-285810000Y789080000D02*
X-278190000Y789080000D01*
X-278190000Y789080000D02*
X-278190000Y785524000D01*
X-278190000Y785524000D02*
X-280222000Y785524000D01*
X-287080000Y790096000D02*
X-288096000Y790096000D01*
X-275904000Y790096000D02*
X-276920000Y790096000D01*
X-284540000Y792128000D02*
X-284540000Y790604000D01*
X-279460000Y790604000D02*
X-279460000Y792128000D01*
X-284540000Y791366000D02*
X-279460000Y791366000D01*
X-287080000Y790096000D02*
X-287080000Y790350000D01*
X-287080000Y790350000D02*
X-287080000Y790604000D01*
X-287080000Y790604000D02*
X-276920000Y790604000D01*
X-276920000Y790604000D02*
X-276920000Y790096000D01*
X-284540000Y792128000D02*
X-279460000Y792128000D01*
X-288096000Y777904000D02*
X-288096000Y790096000D01*
X-275904000Y790096000D02*
X-275904000Y777904000D01*
X-275904000Y777904000D02*
X-288096000Y777904000D01*
D12*
X-287885000Y756940000D02*
X-259035000Y756940000D01*
X-257975000Y755880000D02*
X-257975000Y745380000D01*
X-259035000Y744320000D02*
X-287885000Y744320000D01*
X-288945000Y745380000D02*
X-288945000Y755880000D01*
X-279250000Y757834338D02*
X-278750000Y757834338D01*
X-278750000Y757834338D02*
X-279000000Y757401325D01*
X-279000000Y757401325D02*
X-279250000Y757834338D01*
X-279691689Y754840000D02*
X-267228311Y754840000D01*
X-278792421Y746420000D02*
X-268127579Y746420000D01*
X-265593530Y752891744D02*
X-266492798Y747791744D01*
X-281326470Y752891744D02*
X-280427202Y747791744D01*
X-287885000Y756940000D02*
G75*
G03*
X-288945000Y755880000I0J-1060000D01*
G01*
X-257975000Y755880000D02*
G75*
G03*
X-259035000Y756940000I-1060000J0D01*
G01*
X-287885000Y744320000D02*
G75*
G02*
X-288945000Y745380000I0J1060000D01*
G01*
X-259035000Y744320000D02*
G75*
G03*
X-257975000Y745380000I0J1060000D01*
G01*
X-281326470Y752891744D02*
G75*
G02*
X-279691689Y754840000I1634781J288256D01*
G01*
X-265593530Y752891744D02*
G75*
G03*
X-267228311Y754840000I-1634781J288256D01*
G01*
X-280427202Y747791744D02*
G75*
G03*
X-278792421Y746420000I1634781J288256D01*
G01*
X-266492798Y747791744D02*
G75*
G02*
X-268127579Y746420000I-1634781J288256D01*
G01*
D14*
X-235404000Y777904000D02*
X-247596000Y777904000D01*
X-235404000Y790096000D02*
X-235404000Y777904000D01*
X-247596000Y777904000D02*
X-247596000Y790096000D01*
X-244040000Y792128000D02*
X-238960000Y792128000D01*
X-236420000Y790604000D02*
X-236420000Y790096000D01*
X-246580000Y790604000D02*
X-236420000Y790604000D01*
X-246580000Y790350000D02*
X-246580000Y790604000D01*
X-246580000Y790096000D02*
X-246580000Y790350000D01*
X-244040000Y791366000D02*
X-238960000Y791366000D01*
X-238960000Y790604000D02*
X-238960000Y792128000D01*
X-244040000Y792128000D02*
X-244040000Y790604000D01*
X-235404000Y790096000D02*
X-236420000Y790096000D01*
X-246580000Y790096000D02*
X-247596000Y790096000D01*
X-237690000Y785524000D02*
X-239722000Y785524000D01*
X-237690000Y789080000D02*
X-237690000Y785524000D01*
X-245310000Y789080000D02*
X-237690000Y789080000D01*
X-245310000Y785524000D02*
X-245310000Y789080000D01*
X-243278000Y785524000D02*
X-245310000Y785524000D01*
D12*
X-231250000Y771750000D02*
X-251500000Y771750000D01*
X-251500000Y771750000D02*
X-251500000Y790540000D01*
X-231500000Y790540000D02*
X-251500000Y790540000D01*
X-231500000Y771750000D02*
X-231500000Y790540000D01*
D14*
X-256404000Y777904000D02*
X-268596000Y777904000D01*
X-256404000Y790096000D02*
X-256404000Y777904000D01*
X-268596000Y777904000D02*
X-268596000Y790096000D01*
X-265040000Y792128000D02*
X-259960000Y792128000D01*
X-257420000Y790604000D02*
X-257420000Y790096000D01*
X-267580000Y790604000D02*
X-257420000Y790604000D01*
X-267580000Y790350000D02*
X-267580000Y790604000D01*
X-267580000Y790096000D02*
X-267580000Y790350000D01*
X-265040000Y791366000D02*
X-259960000Y791366000D01*
X-259960000Y790604000D02*
X-259960000Y792128000D01*
X-265040000Y792128000D02*
X-265040000Y790604000D01*
X-256404000Y790096000D02*
X-257420000Y790096000D01*
X-267580000Y790096000D02*
X-268596000Y790096000D01*
X-258690000Y785524000D02*
X-260722000Y785524000D01*
X-258690000Y789080000D02*
X-258690000Y785524000D01*
X-266310000Y789080000D02*
X-258690000Y789080000D01*
X-266310000Y785524000D02*
X-266310000Y789080000D01*
X-264278000Y785524000D02*
X-266310000Y785524000D01*
D12*
X-252500000Y771750000D02*
X-252500000Y790540000D01*
X-252500000Y790540000D02*
X-272500000Y790540000D01*
X-272500000Y771750000D02*
X-272500000Y790540000D01*
X-252250000Y771750000D02*
X-272500000Y771750000D01*
X-248515000Y745520000D02*
X-248515000Y750720000D01*
X-253655000Y745520000D02*
X-248515000Y745520000D01*
X-256255000Y750720000D02*
X-248515000Y750720000D01*
X-253655000Y745520000D02*
X-253655000Y748120000D01*
X-253655000Y748120000D02*
X-256255000Y748120000D01*
X-256255000Y748120000D02*
X-256255000Y750720000D01*
X-254925000Y745520000D02*
X-256255000Y745520000D01*
X-256255000Y745520000D02*
X-256255000Y746850000D01*
X-216050000Y758800000D02*
X-220550000Y758800000D01*
X-214800000Y754800000D02*
X-214800000Y756300000D01*
X-220550000Y752300000D02*
X-216050000Y752300000D01*
X-221800000Y756300000D02*
X-221800000Y754800000D01*
D14*
X-247147619Y765611904D02*
X-248147619Y765611904D01*
X-248147619Y765850000D01*
X-248100000Y765992857D01*
X-248004761Y766088095D01*
X-247909523Y766135714D01*
X-247719047Y766183333D01*
X-247576190Y766183333D01*
X-247385714Y766135714D01*
X-247290476Y766088095D01*
X-247195238Y765992857D01*
X-247147619Y765850000D01*
X-247147619Y765611904D01*
X-247147619Y767135714D02*
X-247147619Y766564285D01*
X-247147619Y766850000D02*
X-248147619Y766850000D01*
X-248004761Y766754761D01*
X-247909523Y766659523D01*
X-247861904Y766564285D01*
X-245047619Y768818095D02*
X-246047619Y768818095D01*
X-245047619Y769389523D02*
X-245619047Y768960952D01*
X-246047619Y769389523D02*
X-245476190Y768818095D01*
X-208261904Y788747619D02*
X-208261904Y787938095D01*
X-208214285Y787842857D01*
X-208166666Y787795238D01*
X-208071428Y787747619D01*
X-207880952Y787747619D01*
X-207785714Y787795238D01*
X-207738095Y787842857D01*
X-207690476Y787938095D01*
X-207690476Y788747619D01*
X-206738095Y788747619D02*
X-207214285Y788747619D01*
X-207261904Y788271428D01*
X-207214285Y788319047D01*
X-207119047Y788366666D01*
X-206880952Y788366666D01*
X-206785714Y788319047D01*
X-206738095Y788271428D01*
X-206690476Y788176190D01*
X-206690476Y787938095D01*
X-206738095Y787842857D01*
X-206785714Y787795238D01*
X-206880952Y787747619D01*
X-207119047Y787747619D01*
X-207214285Y787795238D01*
X-207261904Y787842857D01*
X-247166666Y753047619D02*
X-247500000Y753523809D01*
X-247738095Y753047619D02*
X-247738095Y754047619D01*
X-247357142Y754047619D01*
X-247261904Y754000000D01*
X-247214285Y753952380D01*
X-247166666Y753857142D01*
X-247166666Y753714285D01*
X-247214285Y753619047D01*
X-247261904Y753571428D01*
X-247357142Y753523809D01*
X-247738095Y753523809D01*
X-246785714Y753952380D02*
X-246738095Y754000000D01*
X-246642857Y754047619D01*
X-246404761Y754047619D01*
X-246309523Y754000000D01*
X-246261904Y753952380D01*
X-246214285Y753857142D01*
X-246214285Y753761904D01*
X-246261904Y753619047D01*
X-246833333Y753047619D01*
X-246214285Y753047619D01*
X-287761904Y768547619D02*
X-287761904Y767738095D01*
X-287714285Y767642857D01*
X-287666666Y767595238D01*
X-287571428Y767547619D01*
X-287380952Y767547619D01*
X-287285714Y767595238D01*
X-287238095Y767642857D01*
X-287190476Y767738095D01*
X-287190476Y768547619D01*
X-286761904Y768452380D02*
X-286714285Y768500000D01*
X-286619047Y768547619D01*
X-286380952Y768547619D01*
X-286285714Y768500000D01*
X-286238095Y768452380D01*
X-286190476Y768357142D01*
X-286190476Y768261904D01*
X-286238095Y768119047D01*
X-286809523Y767547619D01*
X-286190476Y767547619D01*
X-236951904Y765047619D02*
X-236951904Y764238095D01*
X-236904285Y764142857D01*
X-236856666Y764095238D01*
X-236761428Y764047619D01*
X-236570952Y764047619D01*
X-236475714Y764095238D01*
X-236428095Y764142857D01*
X-236380476Y764238095D01*
X-236380476Y765047619D01*
X-235999523Y765047619D02*
X-235380476Y765047619D01*
X-235713809Y764666666D01*
X-235570952Y764666666D01*
X-235475714Y764619047D01*
X-235428095Y764571428D01*
X-235380476Y764476190D01*
X-235380476Y764238095D01*
X-235428095Y764142857D01*
X-235475714Y764095238D01*
X-235570952Y764047619D01*
X-235856666Y764047619D01*
X-235951904Y764095238D01*
X-235999523Y764142857D01*
X-242047619Y766833333D02*
X-242523809Y766500000D01*
X-242047619Y766261904D02*
X-243047619Y766261904D01*
X-243047619Y766642857D01*
X-243000000Y766738095D01*
X-242952380Y766785714D01*
X-242857142Y766833333D01*
X-242714285Y766833333D01*
X-242619047Y766785714D01*
X-242571428Y766738095D01*
X-242523809Y766642857D01*
X-242523809Y766261904D01*
X-243047619Y767166666D02*
X-243047619Y767785714D01*
X-242666666Y767452380D01*
X-242666666Y767595238D01*
X-242619047Y767690476D01*
X-242571428Y767738095D01*
X-242476190Y767785714D01*
X-242238095Y767785714D01*
X-242142857Y767738095D01*
X-242095238Y767690476D01*
X-242047619Y767595238D01*
X-242047619Y767309523D01*
X-242095238Y767214285D01*
X-242142857Y767166666D01*
X-235206666Y757047619D02*
X-235540000Y757523809D01*
X-235778095Y757047619D02*
X-235778095Y758047619D01*
X-235397142Y758047619D01*
X-235301904Y758000000D01*
X-235254285Y757952380D01*
X-235206666Y757857142D01*
X-235206666Y757714285D01*
X-235254285Y757619047D01*
X-235301904Y757571428D01*
X-235397142Y757523809D01*
X-235778095Y757523809D01*
X-234349523Y757714285D02*
X-234349523Y757047619D01*
X-234587619Y758095238D02*
X-234825714Y757380952D01*
X-234206666Y757380952D01*
X-247166666Y756547619D02*
X-247500000Y757023809D01*
X-247738095Y756547619D02*
X-247738095Y757547619D01*
X-247357142Y757547619D01*
X-247261904Y757500000D01*
X-247214285Y757452380D01*
X-247166666Y757357142D01*
X-247166666Y757214285D01*
X-247214285Y757119047D01*
X-247261904Y757071428D01*
X-247357142Y757023809D01*
X-247738095Y757023809D01*
X-246214285Y756547619D02*
X-246785714Y756547619D01*
X-246500000Y756547619D02*
X-246500000Y757547619D01*
X-246595238Y757404761D01*
X-246690476Y757309523D01*
X-246785714Y757261904D01*
X-266761904Y768547619D02*
X-266761904Y767738095D01*
X-266714285Y767642857D01*
X-266666666Y767595238D01*
X-266571428Y767547619D01*
X-266380952Y767547619D01*
X-266285714Y767595238D01*
X-266238095Y767642857D01*
X-266190476Y767738095D01*
X-266190476Y768547619D01*
X-265285714Y768214285D02*
X-265285714Y767547619D01*
X-265523809Y768595238D02*
X-265761904Y767880952D01*
X-265142857Y767880952D01*
X-225861904Y788747619D02*
X-225861904Y787938095D01*
X-225814285Y787842857D01*
X-225766666Y787795238D01*
X-225671428Y787747619D01*
X-225480952Y787747619D01*
X-225385714Y787795238D01*
X-225338095Y787842857D01*
X-225290476Y787938095D01*
X-225290476Y788747619D01*
X-224290476Y787747619D02*
X-224861904Y787747619D01*
X-224576190Y787747619D02*
X-224576190Y788747619D01*
X-224671428Y788604761D01*
X-224766666Y788509523D01*
X-224861904Y788461904D01*
X-224491666Y757917857D02*
X-224539285Y757870238D01*
X-224682142Y757822619D01*
X-224777380Y757822619D01*
X-224920238Y757870238D01*
X-225015476Y757965476D01*
X-225063095Y758060714D01*
X-225110714Y758251190D01*
X-225110714Y758394047D01*
X-225063095Y758584523D01*
X-225015476Y758679761D01*
X-224920238Y758775000D01*
X-224777380Y758822619D01*
X-224682142Y758822619D01*
X-224539285Y758775000D01*
X-224491666Y758727380D01*
X-223539285Y757822619D02*
X-224110714Y757822619D01*
X-223825000Y757822619D02*
X-223825000Y758822619D01*
X-223920238Y758679761D01*
X-224015476Y758584523D01*
X-224110714Y758536904D01*
X-285116666Y758692857D02*
X-285164285Y758645238D01*
X-285307142Y758597619D01*
X-285402380Y758597619D01*
X-285545238Y758645238D01*
X-285640476Y758740476D01*
X-285688095Y758835714D01*
X-285735714Y759026190D01*
X-285735714Y759169047D01*
X-285688095Y759359523D01*
X-285640476Y759454761D01*
X-285545238Y759550000D01*
X-285402380Y759597619D01*
X-285307142Y759597619D01*
X-285164285Y759550000D01*
X-285116666Y759502380D01*
X-284735714Y759502380D02*
X-284688095Y759550000D01*
X-284592857Y759597619D01*
X-284354761Y759597619D01*
X-284259523Y759550000D01*
X-284211904Y759502380D01*
X-284164285Y759407142D01*
X-284164285Y759311904D01*
X-284211904Y759169047D01*
X-284783333Y758597619D01*
X-284164285Y758597619D01*
X-269666666Y758592857D02*
X-269714285Y758545238D01*
X-269857142Y758497619D01*
X-269952380Y758497619D01*
X-270095238Y758545238D01*
X-270190476Y758640476D01*
X-270238095Y758735714D01*
X-270285714Y758926190D01*
X-270285714Y759069047D01*
X-270238095Y759259523D01*
X-270190476Y759354761D01*
X-270095238Y759450000D01*
X-269952380Y759497619D01*
X-269857142Y759497619D01*
X-269714285Y759450000D01*
X-269666666Y759402380D01*
X-269333333Y759497619D02*
X-268714285Y759497619D01*
X-269047619Y759116666D01*
X-268904761Y759116666D01*
X-268809523Y759069047D01*
X-268761904Y759021428D01*
X-268714285Y758926190D01*
X-268714285Y758688095D01*
X-268761904Y758592857D01*
X-268809523Y758545238D01*
X-268904761Y758497619D01*
X-269190476Y758497619D01*
X-269285714Y758545238D01*
X-269333333Y758592857D01*
X-277566666Y758592857D02*
X-277614285Y758545238D01*
X-277757142Y758497619D01*
X-277852380Y758497619D01*
X-277995238Y758545238D01*
X-278090476Y758640476D01*
X-278138095Y758735714D01*
X-278185714Y758926190D01*
X-278185714Y759069047D01*
X-278138095Y759259523D01*
X-278090476Y759354761D01*
X-277995238Y759450000D01*
X-277852380Y759497619D01*
X-277757142Y759497619D01*
X-277614285Y759450000D01*
X-277566666Y759402380D01*
X-276709523Y759164285D02*
X-276709523Y758497619D01*
X-276947619Y759545238D02*
X-277185714Y758830952D01*
X-276566666Y758830952D01*
X-262116666Y758692857D02*
X-262164285Y758645238D01*
X-262307142Y758597619D01*
X-262402380Y758597619D01*
X-262545238Y758645238D01*
X-262640476Y758740476D01*
X-262688095Y758835714D01*
X-262735714Y759026190D01*
X-262735714Y759169047D01*
X-262688095Y759359523D01*
X-262640476Y759454761D01*
X-262545238Y759550000D01*
X-262402380Y759597619D01*
X-262307142Y759597619D01*
X-262164285Y759550000D01*
X-262116666Y759502380D01*
X-261211904Y759597619D02*
X-261688095Y759597619D01*
X-261735714Y759121428D01*
X-261688095Y759169047D01*
X-261592857Y759216666D01*
X-261354761Y759216666D01*
X-261259523Y759169047D01*
X-261211904Y759121428D01*
X-261164285Y759026190D01*
X-261164285Y758788095D01*
X-261211904Y758692857D01*
X-261259523Y758645238D01*
X-261354761Y758597619D01*
X-261592857Y758597619D01*
X-261688095Y758645238D01*
X-261735714Y758692857D01*
X-198963095Y747947619D02*
X-198963095Y748947619D01*
X-198725000Y748947619D01*
X-198582142Y748900000D01*
X-198486904Y748804761D01*
X-198439285Y748709523D01*
X-198391666Y748519047D01*
X-198391666Y748376190D01*
X-198439285Y748185714D01*
X-198486904Y748090476D01*
X-198582142Y747995238D01*
X-198725000Y747947619D01*
X-198963095Y747947619D01*
X-198010714Y748852380D02*
X-197963095Y748900000D01*
X-197867857Y748947619D01*
X-197629761Y748947619D01*
X-197534523Y748900000D01*
X-197486904Y748852380D01*
X-197439285Y748757142D01*
X-197439285Y748661904D01*
X-197486904Y748519047D01*
X-198058333Y747947619D01*
X-197439285Y747947619D01*
X-201336904Y749897619D02*
X-201336904Y750897619D01*
X-200765476Y749897619D02*
X-201194047Y750469047D01*
X-200765476Y750897619D02*
X-201336904Y750326190D01*
X-210217619Y747896666D02*
X-209503333Y747896666D01*
X-209360476Y747849047D01*
X-209265238Y747753809D01*
X-209217619Y747610952D01*
X-209217619Y747515714D01*
X-209217619Y748896666D02*
X-209217619Y748325238D01*
X-209217619Y748610952D02*
X-210217619Y748610952D01*
X-210074761Y748515714D01*
X-209979523Y748420476D01*
X-209931904Y748325238D01*
X-192383333Y786197619D02*
X-192383333Y785483333D01*
X-192430952Y785340476D01*
X-192526190Y785245238D01*
X-192669047Y785197619D01*
X-192764285Y785197619D01*
X-191764285Y785769047D02*
X-191859523Y785816666D01*
X-191907142Y785864285D01*
X-191954761Y785959523D01*
X-191954761Y786007142D01*
X-191907142Y786102380D01*
X-191859523Y786150000D01*
X-191764285Y786197619D01*
X-191573809Y786197619D01*
X-191478571Y786150000D01*
X-191430952Y786102380D01*
X-191383333Y786007142D01*
X-191383333Y785959523D01*
X-191430952Y785864285D01*
X-191478571Y785816666D01*
X-191573809Y785769047D01*
X-191764285Y785769047D01*
X-191859523Y785721428D01*
X-191907142Y785673809D01*
X-191954761Y785578571D01*
X-191954761Y785388095D01*
X-191907142Y785292857D01*
X-191859523Y785245238D01*
X-191764285Y785197619D01*
X-191573809Y785197619D01*
X-191478571Y785245238D01*
X-191430952Y785292857D01*
X-191383333Y785388095D01*
X-191383333Y785578571D01*
X-191430952Y785673809D01*
X-191478571Y785721428D01*
X-191573809Y785769047D01*
X-206991904Y752447619D02*
X-206991904Y751638095D01*
X-206944285Y751542857D01*
X-206896666Y751495238D01*
X-206801428Y751447619D01*
X-206610952Y751447619D01*
X-206515714Y751495238D01*
X-206468095Y751542857D01*
X-206420476Y751638095D01*
X-206420476Y752447619D01*
X-205515714Y752447619D02*
X-205706190Y752447619D01*
X-205801428Y752400000D01*
X-205849047Y752352380D01*
X-205944285Y752209523D01*
X-205991904Y752019047D01*
X-205991904Y751638095D01*
X-205944285Y751542857D01*
X-205896666Y751495238D01*
X-205801428Y751447619D01*
X-205610952Y751447619D01*
X-205515714Y751495238D01*
X-205468095Y751542857D01*
X-205420476Y751638095D01*
X-205420476Y751876190D01*
X-205468095Y751971428D01*
X-205515714Y752019047D01*
X-205610952Y752066666D01*
X-205801428Y752066666D01*
X-205896666Y752019047D01*
X-205944285Y751971428D01*
X-205991904Y751876190D01*
X-286584666Y777326095D02*
X-286584666Y776754666D01*
X-286622761Y776640380D01*
X-286698952Y776564190D01*
X-286813238Y776526095D01*
X-286889428Y776526095D01*
X-286241809Y777249904D02*
X-286203714Y777288000D01*
X-286127523Y777326095D01*
X-285937047Y777326095D01*
X-285860857Y777288000D01*
X-285822761Y777249904D01*
X-285784666Y777173714D01*
X-285784666Y777097523D01*
X-285822761Y776983238D01*
X-286279904Y776526095D01*
X-285784666Y776526095D01*
X-273793333Y758487619D02*
X-273793333Y757773333D01*
X-273840952Y757630476D01*
X-273936190Y757535238D01*
X-274079047Y757487619D01*
X-274174285Y757487619D01*
X-273412380Y758487619D02*
X-272793333Y758487619D01*
X-273126666Y758106666D01*
X-272983809Y758106666D01*
X-272888571Y758059047D01*
X-272840952Y758011428D01*
X-272793333Y757916190D01*
X-272793333Y757678095D01*
X-272840952Y757582857D01*
X-272888571Y757535238D01*
X-272983809Y757487619D01*
X-273269523Y757487619D01*
X-273364761Y757535238D01*
X-273412380Y757582857D01*
X-246084666Y777326095D02*
X-246084666Y776754666D01*
X-246122761Y776640380D01*
X-246198952Y776564190D01*
X-246313238Y776526095D01*
X-246389428Y776526095D01*
X-245360857Y777059428D02*
X-245360857Y776526095D01*
X-245551333Y777364190D02*
X-245741809Y776792761D01*
X-245246571Y776792761D01*
X-249333333Y773797619D02*
X-249333333Y773083333D01*
X-249380952Y772940476D01*
X-249476190Y772845238D01*
X-249619047Y772797619D01*
X-249714285Y772797619D01*
X-248380952Y773797619D02*
X-248857142Y773797619D01*
X-248904761Y773321428D01*
X-248857142Y773369047D01*
X-248761904Y773416666D01*
X-248523809Y773416666D01*
X-248428571Y773369047D01*
X-248380952Y773321428D01*
X-248333333Y773226190D01*
X-248333333Y772988095D01*
X-248380952Y772892857D01*
X-248428571Y772845238D01*
X-248523809Y772797619D01*
X-248761904Y772797619D01*
X-248857142Y772845238D01*
X-248904761Y772892857D01*
X-267084666Y777326095D02*
X-267084666Y776754666D01*
X-267122761Y776640380D01*
X-267198952Y776564190D01*
X-267313238Y776526095D01*
X-267389428Y776526095D01*
X-266360857Y777326095D02*
X-266513238Y777326095D01*
X-266589428Y777288000D01*
X-266627523Y777249904D01*
X-266703714Y777135619D01*
X-266741809Y776983238D01*
X-266741809Y776678476D01*
X-266703714Y776602285D01*
X-266665619Y776564190D01*
X-266589428Y776526095D01*
X-266437047Y776526095D01*
X-266360857Y776564190D01*
X-266322761Y776602285D01*
X-266284666Y776678476D01*
X-266284666Y776868952D01*
X-266322761Y776945142D01*
X-266360857Y776983238D01*
X-266437047Y777021333D01*
X-266589428Y777021333D01*
X-266665619Y776983238D01*
X-266703714Y776945142D01*
X-266741809Y776868952D01*
X-270333333Y773797619D02*
X-270333333Y773083333D01*
X-270380952Y772940476D01*
X-270476190Y772845238D01*
X-270619047Y772797619D01*
X-270714285Y772797619D01*
X-269952380Y773797619D02*
X-269285714Y773797619D01*
X-269714285Y772797619D01*
X-247333333Y751897619D02*
X-247333333Y751183333D01*
X-247380952Y751040476D01*
X-247476190Y750945238D01*
X-247619047Y750897619D01*
X-247714285Y750897619D01*
X-246809523Y750897619D02*
X-246619047Y750897619D01*
X-246523809Y750945238D01*
X-246476190Y750992857D01*
X-246380952Y751135714D01*
X-246333333Y751326190D01*
X-246333333Y751707142D01*
X-246380952Y751802380D01*
X-246428571Y751850000D01*
X-246523809Y751897619D01*
X-246714285Y751897619D01*
X-246809523Y751850000D01*
X-246857142Y751802380D01*
X-246904761Y751707142D01*
X-246904761Y751469047D01*
X-246857142Y751373809D01*
X-246809523Y751326190D01*
X-246714285Y751278571D01*
X-246523809Y751278571D01*
X-246428571Y751326190D01*
X-246380952Y751373809D01*
X-246333333Y751469047D01*
X-219633333Y755220238D02*
X-219490476Y755172619D01*
X-219252380Y755172619D01*
X-219157142Y755220238D01*
X-219109523Y755267857D01*
X-219061904Y755363095D01*
X-219061904Y755458333D01*
X-219109523Y755553571D01*
X-219157142Y755601190D01*
X-219252380Y755648809D01*
X-219442857Y755696428D01*
X-219538095Y755744047D01*
X-219585714Y755791666D01*
X-219633333Y755886904D01*
X-219633333Y755982142D01*
X-219585714Y756077380D01*
X-219538095Y756125000D01*
X-219442857Y756172619D01*
X-219204761Y756172619D01*
X-219061904Y756125000D01*
X-218728571Y756172619D02*
X-218490476Y755172619D01*
X-218300000Y755886904D01*
X-218109523Y755172619D01*
X-217871428Y756172619D01*
X-216966666Y755172619D02*
X-217538095Y755172619D01*
X-217252380Y755172619D02*
X-217252380Y756172619D01*
X-217347619Y756029761D01*
X-217442857Y755934523D01*
X-217538095Y755886904D01*
M02*
