G04 #@! TF.GenerationSoftware,KiCad,Pcbnew,(5.1.4-0-10_14)*
G04 #@! TF.CreationDate,2021-06-29T13:44:29+12:00*
G04 #@! TF.ProjectId,transcribe_circuit,7472616e-7363-4726-9962-655f63697263,rev?*
G04 #@! TF.SameCoordinates,Original*
G04 #@! TF.FileFunction,Soldermask,Bot*
G04 #@! TF.FilePolarity,Negative*
%FSLAX46Y46*%
G04 Gerber Fmt 4.6, Leading zero omitted, Abs format (unit mm)*
G04 Created by KiCad (PCBNEW (5.1.4-0-10_14)) date 2021-06-29 13:44:29*
%MOMM*%
%LPD*%
G04 APERTURE LIST*
%ADD10C,0.100000*%
G04 APERTURE END LIST*
D10*
G36*
X-211889558Y747854482D02*
G01*
X-211823373Y747847963D01*
X-211653534Y747796443D01*
X-211497009Y747712778D01*
X-211461271Y747683448D01*
X-211359814Y747600186D01*
X-211276552Y747498729D01*
X-211247222Y747462991D01*
X-211163557Y747306466D01*
X-211112037Y747136627D01*
X-211094641Y746960000D01*
X-211112037Y746783373D01*
X-211163557Y746613534D01*
X-211247222Y746457009D01*
X-211253385Y746449500D01*
X-211359814Y746319814D01*
X-211438660Y746255108D01*
X-211497009Y746207222D01*
X-211653534Y746123557D01*
X-211823373Y746072037D01*
X-211889557Y746065519D01*
X-211955740Y746059000D01*
X-212044260Y746059000D01*
X-212110443Y746065519D01*
X-212176627Y746072037D01*
X-212346466Y746123557D01*
X-212502991Y746207222D01*
X-212561340Y746255108D01*
X-212640186Y746319814D01*
X-212746615Y746449500D01*
X-212752778Y746457009D01*
X-212836443Y746613534D01*
X-212887963Y746783373D01*
X-212905359Y746960000D01*
X-212887963Y747136627D01*
X-212836443Y747306466D01*
X-212752778Y747462991D01*
X-212723448Y747498729D01*
X-212640186Y747600186D01*
X-212538729Y747683448D01*
X-212502991Y747712778D01*
X-212346466Y747796443D01*
X-212176627Y747847963D01*
X-212110442Y747854482D01*
X-212044260Y747861000D01*
X-211955740Y747861000D01*
X-211889558Y747854482D01*
X-211889558Y747854482D01*
G37*
G36*
X-214429558Y747854482D02*
G01*
X-214363373Y747847963D01*
X-214193534Y747796443D01*
X-214037009Y747712778D01*
X-214001271Y747683448D01*
X-213899814Y747600186D01*
X-213816552Y747498729D01*
X-213787222Y747462991D01*
X-213703557Y747306466D01*
X-213652037Y747136627D01*
X-213634641Y746960000D01*
X-213652037Y746783373D01*
X-213703557Y746613534D01*
X-213787222Y746457009D01*
X-213793385Y746449500D01*
X-213899814Y746319814D01*
X-213978660Y746255108D01*
X-214037009Y746207222D01*
X-214193534Y746123557D01*
X-214363373Y746072037D01*
X-214429557Y746065519D01*
X-214495740Y746059000D01*
X-214584260Y746059000D01*
X-214650443Y746065519D01*
X-214716627Y746072037D01*
X-214886466Y746123557D01*
X-215042991Y746207222D01*
X-215101340Y746255108D01*
X-215180186Y746319814D01*
X-215286615Y746449500D01*
X-215292778Y746457009D01*
X-215376443Y746613534D01*
X-215427963Y746783373D01*
X-215445359Y746960000D01*
X-215427963Y747136627D01*
X-215376443Y747306466D01*
X-215292778Y747462991D01*
X-215263448Y747498729D01*
X-215180186Y747600186D01*
X-215078729Y747683448D01*
X-215042991Y747712778D01*
X-214886466Y747796443D01*
X-214716627Y747847963D01*
X-214650442Y747854482D01*
X-214584260Y747861000D01*
X-214495740Y747861000D01*
X-214429558Y747854482D01*
X-214429558Y747854482D01*
G37*
G36*
X-216969558Y747854482D02*
G01*
X-216903373Y747847963D01*
X-216733534Y747796443D01*
X-216577009Y747712778D01*
X-216541271Y747683448D01*
X-216439814Y747600186D01*
X-216356552Y747498729D01*
X-216327222Y747462991D01*
X-216243557Y747306466D01*
X-216192037Y747136627D01*
X-216174641Y746960000D01*
X-216192037Y746783373D01*
X-216243557Y746613534D01*
X-216327222Y746457009D01*
X-216333385Y746449500D01*
X-216439814Y746319814D01*
X-216518660Y746255108D01*
X-216577009Y746207222D01*
X-216733534Y746123557D01*
X-216903373Y746072037D01*
X-216969557Y746065519D01*
X-217035740Y746059000D01*
X-217124260Y746059000D01*
X-217190443Y746065519D01*
X-217256627Y746072037D01*
X-217426466Y746123557D01*
X-217582991Y746207222D01*
X-217641340Y746255108D01*
X-217720186Y746319814D01*
X-217826615Y746449500D01*
X-217832778Y746457009D01*
X-217916443Y746613534D01*
X-217967963Y746783373D01*
X-217985359Y746960000D01*
X-217967963Y747136627D01*
X-217916443Y747306466D01*
X-217832778Y747462991D01*
X-217803448Y747498729D01*
X-217720186Y747600186D01*
X-217618729Y747683448D01*
X-217582991Y747712778D01*
X-217426466Y747796443D01*
X-217256627Y747847963D01*
X-217190442Y747854482D01*
X-217124260Y747861000D01*
X-217035740Y747861000D01*
X-216969558Y747854482D01*
X-216969558Y747854482D01*
G37*
G36*
X-219509558Y747854482D02*
G01*
X-219443373Y747847963D01*
X-219273534Y747796443D01*
X-219117009Y747712778D01*
X-219081271Y747683448D01*
X-218979814Y747600186D01*
X-218896552Y747498729D01*
X-218867222Y747462991D01*
X-218783557Y747306466D01*
X-218732037Y747136627D01*
X-218714641Y746960000D01*
X-218732037Y746783373D01*
X-218783557Y746613534D01*
X-218867222Y746457009D01*
X-218873385Y746449500D01*
X-218979814Y746319814D01*
X-219058660Y746255108D01*
X-219117009Y746207222D01*
X-219273534Y746123557D01*
X-219443373Y746072037D01*
X-219509557Y746065519D01*
X-219575740Y746059000D01*
X-219664260Y746059000D01*
X-219730443Y746065519D01*
X-219796627Y746072037D01*
X-219966466Y746123557D01*
X-220122991Y746207222D01*
X-220181340Y746255108D01*
X-220260186Y746319814D01*
X-220366615Y746449500D01*
X-220372778Y746457009D01*
X-220456443Y746613534D01*
X-220507963Y746783373D01*
X-220525359Y746960000D01*
X-220507963Y747136627D01*
X-220456443Y747306466D01*
X-220372778Y747462991D01*
X-220343448Y747498729D01*
X-220260186Y747600186D01*
X-220158729Y747683448D01*
X-220122991Y747712778D01*
X-219966466Y747796443D01*
X-219796627Y747847963D01*
X-219730442Y747854482D01*
X-219664260Y747861000D01*
X-219575740Y747861000D01*
X-219509558Y747854482D01*
X-219509558Y747854482D01*
G37*
G36*
X-222049558Y747854482D02*
G01*
X-221983373Y747847963D01*
X-221813534Y747796443D01*
X-221657009Y747712778D01*
X-221621271Y747683448D01*
X-221519814Y747600186D01*
X-221436552Y747498729D01*
X-221407222Y747462991D01*
X-221323557Y747306466D01*
X-221272037Y747136627D01*
X-221254641Y746960000D01*
X-221272037Y746783373D01*
X-221323557Y746613534D01*
X-221407222Y746457009D01*
X-221413385Y746449500D01*
X-221519814Y746319814D01*
X-221598660Y746255108D01*
X-221657009Y746207222D01*
X-221813534Y746123557D01*
X-221983373Y746072037D01*
X-222049557Y746065519D01*
X-222115740Y746059000D01*
X-222204260Y746059000D01*
X-222270443Y746065519D01*
X-222336627Y746072037D01*
X-222506466Y746123557D01*
X-222662991Y746207222D01*
X-222721340Y746255108D01*
X-222800186Y746319814D01*
X-222906615Y746449500D01*
X-222912778Y746457009D01*
X-222996443Y746613534D01*
X-223047963Y746783373D01*
X-223065359Y746960000D01*
X-223047963Y747136627D01*
X-222996443Y747306466D01*
X-222912778Y747462991D01*
X-222883448Y747498729D01*
X-222800186Y747600186D01*
X-222698729Y747683448D01*
X-222662991Y747712778D01*
X-222506466Y747796443D01*
X-222336627Y747847963D01*
X-222270442Y747854482D01*
X-222204260Y747861000D01*
X-222115740Y747861000D01*
X-222049558Y747854482D01*
X-222049558Y747854482D01*
G37*
G36*
X-224589558Y747854482D02*
G01*
X-224523373Y747847963D01*
X-224353534Y747796443D01*
X-224197009Y747712778D01*
X-224161271Y747683448D01*
X-224059814Y747600186D01*
X-223976552Y747498729D01*
X-223947222Y747462991D01*
X-223863557Y747306466D01*
X-223812037Y747136627D01*
X-223794641Y746960000D01*
X-223812037Y746783373D01*
X-223863557Y746613534D01*
X-223947222Y746457009D01*
X-223953385Y746449500D01*
X-224059814Y746319814D01*
X-224138660Y746255108D01*
X-224197009Y746207222D01*
X-224353534Y746123557D01*
X-224523373Y746072037D01*
X-224589557Y746065519D01*
X-224655740Y746059000D01*
X-224744260Y746059000D01*
X-224810443Y746065519D01*
X-224876627Y746072037D01*
X-225046466Y746123557D01*
X-225202991Y746207222D01*
X-225261340Y746255108D01*
X-225340186Y746319814D01*
X-225446615Y746449500D01*
X-225452778Y746457009D01*
X-225536443Y746613534D01*
X-225587963Y746783373D01*
X-225605359Y746960000D01*
X-225587963Y747136627D01*
X-225536443Y747306466D01*
X-225452778Y747462991D01*
X-225423448Y747498729D01*
X-225340186Y747600186D01*
X-225238729Y747683448D01*
X-225202991Y747712778D01*
X-225046466Y747796443D01*
X-224876627Y747847963D01*
X-224810442Y747854482D01*
X-224744260Y747861000D01*
X-224655740Y747861000D01*
X-224589558Y747854482D01*
X-224589558Y747854482D01*
G37*
G36*
X-227129558Y747854482D02*
G01*
X-227063373Y747847963D01*
X-226893534Y747796443D01*
X-226737009Y747712778D01*
X-226701271Y747683448D01*
X-226599814Y747600186D01*
X-226516552Y747498729D01*
X-226487222Y747462991D01*
X-226403557Y747306466D01*
X-226352037Y747136627D01*
X-226334641Y746960000D01*
X-226352037Y746783373D01*
X-226403557Y746613534D01*
X-226487222Y746457009D01*
X-226493385Y746449500D01*
X-226599814Y746319814D01*
X-226678660Y746255108D01*
X-226737009Y746207222D01*
X-226893534Y746123557D01*
X-227063373Y746072037D01*
X-227129557Y746065519D01*
X-227195740Y746059000D01*
X-227284260Y746059000D01*
X-227350443Y746065519D01*
X-227416627Y746072037D01*
X-227586466Y746123557D01*
X-227742991Y746207222D01*
X-227801340Y746255108D01*
X-227880186Y746319814D01*
X-227986615Y746449500D01*
X-227992778Y746457009D01*
X-228076443Y746613534D01*
X-228127963Y746783373D01*
X-228145359Y746960000D01*
X-228127963Y747136627D01*
X-228076443Y747306466D01*
X-227992778Y747462991D01*
X-227963448Y747498729D01*
X-227880186Y747600186D01*
X-227778729Y747683448D01*
X-227742991Y747712778D01*
X-227586466Y747796443D01*
X-227416627Y747847963D01*
X-227350442Y747854482D01*
X-227284260Y747861000D01*
X-227195740Y747861000D01*
X-227129558Y747854482D01*
X-227129558Y747854482D01*
G37*
G36*
X-229669558Y747854482D02*
G01*
X-229603373Y747847963D01*
X-229433534Y747796443D01*
X-229277009Y747712778D01*
X-229241271Y747683448D01*
X-229139814Y747600186D01*
X-229056552Y747498729D01*
X-229027222Y747462991D01*
X-228943557Y747306466D01*
X-228892037Y747136627D01*
X-228874641Y746960000D01*
X-228892037Y746783373D01*
X-228943557Y746613534D01*
X-229027222Y746457009D01*
X-229033385Y746449500D01*
X-229139814Y746319814D01*
X-229218660Y746255108D01*
X-229277009Y746207222D01*
X-229433534Y746123557D01*
X-229603373Y746072037D01*
X-229669557Y746065519D01*
X-229735740Y746059000D01*
X-229824260Y746059000D01*
X-229890443Y746065519D01*
X-229956627Y746072037D01*
X-230126466Y746123557D01*
X-230282991Y746207222D01*
X-230341340Y746255108D01*
X-230420186Y746319814D01*
X-230526615Y746449500D01*
X-230532778Y746457009D01*
X-230616443Y746613534D01*
X-230667963Y746783373D01*
X-230685359Y746960000D01*
X-230667963Y747136627D01*
X-230616443Y747306466D01*
X-230532778Y747462991D01*
X-230503448Y747498729D01*
X-230420186Y747600186D01*
X-230318729Y747683448D01*
X-230282991Y747712778D01*
X-230126466Y747796443D01*
X-229956627Y747847963D01*
X-229890442Y747854482D01*
X-229824260Y747861000D01*
X-229735740Y747861000D01*
X-229669558Y747854482D01*
X-229669558Y747854482D01*
G37*
G36*
X-204550685Y748045834D02*
G01*
X-204506157Y748032326D01*
X-204465108Y748010385D01*
X-204429136Y747980864D01*
X-204399615Y747944892D01*
X-204377674Y747903843D01*
X-204364166Y747859315D01*
X-204359000Y747806860D01*
X-204359000Y746393140D01*
X-204364166Y746340685D01*
X-204377674Y746296157D01*
X-204399615Y746255108D01*
X-204429136Y746219136D01*
X-204465108Y746189615D01*
X-204506157Y746167674D01*
X-204550685Y746154166D01*
X-204603140Y746149000D01*
X-205316860Y746149000D01*
X-205369315Y746154166D01*
X-205413843Y746167674D01*
X-205454892Y746189615D01*
X-205490864Y746219136D01*
X-205520385Y746255108D01*
X-205542326Y746296157D01*
X-205555834Y746340685D01*
X-205561000Y746393140D01*
X-205561000Y747806860D01*
X-205555834Y747859315D01*
X-205542326Y747903843D01*
X-205520385Y747944892D01*
X-205490864Y747980864D01*
X-205454892Y748010385D01*
X-205413843Y748032326D01*
X-205369315Y748045834D01*
X-205316860Y748051000D01*
X-204603140Y748051000D01*
X-204550685Y748045834D01*
X-204550685Y748045834D01*
G37*
G36*
X-206899000Y746149000D02*
G01*
X-208101000Y746149000D01*
X-208101000Y748051000D01*
X-206899000Y748051000D01*
X-206899000Y746149000D01*
X-206899000Y746149000D01*
G37*
G36*
X-268998436Y750220611D02*
G01*
X-268807167Y750141385D01*
X-268807165Y750141384D01*
X-268635027Y750026365D01*
X-268488635Y749879973D01*
X-268448896Y749820500D01*
X-268373615Y749707833D01*
X-268294389Y749516564D01*
X-268254000Y749313516D01*
X-268254000Y749106484D01*
X-268294389Y748903436D01*
X-268359095Y748747222D01*
X-268373616Y748712165D01*
X-268488635Y748540027D01*
X-268635027Y748393635D01*
X-268807165Y748278616D01*
X-268807166Y748278615D01*
X-268807167Y748278615D01*
X-268998436Y748199389D01*
X-269201484Y748159000D01*
X-269408516Y748159000D01*
X-269611564Y748199389D01*
X-269802833Y748278615D01*
X-269802834Y748278615D01*
X-269802835Y748278616D01*
X-269974973Y748393635D01*
X-270121365Y748540027D01*
X-270236384Y748712165D01*
X-270250905Y748747222D01*
X-270315611Y748903436D01*
X-270356000Y749106484D01*
X-270356000Y749313516D01*
X-270315611Y749516564D01*
X-270236385Y749707833D01*
X-270161103Y749820500D01*
X-270121365Y749879973D01*
X-269974973Y750026365D01*
X-269802835Y750141384D01*
X-269802833Y750141385D01*
X-269611564Y750220611D01*
X-269408516Y750261000D01*
X-269201484Y750261000D01*
X-268998436Y750220611D01*
X-268998436Y750220611D01*
G37*
G36*
X-271768436Y750220611D02*
G01*
X-271577167Y750141385D01*
X-271577165Y750141384D01*
X-271405027Y750026365D01*
X-271258635Y749879973D01*
X-271218896Y749820500D01*
X-271143615Y749707833D01*
X-271064389Y749516564D01*
X-271024000Y749313516D01*
X-271024000Y749106484D01*
X-271064389Y748903436D01*
X-271129095Y748747222D01*
X-271143616Y748712165D01*
X-271258635Y748540027D01*
X-271405027Y748393635D01*
X-271577165Y748278616D01*
X-271577166Y748278615D01*
X-271577167Y748278615D01*
X-271768436Y748199389D01*
X-271971484Y748159000D01*
X-272178516Y748159000D01*
X-272381564Y748199389D01*
X-272572833Y748278615D01*
X-272572834Y748278615D01*
X-272572835Y748278616D01*
X-272744973Y748393635D01*
X-272891365Y748540027D01*
X-273006384Y748712165D01*
X-273020905Y748747222D01*
X-273085611Y748903436D01*
X-273126000Y749106484D01*
X-273126000Y749313516D01*
X-273085611Y749516564D01*
X-273006385Y749707833D01*
X-272931103Y749820500D01*
X-272891365Y749879973D01*
X-272744973Y750026365D01*
X-272572835Y750141384D01*
X-272572833Y750141385D01*
X-272381564Y750220611D01*
X-272178516Y750261000D01*
X-271971484Y750261000D01*
X-271768436Y750220611D01*
X-271768436Y750220611D01*
G37*
G36*
X-274538436Y750220611D02*
G01*
X-274347167Y750141385D01*
X-274347165Y750141384D01*
X-274175027Y750026365D01*
X-274028635Y749879973D01*
X-273988896Y749820500D01*
X-273913615Y749707833D01*
X-273834389Y749516564D01*
X-273794000Y749313516D01*
X-273794000Y749106484D01*
X-273834389Y748903436D01*
X-273899095Y748747222D01*
X-273913616Y748712165D01*
X-274028635Y748540027D01*
X-274175027Y748393635D01*
X-274347165Y748278616D01*
X-274347166Y748278615D01*
X-274347167Y748278615D01*
X-274538436Y748199389D01*
X-274741484Y748159000D01*
X-274948516Y748159000D01*
X-275151564Y748199389D01*
X-275342833Y748278615D01*
X-275342834Y748278615D01*
X-275342835Y748278616D01*
X-275514973Y748393635D01*
X-275661365Y748540027D01*
X-275776384Y748712165D01*
X-275790905Y748747222D01*
X-275855611Y748903436D01*
X-275896000Y749106484D01*
X-275896000Y749313516D01*
X-275855611Y749516564D01*
X-275776385Y749707833D01*
X-275701103Y749820500D01*
X-275661365Y749879973D01*
X-275514973Y750026365D01*
X-275342835Y750141384D01*
X-275342833Y750141385D01*
X-275151564Y750220611D01*
X-274948516Y750261000D01*
X-274741484Y750261000D01*
X-274538436Y750220611D01*
X-274538436Y750220611D01*
G37*
G36*
X-277308436Y750220611D02*
G01*
X-277117167Y750141385D01*
X-277117165Y750141384D01*
X-276945027Y750026365D01*
X-276798635Y749879973D01*
X-276758896Y749820500D01*
X-276683615Y749707833D01*
X-276604389Y749516564D01*
X-276564000Y749313516D01*
X-276564000Y749106484D01*
X-276604389Y748903436D01*
X-276669095Y748747222D01*
X-276683616Y748712165D01*
X-276798635Y748540027D01*
X-276945027Y748393635D01*
X-277117165Y748278616D01*
X-277117166Y748278615D01*
X-277117167Y748278615D01*
X-277308436Y748199389D01*
X-277511484Y748159000D01*
X-277718516Y748159000D01*
X-277921564Y748199389D01*
X-278112833Y748278615D01*
X-278112834Y748278615D01*
X-278112835Y748278616D01*
X-278284973Y748393635D01*
X-278431365Y748540027D01*
X-278546384Y748712165D01*
X-278560905Y748747222D01*
X-278625611Y748903436D01*
X-278666000Y749106484D01*
X-278666000Y749313516D01*
X-278625611Y749516564D01*
X-278546385Y749707833D01*
X-278471103Y749820500D01*
X-278431365Y749879973D01*
X-278284973Y750026365D01*
X-278112835Y750141384D01*
X-278112833Y750141385D01*
X-277921564Y750220611D01*
X-277718516Y750261000D01*
X-277511484Y750261000D01*
X-277308436Y750220611D01*
X-277308436Y750220611D01*
G37*
G36*
X-205820685Y750115834D02*
G01*
X-205776157Y750102326D01*
X-205735108Y750080385D01*
X-205699136Y750050864D01*
X-205669615Y750014892D01*
X-205647674Y749973843D01*
X-205634166Y749929315D01*
X-205629000Y749876860D01*
X-205629000Y748463140D01*
X-205634166Y748410685D01*
X-205647674Y748366157D01*
X-205669615Y748325108D01*
X-205699136Y748289136D01*
X-205735108Y748259615D01*
X-205776157Y748237674D01*
X-205820685Y748224166D01*
X-205873140Y748219000D01*
X-206586860Y748219000D01*
X-206639315Y748224166D01*
X-206683847Y748237675D01*
X-206715077Y748254368D01*
X-206729680Y748260417D01*
X-206740744Y748272624D01*
X-206760864Y748289136D01*
X-206790385Y748325108D01*
X-206812326Y748366157D01*
X-206825834Y748410685D01*
X-206831000Y748463140D01*
X-206831000Y749876860D01*
X-206825834Y749929315D01*
X-206812326Y749973843D01*
X-206790385Y750014892D01*
X-206760864Y750050864D01*
X-206724892Y750080385D01*
X-206683843Y750102326D01*
X-206639315Y750115834D01*
X-206586860Y750121000D01*
X-205873140Y750121000D01*
X-205820685Y750115834D01*
X-205820685Y750115834D01*
G37*
G36*
X-260361746Y752602182D02*
G01*
X-259988489Y752447574D01*
X-259988487Y752447573D01*
X-259652564Y752223116D01*
X-259366884Y751937436D01*
X-259237256Y751743435D01*
X-259142426Y751601511D01*
X-258987818Y751228254D01*
X-258909000Y750832007D01*
X-258909000Y750427993D01*
X-258987818Y750031746D01*
X-259075319Y749820500D01*
X-259142427Y749658487D01*
X-259366884Y749322564D01*
X-259652564Y749036884D01*
X-259988487Y748812427D01*
X-259988488Y748812426D01*
X-259988489Y748812426D01*
X-260361746Y748657818D01*
X-260757993Y748579000D01*
X-261162007Y748579000D01*
X-261558254Y748657818D01*
X-261931511Y748812426D01*
X-261931512Y748812426D01*
X-261931513Y748812427D01*
X-262267436Y749036884D01*
X-262553116Y749322564D01*
X-262777573Y749658487D01*
X-262844681Y749820500D01*
X-262932182Y750031746D01*
X-263011000Y750427993D01*
X-263011000Y750832007D01*
X-262932182Y751228254D01*
X-262777574Y751601511D01*
X-262682743Y751743435D01*
X-262553116Y751937436D01*
X-262267436Y752223116D01*
X-261931513Y752447573D01*
X-261931511Y752447574D01*
X-261558254Y752602182D01*
X-261162007Y752681000D01*
X-260757993Y752681000D01*
X-260361746Y752602182D01*
X-260361746Y752602182D01*
G37*
G36*
X-285361746Y752602182D02*
G01*
X-284988489Y752447574D01*
X-284988487Y752447573D01*
X-284652564Y752223116D01*
X-284366884Y751937436D01*
X-284237256Y751743435D01*
X-284142426Y751601511D01*
X-283987818Y751228254D01*
X-283909000Y750832007D01*
X-283909000Y750427993D01*
X-283987818Y750031746D01*
X-284075319Y749820500D01*
X-284142427Y749658487D01*
X-284366884Y749322564D01*
X-284652564Y749036884D01*
X-284988487Y748812427D01*
X-284988488Y748812426D01*
X-284988489Y748812426D01*
X-285361746Y748657818D01*
X-285757993Y748579000D01*
X-286162007Y748579000D01*
X-286558254Y748657818D01*
X-286931511Y748812426D01*
X-286931512Y748812426D01*
X-286931513Y748812427D01*
X-287267436Y749036884D01*
X-287553116Y749322564D01*
X-287777573Y749658487D01*
X-287844681Y749820500D01*
X-287932182Y750031746D01*
X-288011000Y750427993D01*
X-288011000Y750832007D01*
X-287932182Y751228254D01*
X-287777574Y751601511D01*
X-287682743Y751743435D01*
X-287553116Y751937436D01*
X-287267436Y752223116D01*
X-286931513Y752447573D01*
X-286931511Y752447574D01*
X-286558254Y752602182D01*
X-286162007Y752681000D01*
X-285757993Y752681000D01*
X-285361746Y752602182D01*
X-285361746Y752602182D01*
G37*
G36*
X-229669557Y750394481D02*
G01*
X-229603373Y750387963D01*
X-229433534Y750336443D01*
X-229277009Y750252778D01*
X-229241271Y750223448D01*
X-229139814Y750140186D01*
X-229056552Y750038729D01*
X-229027222Y750002991D01*
X-228943557Y749846466D01*
X-228892037Y749676627D01*
X-228874641Y749500000D01*
X-228892037Y749323373D01*
X-228943557Y749153534D01*
X-229027222Y748997009D01*
X-229056552Y748961271D01*
X-229139814Y748859814D01*
X-229241271Y748776552D01*
X-229277009Y748747222D01*
X-229433534Y748663557D01*
X-229603373Y748612037D01*
X-229669557Y748605519D01*
X-229735740Y748599000D01*
X-229824260Y748599000D01*
X-229890443Y748605519D01*
X-229956627Y748612037D01*
X-230126466Y748663557D01*
X-230282991Y748747222D01*
X-230318729Y748776552D01*
X-230420186Y748859814D01*
X-230503448Y748961271D01*
X-230532778Y748997009D01*
X-230616443Y749153534D01*
X-230667963Y749323373D01*
X-230685359Y749500000D01*
X-230667963Y749676627D01*
X-230616443Y749846466D01*
X-230532778Y750002991D01*
X-230503448Y750038729D01*
X-230420186Y750140186D01*
X-230318729Y750223448D01*
X-230282991Y750252778D01*
X-230126466Y750336443D01*
X-229956627Y750387963D01*
X-229890443Y750394481D01*
X-229824260Y750401000D01*
X-229735740Y750401000D01*
X-229669557Y750394481D01*
X-229669557Y750394481D01*
G37*
G36*
X-211099000Y748599000D02*
G01*
X-212901000Y748599000D01*
X-212901000Y750401000D01*
X-211099000Y750401000D01*
X-211099000Y748599000D01*
X-211099000Y748599000D01*
G37*
G36*
X-214429557Y750394481D02*
G01*
X-214363373Y750387963D01*
X-214193534Y750336443D01*
X-214037009Y750252778D01*
X-214001271Y750223448D01*
X-213899814Y750140186D01*
X-213816552Y750038729D01*
X-213787222Y750002991D01*
X-213703557Y749846466D01*
X-213652037Y749676627D01*
X-213634641Y749500000D01*
X-213652037Y749323373D01*
X-213703557Y749153534D01*
X-213787222Y748997009D01*
X-213816552Y748961271D01*
X-213899814Y748859814D01*
X-214001271Y748776552D01*
X-214037009Y748747222D01*
X-214193534Y748663557D01*
X-214363373Y748612037D01*
X-214429557Y748605519D01*
X-214495740Y748599000D01*
X-214584260Y748599000D01*
X-214650443Y748605519D01*
X-214716627Y748612037D01*
X-214886466Y748663557D01*
X-215042991Y748747222D01*
X-215078729Y748776552D01*
X-215180186Y748859814D01*
X-215263448Y748961271D01*
X-215292778Y748997009D01*
X-215376443Y749153534D01*
X-215427963Y749323373D01*
X-215445359Y749500000D01*
X-215427963Y749676627D01*
X-215376443Y749846466D01*
X-215292778Y750002991D01*
X-215263448Y750038729D01*
X-215180186Y750140186D01*
X-215078729Y750223448D01*
X-215042991Y750252778D01*
X-214886466Y750336443D01*
X-214716627Y750387963D01*
X-214650443Y750394481D01*
X-214584260Y750401000D01*
X-214495740Y750401000D01*
X-214429557Y750394481D01*
X-214429557Y750394481D01*
G37*
G36*
X-216969557Y750394481D02*
G01*
X-216903373Y750387963D01*
X-216733534Y750336443D01*
X-216577009Y750252778D01*
X-216541271Y750223448D01*
X-216439814Y750140186D01*
X-216356552Y750038729D01*
X-216327222Y750002991D01*
X-216243557Y749846466D01*
X-216192037Y749676627D01*
X-216174641Y749500000D01*
X-216192037Y749323373D01*
X-216243557Y749153534D01*
X-216327222Y748997009D01*
X-216356552Y748961271D01*
X-216439814Y748859814D01*
X-216541271Y748776552D01*
X-216577009Y748747222D01*
X-216733534Y748663557D01*
X-216903373Y748612037D01*
X-216969557Y748605519D01*
X-217035740Y748599000D01*
X-217124260Y748599000D01*
X-217190443Y748605519D01*
X-217256627Y748612037D01*
X-217426466Y748663557D01*
X-217582991Y748747222D01*
X-217618729Y748776552D01*
X-217720186Y748859814D01*
X-217803448Y748961271D01*
X-217832778Y748997009D01*
X-217916443Y749153534D01*
X-217967963Y749323373D01*
X-217985359Y749500000D01*
X-217967963Y749676627D01*
X-217916443Y749846466D01*
X-217832778Y750002991D01*
X-217803448Y750038729D01*
X-217720186Y750140186D01*
X-217618729Y750223448D01*
X-217582991Y750252778D01*
X-217426466Y750336443D01*
X-217256627Y750387963D01*
X-217190443Y750394481D01*
X-217124260Y750401000D01*
X-217035740Y750401000D01*
X-216969557Y750394481D01*
X-216969557Y750394481D01*
G37*
G36*
X-219509557Y750394481D02*
G01*
X-219443373Y750387963D01*
X-219273534Y750336443D01*
X-219117009Y750252778D01*
X-219081271Y750223448D01*
X-218979814Y750140186D01*
X-218896552Y750038729D01*
X-218867222Y750002991D01*
X-218783557Y749846466D01*
X-218732037Y749676627D01*
X-218714641Y749500000D01*
X-218732037Y749323373D01*
X-218783557Y749153534D01*
X-218867222Y748997009D01*
X-218896552Y748961271D01*
X-218979814Y748859814D01*
X-219081271Y748776552D01*
X-219117009Y748747222D01*
X-219273534Y748663557D01*
X-219443373Y748612037D01*
X-219509557Y748605519D01*
X-219575740Y748599000D01*
X-219664260Y748599000D01*
X-219730443Y748605519D01*
X-219796627Y748612037D01*
X-219966466Y748663557D01*
X-220122991Y748747222D01*
X-220158729Y748776552D01*
X-220260186Y748859814D01*
X-220343448Y748961271D01*
X-220372778Y748997009D01*
X-220456443Y749153534D01*
X-220507963Y749323373D01*
X-220525359Y749500000D01*
X-220507963Y749676627D01*
X-220456443Y749846466D01*
X-220372778Y750002991D01*
X-220343448Y750038729D01*
X-220260186Y750140186D01*
X-220158729Y750223448D01*
X-220122991Y750252778D01*
X-219966466Y750336443D01*
X-219796627Y750387963D01*
X-219730443Y750394481D01*
X-219664260Y750401000D01*
X-219575740Y750401000D01*
X-219509557Y750394481D01*
X-219509557Y750394481D01*
G37*
G36*
X-222049557Y750394481D02*
G01*
X-221983373Y750387963D01*
X-221813534Y750336443D01*
X-221657009Y750252778D01*
X-221621271Y750223448D01*
X-221519814Y750140186D01*
X-221436552Y750038729D01*
X-221407222Y750002991D01*
X-221323557Y749846466D01*
X-221272037Y749676627D01*
X-221254641Y749500000D01*
X-221272037Y749323373D01*
X-221323557Y749153534D01*
X-221407222Y748997009D01*
X-221436552Y748961271D01*
X-221519814Y748859814D01*
X-221621271Y748776552D01*
X-221657009Y748747222D01*
X-221813534Y748663557D01*
X-221983373Y748612037D01*
X-222049557Y748605519D01*
X-222115740Y748599000D01*
X-222204260Y748599000D01*
X-222270443Y748605519D01*
X-222336627Y748612037D01*
X-222506466Y748663557D01*
X-222662991Y748747222D01*
X-222698729Y748776552D01*
X-222800186Y748859814D01*
X-222883448Y748961271D01*
X-222912778Y748997009D01*
X-222996443Y749153534D01*
X-223047963Y749323373D01*
X-223065359Y749500000D01*
X-223047963Y749676627D01*
X-222996443Y749846466D01*
X-222912778Y750002991D01*
X-222883448Y750038729D01*
X-222800186Y750140186D01*
X-222698729Y750223448D01*
X-222662991Y750252778D01*
X-222506466Y750336443D01*
X-222336627Y750387963D01*
X-222270443Y750394481D01*
X-222204260Y750401000D01*
X-222115740Y750401000D01*
X-222049557Y750394481D01*
X-222049557Y750394481D01*
G37*
G36*
X-224589557Y750394481D02*
G01*
X-224523373Y750387963D01*
X-224353534Y750336443D01*
X-224197009Y750252778D01*
X-224161271Y750223448D01*
X-224059814Y750140186D01*
X-223976552Y750038729D01*
X-223947222Y750002991D01*
X-223863557Y749846466D01*
X-223812037Y749676627D01*
X-223794641Y749500000D01*
X-223812037Y749323373D01*
X-223863557Y749153534D01*
X-223947222Y748997009D01*
X-223976552Y748961271D01*
X-224059814Y748859814D01*
X-224161271Y748776552D01*
X-224197009Y748747222D01*
X-224353534Y748663557D01*
X-224523373Y748612037D01*
X-224589557Y748605519D01*
X-224655740Y748599000D01*
X-224744260Y748599000D01*
X-224810443Y748605519D01*
X-224876627Y748612037D01*
X-225046466Y748663557D01*
X-225202991Y748747222D01*
X-225238729Y748776552D01*
X-225340186Y748859814D01*
X-225423448Y748961271D01*
X-225452778Y748997009D01*
X-225536443Y749153534D01*
X-225587963Y749323373D01*
X-225605359Y749500000D01*
X-225587963Y749676627D01*
X-225536443Y749846466D01*
X-225452778Y750002991D01*
X-225423448Y750038729D01*
X-225340186Y750140186D01*
X-225238729Y750223448D01*
X-225202991Y750252778D01*
X-225046466Y750336443D01*
X-224876627Y750387963D01*
X-224810443Y750394481D01*
X-224744260Y750401000D01*
X-224655740Y750401000D01*
X-224589557Y750394481D01*
X-224589557Y750394481D01*
G37*
G36*
X-227129557Y750394481D02*
G01*
X-227063373Y750387963D01*
X-226893534Y750336443D01*
X-226737009Y750252778D01*
X-226701271Y750223448D01*
X-226599814Y750140186D01*
X-226516552Y750038729D01*
X-226487222Y750002991D01*
X-226403557Y749846466D01*
X-226352037Y749676627D01*
X-226334641Y749500000D01*
X-226352037Y749323373D01*
X-226403557Y749153534D01*
X-226487222Y748997009D01*
X-226516552Y748961271D01*
X-226599814Y748859814D01*
X-226701271Y748776552D01*
X-226737009Y748747222D01*
X-226893534Y748663557D01*
X-227063373Y748612037D01*
X-227129557Y748605519D01*
X-227195740Y748599000D01*
X-227284260Y748599000D01*
X-227350443Y748605519D01*
X-227416627Y748612037D01*
X-227586466Y748663557D01*
X-227742991Y748747222D01*
X-227778729Y748776552D01*
X-227880186Y748859814D01*
X-227963448Y748961271D01*
X-227992778Y748997009D01*
X-228076443Y749153534D01*
X-228127963Y749323373D01*
X-228145359Y749500000D01*
X-228127963Y749676627D01*
X-228076443Y749846466D01*
X-227992778Y750002991D01*
X-227963448Y750038729D01*
X-227880186Y750140186D01*
X-227778729Y750223448D01*
X-227742991Y750252778D01*
X-227586466Y750336443D01*
X-227416627Y750387963D01*
X-227350443Y750394481D01*
X-227284260Y750401000D01*
X-227195740Y750401000D01*
X-227129557Y750394481D01*
X-227129557Y750394481D01*
G37*
G36*
X-191429000Y750679000D02*
G01*
X-193131000Y750679000D01*
X-193131000Y752381000D01*
X-191429000Y752381000D01*
X-191429000Y750679000D01*
X-191429000Y750679000D01*
G37*
G36*
X-207271772Y752348297D02*
G01*
X-207116900Y752284147D01*
X-206977519Y752191015D01*
X-206858985Y752072481D01*
X-206765853Y751933100D01*
X-206701703Y751778228D01*
X-206669000Y751613816D01*
X-206669000Y751446184D01*
X-206701703Y751281772D01*
X-206765853Y751126900D01*
X-206858985Y750987519D01*
X-206977519Y750868985D01*
X-207116900Y750775853D01*
X-207271772Y750711703D01*
X-207436184Y750679000D01*
X-207603816Y750679000D01*
X-207768228Y750711703D01*
X-207923100Y750775853D01*
X-208062481Y750868985D01*
X-208181015Y750987519D01*
X-208274147Y751126900D01*
X-208338297Y751281772D01*
X-208371000Y751446184D01*
X-208371000Y751613816D01*
X-208338297Y751778228D01*
X-208274147Y751933100D01*
X-208181015Y752072481D01*
X-208062481Y752191015D01*
X-207923100Y752284147D01*
X-207768228Y752348297D01*
X-207603816Y752381000D01*
X-207436184Y752381000D01*
X-207271772Y752348297D01*
X-207271772Y752348297D01*
G37*
G36*
X-277949000Y750999000D02*
G01*
X-280051000Y750999000D01*
X-280051000Y753101000D01*
X-277949000Y753101000D01*
X-277949000Y750999000D01*
X-277949000Y750999000D01*
G37*
G36*
X-275923436Y753060611D02*
G01*
X-275732167Y752981385D01*
X-275732165Y752981384D01*
X-275696450Y752957520D01*
X-275560027Y752866365D01*
X-275413635Y752719973D01*
X-275298615Y752547833D01*
X-275219389Y752356564D01*
X-275179000Y752153516D01*
X-275179000Y751946484D01*
X-275219389Y751743436D01*
X-275278176Y751601511D01*
X-275298616Y751552165D01*
X-275413635Y751380027D01*
X-275560027Y751233635D01*
X-275732165Y751118616D01*
X-275732166Y751118615D01*
X-275732167Y751118615D01*
X-275923436Y751039389D01*
X-276126484Y750999000D01*
X-276333516Y750999000D01*
X-276536564Y751039389D01*
X-276727833Y751118615D01*
X-276727834Y751118615D01*
X-276727835Y751118616D01*
X-276899973Y751233635D01*
X-277046365Y751380027D01*
X-277161384Y751552165D01*
X-277181824Y751601511D01*
X-277240611Y751743436D01*
X-277281000Y751946484D01*
X-277281000Y752153516D01*
X-277240611Y752356564D01*
X-277161385Y752547833D01*
X-277046365Y752719973D01*
X-276899973Y752866365D01*
X-276763550Y752957520D01*
X-276727835Y752981384D01*
X-276727833Y752981385D01*
X-276536564Y753060611D01*
X-276333516Y753101000D01*
X-276126484Y753101000D01*
X-275923436Y753060611D01*
X-275923436Y753060611D01*
G37*
G36*
X-273153436Y753060611D02*
G01*
X-272962167Y752981385D01*
X-272962165Y752981384D01*
X-272926450Y752957520D01*
X-272790027Y752866365D01*
X-272643635Y752719973D01*
X-272528615Y752547833D01*
X-272449389Y752356564D01*
X-272409000Y752153516D01*
X-272409000Y751946484D01*
X-272449389Y751743436D01*
X-272508176Y751601511D01*
X-272528616Y751552165D01*
X-272643635Y751380027D01*
X-272790027Y751233635D01*
X-272962165Y751118616D01*
X-272962166Y751118615D01*
X-272962167Y751118615D01*
X-273153436Y751039389D01*
X-273356484Y750999000D01*
X-273563516Y750999000D01*
X-273766564Y751039389D01*
X-273957833Y751118615D01*
X-273957834Y751118615D01*
X-273957835Y751118616D01*
X-274129973Y751233635D01*
X-274276365Y751380027D01*
X-274391384Y751552165D01*
X-274411824Y751601511D01*
X-274470611Y751743436D01*
X-274511000Y751946484D01*
X-274511000Y752153516D01*
X-274470611Y752356564D01*
X-274391385Y752547833D01*
X-274276365Y752719973D01*
X-274129973Y752866365D01*
X-273993550Y752957520D01*
X-273957835Y752981384D01*
X-273957833Y752981385D01*
X-273766564Y753060611D01*
X-273563516Y753101000D01*
X-273356484Y753101000D01*
X-273153436Y753060611D01*
X-273153436Y753060611D01*
G37*
G36*
X-270383436Y753060611D02*
G01*
X-270192167Y752981385D01*
X-270192165Y752981384D01*
X-270156450Y752957520D01*
X-270020027Y752866365D01*
X-269873635Y752719973D01*
X-269758615Y752547833D01*
X-269679389Y752356564D01*
X-269639000Y752153516D01*
X-269639000Y751946484D01*
X-269679389Y751743436D01*
X-269738176Y751601511D01*
X-269758616Y751552165D01*
X-269873635Y751380027D01*
X-270020027Y751233635D01*
X-270192165Y751118616D01*
X-270192166Y751118615D01*
X-270192167Y751118615D01*
X-270383436Y751039389D01*
X-270586484Y750999000D01*
X-270793516Y750999000D01*
X-270996564Y751039389D01*
X-271187833Y751118615D01*
X-271187834Y751118615D01*
X-271187835Y751118616D01*
X-271359973Y751233635D01*
X-271506365Y751380027D01*
X-271621384Y751552165D01*
X-271641824Y751601511D01*
X-271700611Y751743436D01*
X-271741000Y751946484D01*
X-271741000Y752153516D01*
X-271700611Y752356564D01*
X-271621385Y752547833D01*
X-271506365Y752719973D01*
X-271359973Y752866365D01*
X-271223550Y752957520D01*
X-271187835Y752981384D01*
X-271187833Y752981385D01*
X-270996564Y753060611D01*
X-270793516Y753101000D01*
X-270586484Y753101000D01*
X-270383436Y753060611D01*
X-270383436Y753060611D01*
G37*
G36*
X-267613436Y753060611D02*
G01*
X-267422167Y752981385D01*
X-267422165Y752981384D01*
X-267386450Y752957520D01*
X-267250027Y752866365D01*
X-267103635Y752719973D01*
X-266988615Y752547833D01*
X-266909389Y752356564D01*
X-266869000Y752153516D01*
X-266869000Y751946484D01*
X-266909389Y751743436D01*
X-266968176Y751601511D01*
X-266988616Y751552165D01*
X-267103635Y751380027D01*
X-267250027Y751233635D01*
X-267422165Y751118616D01*
X-267422166Y751118615D01*
X-267422167Y751118615D01*
X-267613436Y751039389D01*
X-267816484Y750999000D01*
X-268023516Y750999000D01*
X-268226564Y751039389D01*
X-268417833Y751118615D01*
X-268417834Y751118615D01*
X-268417835Y751118616D01*
X-268589973Y751233635D01*
X-268736365Y751380027D01*
X-268851384Y751552165D01*
X-268871824Y751601511D01*
X-268930611Y751743436D01*
X-268971000Y751946484D01*
X-268971000Y752153516D01*
X-268930611Y752356564D01*
X-268851385Y752547833D01*
X-268736365Y752719973D01*
X-268589973Y752866365D01*
X-268453550Y752957520D01*
X-268417835Y752981384D01*
X-268417833Y752981385D01*
X-268226564Y753060611D01*
X-268023516Y753101000D01*
X-267816484Y753101000D01*
X-267613436Y753060611D01*
X-267613436Y753060611D01*
G37*
G36*
X-249751772Y754318297D02*
G01*
X-249596900Y754254147D01*
X-249457519Y754161015D01*
X-249338985Y754042481D01*
X-249245853Y753903100D01*
X-249181703Y753748228D01*
X-249149000Y753583816D01*
X-249149000Y753416184D01*
X-249181703Y753251772D01*
X-249245853Y753096900D01*
X-249338985Y752957519D01*
X-249457519Y752838985D01*
X-249596900Y752745853D01*
X-249751772Y752681703D01*
X-249916184Y752649000D01*
X-250083816Y752649000D01*
X-250248228Y752681703D01*
X-250403100Y752745853D01*
X-250542481Y752838985D01*
X-250661015Y752957519D01*
X-250754147Y753096900D01*
X-250818297Y753251772D01*
X-250851000Y753416184D01*
X-250851000Y753583816D01*
X-250818297Y753748228D01*
X-250754147Y753903100D01*
X-250661015Y754042481D01*
X-250542481Y754161015D01*
X-250403100Y754254147D01*
X-250248228Y754318297D01*
X-250083816Y754351000D01*
X-249916184Y754351000D01*
X-249751772Y754318297D01*
X-249751772Y754318297D01*
G37*
G36*
X-254913177Y754338687D02*
G01*
X-254752758Y754290024D01*
X-254620094Y754219114D01*
X-254604922Y754211004D01*
X-254475341Y754104659D01*
X-254368996Y753975078D01*
X-254368995Y753975076D01*
X-254289976Y753827242D01*
X-254241313Y753666823D01*
X-254224883Y753500000D01*
X-254241313Y753333177D01*
X-254289976Y753172758D01*
X-254360886Y753040094D01*
X-254368996Y753024922D01*
X-254475341Y752895341D01*
X-254604922Y752788996D01*
X-254604924Y752788995D01*
X-254752758Y752709976D01*
X-254913177Y752661313D01*
X-255038196Y752649000D01*
X-255121804Y752649000D01*
X-255246823Y752661313D01*
X-255407242Y752709976D01*
X-255555076Y752788995D01*
X-255555078Y752788996D01*
X-255684659Y752895341D01*
X-255791004Y753024922D01*
X-255799114Y753040094D01*
X-255870024Y753172758D01*
X-255918687Y753333177D01*
X-255935117Y753500000D01*
X-255918687Y753666823D01*
X-255870024Y753827242D01*
X-255791005Y753975076D01*
X-255791004Y753975078D01*
X-255684659Y754104659D01*
X-255555078Y754211004D01*
X-255539906Y754219114D01*
X-255407242Y754290024D01*
X-255246823Y754338687D01*
X-255121804Y754351000D01*
X-255038196Y754351000D01*
X-254913177Y754338687D01*
X-254913177Y754338687D01*
G37*
G36*
X-207271772Y754888297D02*
G01*
X-207116900Y754824147D01*
X-206977519Y754731015D01*
X-206858985Y754612481D01*
X-206765853Y754473100D01*
X-206701703Y754318228D01*
X-206669000Y754153816D01*
X-206669000Y753986184D01*
X-206701703Y753821772D01*
X-206765853Y753666900D01*
X-206858985Y753527519D01*
X-206977519Y753408985D01*
X-207116900Y753315853D01*
X-207271772Y753251703D01*
X-207436184Y753219000D01*
X-207603816Y753219000D01*
X-207768228Y753251703D01*
X-207923100Y753315853D01*
X-208062481Y753408985D01*
X-208181015Y753527519D01*
X-208274147Y753666900D01*
X-208338297Y753821772D01*
X-208371000Y753986184D01*
X-208371000Y754153816D01*
X-208338297Y754318228D01*
X-208274147Y754473100D01*
X-208181015Y754612481D01*
X-208062481Y754731015D01*
X-207923100Y754824147D01*
X-207768228Y754888297D01*
X-207603816Y754921000D01*
X-207436184Y754921000D01*
X-207271772Y754888297D01*
X-207271772Y754888297D01*
G37*
G36*
X-192031772Y754888297D02*
G01*
X-191876900Y754824147D01*
X-191737519Y754731015D01*
X-191618985Y754612481D01*
X-191525853Y754473100D01*
X-191461703Y754318228D01*
X-191429000Y754153816D01*
X-191429000Y753986184D01*
X-191461703Y753821772D01*
X-191525853Y753666900D01*
X-191618985Y753527519D01*
X-191737519Y753408985D01*
X-191876900Y753315853D01*
X-192031772Y753251703D01*
X-192196184Y753219000D01*
X-192363816Y753219000D01*
X-192528228Y753251703D01*
X-192683100Y753315853D01*
X-192822481Y753408985D01*
X-192941015Y753527519D01*
X-193034147Y753666900D01*
X-193098297Y753821772D01*
X-193131000Y753986184D01*
X-193131000Y754153816D01*
X-193098297Y754318228D01*
X-193034147Y754473100D01*
X-192941015Y754612481D01*
X-192822481Y754731015D01*
X-192683100Y754824147D01*
X-192528228Y754888297D01*
X-192363816Y754921000D01*
X-192196184Y754921000D01*
X-192031772Y754888297D01*
X-192031772Y754888297D01*
G37*
G36*
X-224251772Y755818297D02*
G01*
X-224096900Y755754147D01*
X-223957519Y755661015D01*
X-223838985Y755542481D01*
X-223745853Y755403100D01*
X-223681703Y755248228D01*
X-223649000Y755083816D01*
X-223649000Y754916184D01*
X-223681703Y754751772D01*
X-223745853Y754596900D01*
X-223838985Y754457519D01*
X-223957519Y754338985D01*
X-224096900Y754245853D01*
X-224251772Y754181703D01*
X-224416184Y754149000D01*
X-224583816Y754149000D01*
X-224748228Y754181703D01*
X-224903100Y754245853D01*
X-225042481Y754338985D01*
X-225161015Y754457519D01*
X-225254147Y754596900D01*
X-225318297Y754751772D01*
X-225351000Y754916184D01*
X-225351000Y755083816D01*
X-225318297Y755248228D01*
X-225254147Y755403100D01*
X-225161015Y755542481D01*
X-225042481Y755661015D01*
X-224903100Y755754147D01*
X-224748228Y755818297D01*
X-224583816Y755851000D01*
X-224416184Y755851000D01*
X-224251772Y755818297D01*
X-224251772Y755818297D01*
G37*
G36*
X-226149000Y754149000D02*
G01*
X-227851000Y754149000D01*
X-227851000Y755851000D01*
X-226149000Y755851000D01*
X-226149000Y754149000D01*
X-226149000Y754149000D01*
G37*
G36*
X-237413177Y757338687D02*
G01*
X-237252758Y757290024D01*
X-237120094Y757219114D01*
X-237104922Y757211004D01*
X-236975341Y757104659D01*
X-236868996Y756975078D01*
X-236868995Y756975076D01*
X-236789976Y756827242D01*
X-236741313Y756666823D01*
X-236724883Y756500000D01*
X-236741313Y756333177D01*
X-236767803Y756245853D01*
X-236787262Y756181703D01*
X-236789976Y756172758D01*
X-236860886Y756040094D01*
X-236868996Y756024922D01*
X-236975341Y755895341D01*
X-237104922Y755788996D01*
X-237104924Y755788995D01*
X-237252758Y755709976D01*
X-237413177Y755661313D01*
X-237538196Y755649000D01*
X-237621804Y755649000D01*
X-237746823Y755661313D01*
X-237907242Y755709976D01*
X-238055076Y755788995D01*
X-238055078Y755788996D01*
X-238184659Y755895341D01*
X-238291004Y756024922D01*
X-238299114Y756040094D01*
X-238370024Y756172758D01*
X-238372737Y756181703D01*
X-238392197Y756245853D01*
X-238418687Y756333177D01*
X-238435117Y756500000D01*
X-238418687Y756666823D01*
X-238370024Y756827242D01*
X-238291005Y756975076D01*
X-238291004Y756975078D01*
X-238184659Y757104659D01*
X-238055078Y757211004D01*
X-238039906Y757219114D01*
X-237907242Y757290024D01*
X-237746823Y757338687D01*
X-237621804Y757351000D01*
X-237538196Y757351000D01*
X-237413177Y757338687D01*
X-237413177Y757338687D01*
G37*
G36*
X-232251772Y757318297D02*
G01*
X-232096900Y757254147D01*
X-231957519Y757161015D01*
X-231838985Y757042481D01*
X-231745853Y756903100D01*
X-231681703Y756748228D01*
X-231649000Y756583816D01*
X-231649000Y756416184D01*
X-231681703Y756251772D01*
X-231745853Y756096900D01*
X-231838985Y755957519D01*
X-231957519Y755838985D01*
X-232096900Y755745853D01*
X-232251772Y755681703D01*
X-232416184Y755649000D01*
X-232583816Y755649000D01*
X-232748228Y755681703D01*
X-232903100Y755745853D01*
X-233042481Y755838985D01*
X-233161015Y755957519D01*
X-233254147Y756096900D01*
X-233318297Y756251772D01*
X-233351000Y756416184D01*
X-233351000Y756583816D01*
X-233318297Y756748228D01*
X-233254147Y756903100D01*
X-233161015Y757042481D01*
X-233042481Y757161015D01*
X-232903100Y757254147D01*
X-232748228Y757318297D01*
X-232583816Y757351000D01*
X-232416184Y757351000D01*
X-232251772Y757318297D01*
X-232251772Y757318297D01*
G37*
G36*
X-192031772Y757428297D02*
G01*
X-191876900Y757364147D01*
X-191737519Y757271015D01*
X-191618985Y757152481D01*
X-191525853Y757013100D01*
X-191461703Y756858228D01*
X-191429000Y756693816D01*
X-191429000Y756526184D01*
X-191461703Y756361772D01*
X-191525853Y756206900D01*
X-191618985Y756067519D01*
X-191737519Y755948985D01*
X-191876900Y755855853D01*
X-192031772Y755791703D01*
X-192196184Y755759000D01*
X-192363816Y755759000D01*
X-192528228Y755791703D01*
X-192683100Y755855853D01*
X-192822481Y755948985D01*
X-192941015Y756067519D01*
X-193034147Y756206900D01*
X-193098297Y756361772D01*
X-193131000Y756526184D01*
X-193131000Y756693816D01*
X-193098297Y756858228D01*
X-193034147Y757013100D01*
X-192941015Y757152481D01*
X-192822481Y757271015D01*
X-192683100Y757364147D01*
X-192528228Y757428297D01*
X-192363816Y757461000D01*
X-192196184Y757461000D01*
X-192031772Y757428297D01*
X-192031772Y757428297D01*
G37*
G36*
X-207271772Y757428297D02*
G01*
X-207116900Y757364147D01*
X-206977519Y757271015D01*
X-206858985Y757152481D01*
X-206765853Y757013100D01*
X-206701703Y756858228D01*
X-206669000Y756693816D01*
X-206669000Y756526184D01*
X-206701703Y756361772D01*
X-206765853Y756206900D01*
X-206858985Y756067519D01*
X-206977519Y755948985D01*
X-207116900Y755855853D01*
X-207271772Y755791703D01*
X-207436184Y755759000D01*
X-207603816Y755759000D01*
X-207768228Y755791703D01*
X-207923100Y755855853D01*
X-208062481Y755948985D01*
X-208181015Y756067519D01*
X-208274147Y756206900D01*
X-208338297Y756361772D01*
X-208371000Y756526184D01*
X-208371000Y756693816D01*
X-208338297Y756858228D01*
X-208274147Y757013100D01*
X-208181015Y757152481D01*
X-208062481Y757271015D01*
X-207923100Y757364147D01*
X-207768228Y757428297D01*
X-207603816Y757461000D01*
X-207436184Y757461000D01*
X-207271772Y757428297D01*
X-207271772Y757428297D01*
G37*
G36*
X-215316903Y758045931D02*
G01*
X-215213968Y758035793D01*
X-215015854Y757975695D01*
X-215015851Y757975694D01*
X-214919025Y757923939D01*
X-214833271Y757878103D01*
X-214673235Y757746765D01*
X-214541897Y757586729D01*
X-214518246Y757542481D01*
X-214444306Y757404149D01*
X-214444305Y757404146D01*
X-214384207Y757206032D01*
X-214363915Y757000000D01*
X-214384207Y756793968D01*
X-214420976Y756672758D01*
X-214444306Y756595851D01*
X-214482219Y756524922D01*
X-214541897Y756413271D01*
X-214673235Y756253235D01*
X-214833271Y756121897D01*
X-214919025Y756076061D01*
X-215015851Y756024306D01*
X-215015854Y756024305D01*
X-215213968Y755964207D01*
X-215281874Y755957519D01*
X-215368369Y755949000D01*
X-215471631Y755949000D01*
X-215558126Y755957519D01*
X-215626032Y755964207D01*
X-215824146Y756024305D01*
X-215824149Y756024306D01*
X-215920975Y756076061D01*
X-216006729Y756121897D01*
X-216166765Y756253235D01*
X-216298103Y756413271D01*
X-216357781Y756524922D01*
X-216395694Y756595851D01*
X-216419024Y756672758D01*
X-216455793Y756793968D01*
X-216476085Y757000000D01*
X-216455793Y757206032D01*
X-216395695Y757404146D01*
X-216395694Y757404149D01*
X-216321754Y757542481D01*
X-216298103Y757586729D01*
X-216166765Y757746765D01*
X-216006729Y757878103D01*
X-215920975Y757923939D01*
X-215824149Y757975694D01*
X-215824146Y757975695D01*
X-215626032Y758035793D01*
X-215523097Y758045931D01*
X-215471631Y758051000D01*
X-215368369Y758051000D01*
X-215316903Y758045931D01*
X-215316903Y758045931D01*
G37*
G36*
X-219449000Y755949000D02*
G01*
X-221551000Y755949000D01*
X-221551000Y758051000D01*
X-219449000Y758051000D01*
X-219449000Y755949000D01*
X-219449000Y755949000D01*
G37*
G36*
X-254913177Y757838687D02*
G01*
X-254752758Y757790024D01*
X-254620094Y757719114D01*
X-254604922Y757711004D01*
X-254475341Y757604659D01*
X-254368996Y757475078D01*
X-254368995Y757475076D01*
X-254289976Y757327242D01*
X-254289975Y757327239D01*
X-254287262Y757318295D01*
X-254241313Y757166823D01*
X-254224883Y757000000D01*
X-254241313Y756833177D01*
X-254289976Y756672758D01*
X-254330523Y756596900D01*
X-254368996Y756524922D01*
X-254475341Y756395341D01*
X-254604922Y756288996D01*
X-254604924Y756288995D01*
X-254752758Y756209976D01*
X-254913177Y756161313D01*
X-255038196Y756149000D01*
X-255121804Y756149000D01*
X-255246823Y756161313D01*
X-255407242Y756209976D01*
X-255555076Y756288995D01*
X-255555078Y756288996D01*
X-255684659Y756395341D01*
X-255791004Y756524922D01*
X-255829477Y756596900D01*
X-255870024Y756672758D01*
X-255918687Y756833177D01*
X-255935117Y757000000D01*
X-255918687Y757166823D01*
X-255872738Y757318295D01*
X-255870025Y757327239D01*
X-255870024Y757327242D01*
X-255791005Y757475076D01*
X-255791004Y757475078D01*
X-255684659Y757604659D01*
X-255555078Y757711004D01*
X-255539906Y757719114D01*
X-255407242Y757790024D01*
X-255246823Y757838687D01*
X-255121804Y757851000D01*
X-255038196Y757851000D01*
X-254913177Y757838687D01*
X-254913177Y757838687D01*
G37*
G36*
X-249751772Y757818297D02*
G01*
X-249596900Y757754147D01*
X-249457519Y757661015D01*
X-249338985Y757542481D01*
X-249245853Y757403100D01*
X-249181703Y757248228D01*
X-249149000Y757083816D01*
X-249149000Y756916184D01*
X-249181703Y756751772D01*
X-249245853Y756596900D01*
X-249338985Y756457519D01*
X-249457519Y756338985D01*
X-249596900Y756245853D01*
X-249751772Y756181703D01*
X-249916184Y756149000D01*
X-250083816Y756149000D01*
X-250248228Y756181703D01*
X-250403100Y756245853D01*
X-250542481Y756338985D01*
X-250661015Y756457519D01*
X-250754147Y756596900D01*
X-250818297Y756751772D01*
X-250851000Y756916184D01*
X-250851000Y757083816D01*
X-250818297Y757248228D01*
X-250754147Y757403100D01*
X-250661015Y757542481D01*
X-250542481Y757661015D01*
X-250403100Y757754147D01*
X-250248228Y757818297D01*
X-250083816Y757851000D01*
X-249916184Y757851000D01*
X-249751772Y757818297D01*
X-249751772Y757818297D01*
G37*
G36*
X-264251772Y759818297D02*
G01*
X-264096900Y759754147D01*
X-263957519Y759661015D01*
X-263838985Y759542481D01*
X-263745853Y759403100D01*
X-263681703Y759248228D01*
X-263649000Y759083816D01*
X-263649000Y758916184D01*
X-263681703Y758751772D01*
X-263745853Y758596900D01*
X-263838985Y758457519D01*
X-263957519Y758338985D01*
X-264096900Y758245853D01*
X-264251772Y758181703D01*
X-264416184Y758149000D01*
X-264583816Y758149000D01*
X-264748228Y758181703D01*
X-264903100Y758245853D01*
X-265042481Y758338985D01*
X-265161015Y758457519D01*
X-265254147Y758596900D01*
X-265318297Y758751772D01*
X-265351000Y758916184D01*
X-265351000Y759083816D01*
X-265318297Y759248228D01*
X-265254147Y759403100D01*
X-265161015Y759542481D01*
X-265042481Y759661015D01*
X-264903100Y759754147D01*
X-264748228Y759818297D01*
X-264583816Y759851000D01*
X-264416184Y759851000D01*
X-264251772Y759818297D01*
X-264251772Y759818297D01*
G37*
G36*
X-266751772Y759818297D02*
G01*
X-266596900Y759754147D01*
X-266457519Y759661015D01*
X-266338985Y759542481D01*
X-266245853Y759403100D01*
X-266181703Y759248228D01*
X-266149000Y759083816D01*
X-266149000Y758916184D01*
X-266181703Y758751772D01*
X-266245853Y758596900D01*
X-266338985Y758457519D01*
X-266457519Y758338985D01*
X-266596900Y758245853D01*
X-266751772Y758181703D01*
X-266916184Y758149000D01*
X-267083816Y758149000D01*
X-267248228Y758181703D01*
X-267403100Y758245853D01*
X-267542481Y758338985D01*
X-267661015Y758457519D01*
X-267754147Y758596900D01*
X-267818297Y758751772D01*
X-267851000Y758916184D01*
X-267851000Y759083816D01*
X-267818297Y759248228D01*
X-267754147Y759403100D01*
X-267661015Y759542481D01*
X-267542481Y759661015D01*
X-267403100Y759754147D01*
X-267248228Y759818297D01*
X-267083816Y759851000D01*
X-266916184Y759851000D01*
X-266751772Y759818297D01*
X-266751772Y759818297D01*
G37*
G36*
X-271751772Y759818297D02*
G01*
X-271596900Y759754147D01*
X-271457519Y759661015D01*
X-271338985Y759542481D01*
X-271245853Y759403100D01*
X-271181703Y759248228D01*
X-271149000Y759083816D01*
X-271149000Y758916184D01*
X-271181703Y758751772D01*
X-271245853Y758596900D01*
X-271338985Y758457519D01*
X-271457519Y758338985D01*
X-271596900Y758245853D01*
X-271751772Y758181703D01*
X-271916184Y758149000D01*
X-272083816Y758149000D01*
X-272248228Y758181703D01*
X-272403100Y758245853D01*
X-272542481Y758338985D01*
X-272661015Y758457519D01*
X-272754147Y758596900D01*
X-272818297Y758751772D01*
X-272851000Y758916184D01*
X-272851000Y759083816D01*
X-272818297Y759248228D01*
X-272754147Y759403100D01*
X-272661015Y759542481D01*
X-272542481Y759661015D01*
X-272403100Y759754147D01*
X-272248228Y759818297D01*
X-272083816Y759851000D01*
X-271916184Y759851000D01*
X-271751772Y759818297D01*
X-271751772Y759818297D01*
G37*
G36*
X-287251772Y759818297D02*
G01*
X-287096900Y759754147D01*
X-286957519Y759661015D01*
X-286838985Y759542481D01*
X-286745853Y759403100D01*
X-286681703Y759248228D01*
X-286649000Y759083816D01*
X-286649000Y758916184D01*
X-286681703Y758751772D01*
X-286745853Y758596900D01*
X-286838985Y758457519D01*
X-286957519Y758338985D01*
X-287096900Y758245853D01*
X-287251772Y758181703D01*
X-287416184Y758149000D01*
X-287583816Y758149000D01*
X-287748228Y758181703D01*
X-287903100Y758245853D01*
X-288042481Y758338985D01*
X-288161015Y758457519D01*
X-288254147Y758596900D01*
X-288318297Y758751772D01*
X-288351000Y758916184D01*
X-288351000Y759083816D01*
X-288318297Y759248228D01*
X-288254147Y759403100D01*
X-288161015Y759542481D01*
X-288042481Y759661015D01*
X-287903100Y759754147D01*
X-287748228Y759818297D01*
X-287583816Y759851000D01*
X-287416184Y759851000D01*
X-287251772Y759818297D01*
X-287251772Y759818297D01*
G37*
G36*
X-259251772Y759818297D02*
G01*
X-259096900Y759754147D01*
X-258957519Y759661015D01*
X-258838985Y759542481D01*
X-258745853Y759403100D01*
X-258681703Y759248228D01*
X-258649000Y759083816D01*
X-258649000Y758916184D01*
X-258681703Y758751772D01*
X-258745853Y758596900D01*
X-258838985Y758457519D01*
X-258957519Y758338985D01*
X-259096900Y758245853D01*
X-259251772Y758181703D01*
X-259416184Y758149000D01*
X-259583816Y758149000D01*
X-259748228Y758181703D01*
X-259903100Y758245853D01*
X-260042481Y758338985D01*
X-260161015Y758457519D01*
X-260254147Y758596900D01*
X-260318297Y758751772D01*
X-260351000Y758916184D01*
X-260351000Y759083816D01*
X-260318297Y759248228D01*
X-260254147Y759403100D01*
X-260161015Y759542481D01*
X-260042481Y759661015D01*
X-259903100Y759754147D01*
X-259748228Y759818297D01*
X-259583816Y759851000D01*
X-259416184Y759851000D01*
X-259251772Y759818297D01*
X-259251772Y759818297D01*
G37*
G36*
X-282251772Y759818297D02*
G01*
X-282096900Y759754147D01*
X-281957519Y759661015D01*
X-281838985Y759542481D01*
X-281745853Y759403100D01*
X-281681703Y759248228D01*
X-281649000Y759083816D01*
X-281649000Y758916184D01*
X-281681703Y758751772D01*
X-281745853Y758596900D01*
X-281838985Y758457519D01*
X-281957519Y758338985D01*
X-282096900Y758245853D01*
X-282251772Y758181703D01*
X-282416184Y758149000D01*
X-282583816Y758149000D01*
X-282748228Y758181703D01*
X-282903100Y758245853D01*
X-283042481Y758338985D01*
X-283161015Y758457519D01*
X-283254147Y758596900D01*
X-283318297Y758751772D01*
X-283351000Y758916184D01*
X-283351000Y759083816D01*
X-283318297Y759248228D01*
X-283254147Y759403100D01*
X-283161015Y759542481D01*
X-283042481Y759661015D01*
X-282903100Y759754147D01*
X-282748228Y759818297D01*
X-282583816Y759851000D01*
X-282416184Y759851000D01*
X-282251772Y759818297D01*
X-282251772Y759818297D01*
G37*
G36*
X-279751772Y759818297D02*
G01*
X-279596900Y759754147D01*
X-279457519Y759661015D01*
X-279338985Y759542481D01*
X-279245853Y759403100D01*
X-279181703Y759248228D01*
X-279149000Y759083816D01*
X-279149000Y758916184D01*
X-279181703Y758751772D01*
X-279245853Y758596900D01*
X-279338985Y758457519D01*
X-279457519Y758338985D01*
X-279596900Y758245853D01*
X-279751772Y758181703D01*
X-279916184Y758149000D01*
X-280083816Y758149000D01*
X-280248228Y758181703D01*
X-280403100Y758245853D01*
X-280542481Y758338985D01*
X-280661015Y758457519D01*
X-280754147Y758596900D01*
X-280818297Y758751772D01*
X-280851000Y758916184D01*
X-280851000Y759083816D01*
X-280818297Y759248228D01*
X-280754147Y759403100D01*
X-280661015Y759542481D01*
X-280542481Y759661015D01*
X-280403100Y759754147D01*
X-280248228Y759818297D01*
X-280083816Y759851000D01*
X-279916184Y759851000D01*
X-279751772Y759818297D01*
X-279751772Y759818297D01*
G37*
G36*
X-274751772Y759818297D02*
G01*
X-274596900Y759754147D01*
X-274457519Y759661015D01*
X-274338985Y759542481D01*
X-274245853Y759403100D01*
X-274181703Y759248228D01*
X-274149000Y759083816D01*
X-274149000Y758916184D01*
X-274181703Y758751772D01*
X-274245853Y758596900D01*
X-274338985Y758457519D01*
X-274457519Y758338985D01*
X-274596900Y758245853D01*
X-274751772Y758181703D01*
X-274916184Y758149000D01*
X-275083816Y758149000D01*
X-275248228Y758181703D01*
X-275403100Y758245853D01*
X-275542481Y758338985D01*
X-275661015Y758457519D01*
X-275754147Y758596900D01*
X-275818297Y758751772D01*
X-275851000Y758916184D01*
X-275851000Y759083816D01*
X-275818297Y759248228D01*
X-275754147Y759403100D01*
X-275661015Y759542481D01*
X-275542481Y759661015D01*
X-275403100Y759754147D01*
X-275248228Y759818297D01*
X-275083816Y759851000D01*
X-274916184Y759851000D01*
X-274751772Y759818297D01*
X-274751772Y759818297D01*
G37*
G36*
X-207271772Y759968297D02*
G01*
X-207116900Y759904147D01*
X-206977519Y759811015D01*
X-206858985Y759692481D01*
X-206765853Y759553100D01*
X-206701703Y759398228D01*
X-206669000Y759233816D01*
X-206669000Y759066184D01*
X-206701703Y758901772D01*
X-206765853Y758746900D01*
X-206858985Y758607519D01*
X-206977519Y758488985D01*
X-207116900Y758395853D01*
X-207271772Y758331703D01*
X-207436184Y758299000D01*
X-207603816Y758299000D01*
X-207768228Y758331703D01*
X-207923100Y758395853D01*
X-208062481Y758488985D01*
X-208181015Y758607519D01*
X-208274147Y758746900D01*
X-208338297Y758901772D01*
X-208371000Y759066184D01*
X-208371000Y759233816D01*
X-208338297Y759398228D01*
X-208274147Y759553100D01*
X-208181015Y759692481D01*
X-208062481Y759811015D01*
X-207923100Y759904147D01*
X-207768228Y759968297D01*
X-207603816Y760001000D01*
X-207436184Y760001000D01*
X-207271772Y759968297D01*
X-207271772Y759968297D01*
G37*
G36*
X-192031772Y759968297D02*
G01*
X-191876900Y759904147D01*
X-191737519Y759811015D01*
X-191618985Y759692481D01*
X-191525853Y759553100D01*
X-191461703Y759398228D01*
X-191429000Y759233816D01*
X-191429000Y759066184D01*
X-191461703Y758901772D01*
X-191525853Y758746900D01*
X-191618985Y758607519D01*
X-191737519Y758488985D01*
X-191876900Y758395853D01*
X-192031772Y758331703D01*
X-192196184Y758299000D01*
X-192363816Y758299000D01*
X-192528228Y758331703D01*
X-192683100Y758395853D01*
X-192822481Y758488985D01*
X-192941015Y758607519D01*
X-193034147Y758746900D01*
X-193098297Y758901772D01*
X-193131000Y759066184D01*
X-193131000Y759233816D01*
X-193098297Y759398228D01*
X-193034147Y759553100D01*
X-192941015Y759692481D01*
X-192822481Y759811015D01*
X-192683100Y759904147D01*
X-192528228Y759968297D01*
X-192363816Y760001000D01*
X-192196184Y760001000D01*
X-192031772Y759968297D01*
X-192031772Y759968297D01*
G37*
G36*
X-212431772Y761248297D02*
G01*
X-212276900Y761184147D01*
X-212137519Y761091015D01*
X-212018985Y760972481D01*
X-211925853Y760833100D01*
X-211861703Y760678228D01*
X-211829000Y760513816D01*
X-211829000Y760346184D01*
X-211861703Y760181772D01*
X-211925853Y760026900D01*
X-212018985Y759887519D01*
X-212137519Y759768985D01*
X-212276900Y759675853D01*
X-212431772Y759611703D01*
X-212596184Y759579000D01*
X-212763816Y759579000D01*
X-212928228Y759611703D01*
X-213083100Y759675853D01*
X-213222481Y759768985D01*
X-213341015Y759887519D01*
X-213434147Y760026900D01*
X-213498297Y760181772D01*
X-213531000Y760346184D01*
X-213531000Y760513816D01*
X-213498297Y760678228D01*
X-213434147Y760833100D01*
X-213341015Y760972481D01*
X-213222481Y761091015D01*
X-213083100Y761184147D01*
X-212928228Y761248297D01*
X-212763816Y761281000D01*
X-212596184Y761281000D01*
X-212431772Y761248297D01*
X-212431772Y761248297D01*
G37*
G36*
X-227671772Y761248297D02*
G01*
X-227516900Y761184147D01*
X-227377519Y761091015D01*
X-227258985Y760972481D01*
X-227165853Y760833100D01*
X-227101703Y760678228D01*
X-227069000Y760513816D01*
X-227069000Y760346184D01*
X-227101703Y760181772D01*
X-227165853Y760026900D01*
X-227258985Y759887519D01*
X-227377519Y759768985D01*
X-227516900Y759675853D01*
X-227671772Y759611703D01*
X-227836184Y759579000D01*
X-228003816Y759579000D01*
X-228168228Y759611703D01*
X-228323100Y759675853D01*
X-228462481Y759768985D01*
X-228581015Y759887519D01*
X-228674147Y760026900D01*
X-228738297Y760181772D01*
X-228771000Y760346184D01*
X-228771000Y760513816D01*
X-228738297Y760678228D01*
X-228674147Y760833100D01*
X-228581015Y760972481D01*
X-228462481Y761091015D01*
X-228323100Y761184147D01*
X-228168228Y761248297D01*
X-228003816Y761281000D01*
X-227836184Y761281000D01*
X-227671772Y761248297D01*
X-227671772Y761248297D01*
G37*
G36*
X-239833177Y761718687D02*
G01*
X-239672758Y761670024D01*
X-239553324Y761606185D01*
X-239524922Y761591004D01*
X-239395341Y761484659D01*
X-239288996Y761355078D01*
X-239288995Y761355076D01*
X-239209976Y761207242D01*
X-239161313Y761046823D01*
X-239144883Y760880000D01*
X-239161313Y760713177D01*
X-239209976Y760552758D01*
X-239280886Y760420094D01*
X-239288996Y760404922D01*
X-239395341Y760275341D01*
X-239524922Y760168996D01*
X-239524924Y760168995D01*
X-239672758Y760089976D01*
X-239833177Y760041313D01*
X-239958196Y760029000D01*
X-240041804Y760029000D01*
X-240166823Y760041313D01*
X-240327242Y760089976D01*
X-240475076Y760168995D01*
X-240475078Y760168996D01*
X-240604659Y760275341D01*
X-240711004Y760404922D01*
X-240719114Y760420094D01*
X-240790024Y760552758D01*
X-240838687Y760713177D01*
X-240855117Y760880000D01*
X-240838687Y761046823D01*
X-240790024Y761207242D01*
X-240711005Y761355076D01*
X-240711004Y761355078D01*
X-240604659Y761484659D01*
X-240475078Y761591004D01*
X-240446676Y761606185D01*
X-240327242Y761670024D01*
X-240166823Y761718687D01*
X-240041804Y761731000D01*
X-239958196Y761731000D01*
X-239833177Y761718687D01*
X-239833177Y761718687D01*
G37*
G36*
X-232213177Y761718687D02*
G01*
X-232052758Y761670024D01*
X-231933324Y761606185D01*
X-231904922Y761591004D01*
X-231775341Y761484659D01*
X-231668996Y761355078D01*
X-231668995Y761355076D01*
X-231589976Y761207242D01*
X-231541313Y761046823D01*
X-231524883Y760880000D01*
X-231541313Y760713177D01*
X-231589976Y760552758D01*
X-231660886Y760420094D01*
X-231668996Y760404922D01*
X-231775341Y760275341D01*
X-231904922Y760168996D01*
X-231904924Y760168995D01*
X-232052758Y760089976D01*
X-232213177Y760041313D01*
X-232338196Y760029000D01*
X-232421804Y760029000D01*
X-232546823Y760041313D01*
X-232707242Y760089976D01*
X-232855076Y760168995D01*
X-232855078Y760168996D01*
X-232984659Y760275341D01*
X-233091004Y760404922D01*
X-233099114Y760420094D01*
X-233170024Y760552758D01*
X-233218687Y760713177D01*
X-233235117Y760880000D01*
X-233218687Y761046823D01*
X-233170024Y761207242D01*
X-233091005Y761355076D01*
X-233091004Y761355078D01*
X-232984659Y761484659D01*
X-232855078Y761591004D01*
X-232826676Y761606185D01*
X-232707242Y761670024D01*
X-232546823Y761718687D01*
X-232421804Y761731000D01*
X-232338196Y761731000D01*
X-232213177Y761718687D01*
X-232213177Y761718687D01*
G37*
G36*
X-192031772Y762508297D02*
G01*
X-191876900Y762444147D01*
X-191737519Y762351015D01*
X-191618985Y762232481D01*
X-191525853Y762093100D01*
X-191461703Y761938228D01*
X-191429000Y761773816D01*
X-191429000Y761606184D01*
X-191461703Y761441772D01*
X-191525853Y761286900D01*
X-191618985Y761147519D01*
X-191737519Y761028985D01*
X-191876900Y760935853D01*
X-192031772Y760871703D01*
X-192196184Y760839000D01*
X-192363816Y760839000D01*
X-192528228Y760871703D01*
X-192683100Y760935853D01*
X-192822481Y761028985D01*
X-192941015Y761147519D01*
X-193034147Y761286900D01*
X-193098297Y761441772D01*
X-193131000Y761606184D01*
X-193131000Y761773816D01*
X-193098297Y761938228D01*
X-193034147Y762093100D01*
X-192941015Y762232481D01*
X-192822481Y762351015D01*
X-192683100Y762444147D01*
X-192528228Y762508297D01*
X-192363816Y762541000D01*
X-192196184Y762541000D01*
X-192031772Y762508297D01*
X-192031772Y762508297D01*
G37*
G36*
X-207271772Y762508297D02*
G01*
X-207116900Y762444147D01*
X-206977519Y762351015D01*
X-206858985Y762232481D01*
X-206765853Y762093100D01*
X-206701703Y761938228D01*
X-206669000Y761773816D01*
X-206669000Y761606184D01*
X-206701703Y761441772D01*
X-206765853Y761286900D01*
X-206858985Y761147519D01*
X-206977519Y761028985D01*
X-207116900Y760935853D01*
X-207271772Y760871703D01*
X-207436184Y760839000D01*
X-207603816Y760839000D01*
X-207768228Y760871703D01*
X-207923100Y760935853D01*
X-208062481Y761028985D01*
X-208181015Y761147519D01*
X-208274147Y761286900D01*
X-208338297Y761441772D01*
X-208371000Y761606184D01*
X-208371000Y761773816D01*
X-208338297Y761938228D01*
X-208274147Y762093100D01*
X-208181015Y762232481D01*
X-208062481Y762351015D01*
X-207923100Y762444147D01*
X-207768228Y762508297D01*
X-207603816Y762541000D01*
X-207436184Y762541000D01*
X-207271772Y762508297D01*
X-207271772Y762508297D01*
G37*
G36*
X-261253177Y763338687D02*
G01*
X-261092758Y763290024D01*
X-260960094Y763219114D01*
X-260944922Y763211004D01*
X-260815341Y763104659D01*
X-260708996Y762975078D01*
X-260708995Y762975076D01*
X-260629976Y762827242D01*
X-260581313Y762666823D01*
X-260564883Y762500000D01*
X-260581313Y762333177D01*
X-260629976Y762172758D01*
X-260672554Y762093100D01*
X-260708996Y762024922D01*
X-260815341Y761895341D01*
X-260944922Y761788996D01*
X-260944924Y761788995D01*
X-261092758Y761709976D01*
X-261253177Y761661313D01*
X-261378196Y761649000D01*
X-261461804Y761649000D01*
X-261586823Y761661313D01*
X-261747242Y761709976D01*
X-261895076Y761788995D01*
X-261895078Y761788996D01*
X-262024659Y761895341D01*
X-262131004Y762024922D01*
X-262167446Y762093100D01*
X-262210024Y762172758D01*
X-262258687Y762333177D01*
X-262275117Y762500000D01*
X-262258687Y762666823D01*
X-262210024Y762827242D01*
X-262131005Y762975076D01*
X-262131004Y762975078D01*
X-262024659Y763104659D01*
X-261895078Y763211004D01*
X-261879906Y763219114D01*
X-261747242Y763290024D01*
X-261586823Y763338687D01*
X-261461804Y763351000D01*
X-261378196Y763351000D01*
X-261253177Y763338687D01*
X-261253177Y763338687D01*
G37*
G36*
X-265649000Y761649000D02*
G01*
X-267351000Y761649000D01*
X-267351000Y763351000D01*
X-265649000Y763351000D01*
X-265649000Y761649000D01*
X-265649000Y761649000D01*
G37*
G36*
X-270053177Y763338687D02*
G01*
X-269892758Y763290024D01*
X-269760094Y763219114D01*
X-269744922Y763211004D01*
X-269615341Y763104659D01*
X-269508996Y762975078D01*
X-269508995Y762975076D01*
X-269429976Y762827242D01*
X-269381313Y762666823D01*
X-269364883Y762500000D01*
X-269381313Y762333177D01*
X-269429976Y762172758D01*
X-269472554Y762093100D01*
X-269508996Y762024922D01*
X-269615341Y761895341D01*
X-269744922Y761788996D01*
X-269744924Y761788995D01*
X-269892758Y761709976D01*
X-270053177Y761661313D01*
X-270178196Y761649000D01*
X-270261804Y761649000D01*
X-270386823Y761661313D01*
X-270547242Y761709976D01*
X-270695076Y761788995D01*
X-270695078Y761788996D01*
X-270824659Y761895341D01*
X-270931004Y762024922D01*
X-270967446Y762093100D01*
X-271010024Y762172758D01*
X-271058687Y762333177D01*
X-271075117Y762500000D01*
X-271058687Y762666823D01*
X-271010024Y762827242D01*
X-270931005Y762975076D01*
X-270931004Y762975078D01*
X-270824659Y763104659D01*
X-270695078Y763211004D01*
X-270679906Y763219114D01*
X-270547242Y763290024D01*
X-270386823Y763338687D01*
X-270261804Y763351000D01*
X-270178196Y763351000D01*
X-270053177Y763338687D01*
X-270053177Y763338687D01*
G37*
G36*
X-272593177Y763338687D02*
G01*
X-272432758Y763290024D01*
X-272300094Y763219114D01*
X-272284922Y763211004D01*
X-272155341Y763104659D01*
X-272048996Y762975078D01*
X-272048995Y762975076D01*
X-271969976Y762827242D01*
X-271921313Y762666823D01*
X-271904883Y762500000D01*
X-271921313Y762333177D01*
X-271969976Y762172758D01*
X-272012554Y762093100D01*
X-272048996Y762024922D01*
X-272155341Y761895341D01*
X-272284922Y761788996D01*
X-272284924Y761788995D01*
X-272432758Y761709976D01*
X-272593177Y761661313D01*
X-272718196Y761649000D01*
X-272801804Y761649000D01*
X-272926823Y761661313D01*
X-273087242Y761709976D01*
X-273235076Y761788995D01*
X-273235078Y761788996D01*
X-273364659Y761895341D01*
X-273471004Y762024922D01*
X-273507446Y762093100D01*
X-273550024Y762172758D01*
X-273598687Y762333177D01*
X-273615117Y762500000D01*
X-273598687Y762666823D01*
X-273550024Y762827242D01*
X-273471005Y762975076D01*
X-273471004Y762975078D01*
X-273364659Y763104659D01*
X-273235078Y763211004D01*
X-273219906Y763219114D01*
X-273087242Y763290024D01*
X-272926823Y763338687D01*
X-272801804Y763351000D01*
X-272718196Y763351000D01*
X-272593177Y763338687D01*
X-272593177Y763338687D01*
G37*
G36*
X-287149000Y761649000D02*
G01*
X-288851000Y761649000D01*
X-288851000Y763351000D01*
X-287149000Y763351000D01*
X-287149000Y761649000D01*
X-287149000Y761649000D01*
G37*
G36*
X-285293177Y763338687D02*
G01*
X-285132758Y763290024D01*
X-285000094Y763219114D01*
X-284984922Y763211004D01*
X-284855341Y763104659D01*
X-284748996Y762975078D01*
X-284748995Y762975076D01*
X-284669976Y762827242D01*
X-284621313Y762666823D01*
X-284604883Y762500000D01*
X-284621313Y762333177D01*
X-284669976Y762172758D01*
X-284712554Y762093100D01*
X-284748996Y762024922D01*
X-284855341Y761895341D01*
X-284984922Y761788996D01*
X-284984924Y761788995D01*
X-285132758Y761709976D01*
X-285293177Y761661313D01*
X-285418196Y761649000D01*
X-285501804Y761649000D01*
X-285626823Y761661313D01*
X-285787242Y761709976D01*
X-285935076Y761788995D01*
X-285935078Y761788996D01*
X-286064659Y761895341D01*
X-286171004Y762024922D01*
X-286207446Y762093100D01*
X-286250024Y762172758D01*
X-286298687Y762333177D01*
X-286315117Y762500000D01*
X-286298687Y762666823D01*
X-286250024Y762827242D01*
X-286171005Y762975076D01*
X-286171004Y762975078D01*
X-286064659Y763104659D01*
X-285935078Y763211004D01*
X-285919906Y763219114D01*
X-285787242Y763290024D01*
X-285626823Y763338687D01*
X-285501804Y763351000D01*
X-285418196Y763351000D01*
X-285293177Y763338687D01*
X-285293177Y763338687D01*
G37*
G36*
X-282753177Y763338687D02*
G01*
X-282592758Y763290024D01*
X-282460094Y763219114D01*
X-282444922Y763211004D01*
X-282315341Y763104659D01*
X-282208996Y762975078D01*
X-282208995Y762975076D01*
X-282129976Y762827242D01*
X-282081313Y762666823D01*
X-282064883Y762500000D01*
X-282081313Y762333177D01*
X-282129976Y762172758D01*
X-282172554Y762093100D01*
X-282208996Y762024922D01*
X-282315341Y761895341D01*
X-282444922Y761788996D01*
X-282444924Y761788995D01*
X-282592758Y761709976D01*
X-282753177Y761661313D01*
X-282878196Y761649000D01*
X-282961804Y761649000D01*
X-283086823Y761661313D01*
X-283247242Y761709976D01*
X-283395076Y761788995D01*
X-283395078Y761788996D01*
X-283524659Y761895341D01*
X-283631004Y762024922D01*
X-283667446Y762093100D01*
X-283710024Y762172758D01*
X-283758687Y762333177D01*
X-283775117Y762500000D01*
X-283758687Y762666823D01*
X-283710024Y762827242D01*
X-283631005Y762975076D01*
X-283631004Y762975078D01*
X-283524659Y763104659D01*
X-283395078Y763211004D01*
X-283379906Y763219114D01*
X-283247242Y763290024D01*
X-283086823Y763338687D01*
X-282961804Y763351000D01*
X-282878196Y763351000D01*
X-282753177Y763338687D01*
X-282753177Y763338687D01*
G37*
G36*
X-280213177Y763338687D02*
G01*
X-280052758Y763290024D01*
X-279920094Y763219114D01*
X-279904922Y763211004D01*
X-279775341Y763104659D01*
X-279668996Y762975078D01*
X-279668995Y762975076D01*
X-279589976Y762827242D01*
X-279541313Y762666823D01*
X-279524883Y762500000D01*
X-279541313Y762333177D01*
X-279589976Y762172758D01*
X-279632554Y762093100D01*
X-279668996Y762024922D01*
X-279775341Y761895341D01*
X-279904922Y761788996D01*
X-279904924Y761788995D01*
X-280052758Y761709976D01*
X-280213177Y761661313D01*
X-280338196Y761649000D01*
X-280421804Y761649000D01*
X-280546823Y761661313D01*
X-280707242Y761709976D01*
X-280855076Y761788995D01*
X-280855078Y761788996D01*
X-280984659Y761895341D01*
X-281091004Y762024922D01*
X-281127446Y762093100D01*
X-281170024Y762172758D01*
X-281218687Y762333177D01*
X-281235117Y762500000D01*
X-281218687Y762666823D01*
X-281170024Y762827242D01*
X-281091005Y762975076D01*
X-281091004Y762975078D01*
X-280984659Y763104659D01*
X-280855078Y763211004D01*
X-280839906Y763219114D01*
X-280707242Y763290024D01*
X-280546823Y763338687D01*
X-280421804Y763351000D01*
X-280338196Y763351000D01*
X-280213177Y763338687D01*
X-280213177Y763338687D01*
G37*
G36*
X-277673177Y763338687D02*
G01*
X-277512758Y763290024D01*
X-277380094Y763219114D01*
X-277364922Y763211004D01*
X-277235341Y763104659D01*
X-277128996Y762975078D01*
X-277128995Y762975076D01*
X-277049976Y762827242D01*
X-277001313Y762666823D01*
X-276984883Y762500000D01*
X-277001313Y762333177D01*
X-277049976Y762172758D01*
X-277092554Y762093100D01*
X-277128996Y762024922D01*
X-277235341Y761895341D01*
X-277364922Y761788996D01*
X-277364924Y761788995D01*
X-277512758Y761709976D01*
X-277673177Y761661313D01*
X-277798196Y761649000D01*
X-277881804Y761649000D01*
X-278006823Y761661313D01*
X-278167242Y761709976D01*
X-278315076Y761788995D01*
X-278315078Y761788996D01*
X-278444659Y761895341D01*
X-278551004Y762024922D01*
X-278587446Y762093100D01*
X-278630024Y762172758D01*
X-278678687Y762333177D01*
X-278695117Y762500000D01*
X-278678687Y762666823D01*
X-278630024Y762827242D01*
X-278551005Y762975076D01*
X-278551004Y762975078D01*
X-278444659Y763104659D01*
X-278315078Y763211004D01*
X-278299906Y763219114D01*
X-278167242Y763290024D01*
X-278006823Y763338687D01*
X-277881804Y763351000D01*
X-277798196Y763351000D01*
X-277673177Y763338687D01*
X-277673177Y763338687D01*
G37*
G36*
X-275133177Y763338687D02*
G01*
X-274972758Y763290024D01*
X-274840094Y763219114D01*
X-274824922Y763211004D01*
X-274695341Y763104659D01*
X-274588996Y762975078D01*
X-274588995Y762975076D01*
X-274509976Y762827242D01*
X-274461313Y762666823D01*
X-274444883Y762500000D01*
X-274461313Y762333177D01*
X-274509976Y762172758D01*
X-274552554Y762093100D01*
X-274588996Y762024922D01*
X-274695341Y761895341D01*
X-274824922Y761788996D01*
X-274824924Y761788995D01*
X-274972758Y761709976D01*
X-275133177Y761661313D01*
X-275258196Y761649000D01*
X-275341804Y761649000D01*
X-275466823Y761661313D01*
X-275627242Y761709976D01*
X-275775076Y761788995D01*
X-275775078Y761788996D01*
X-275904659Y761895341D01*
X-276011004Y762024922D01*
X-276047446Y762093100D01*
X-276090024Y762172758D01*
X-276138687Y762333177D01*
X-276155117Y762500000D01*
X-276138687Y762666823D01*
X-276090024Y762827242D01*
X-276011005Y762975076D01*
X-276011004Y762975078D01*
X-275904659Y763104659D01*
X-275775078Y763211004D01*
X-275759906Y763219114D01*
X-275627242Y763290024D01*
X-275466823Y763338687D01*
X-275341804Y763351000D01*
X-275258196Y763351000D01*
X-275133177Y763338687D01*
X-275133177Y763338687D01*
G37*
G36*
X-251093177Y763338687D02*
G01*
X-250932758Y763290024D01*
X-250800094Y763219114D01*
X-250784922Y763211004D01*
X-250655341Y763104659D01*
X-250548996Y762975078D01*
X-250548995Y762975076D01*
X-250469976Y762827242D01*
X-250421313Y762666823D01*
X-250404883Y762500000D01*
X-250421313Y762333177D01*
X-250469976Y762172758D01*
X-250512554Y762093100D01*
X-250548996Y762024922D01*
X-250655341Y761895341D01*
X-250784922Y761788996D01*
X-250784924Y761788995D01*
X-250932758Y761709976D01*
X-251093177Y761661313D01*
X-251218196Y761649000D01*
X-251301804Y761649000D01*
X-251426823Y761661313D01*
X-251587242Y761709976D01*
X-251735076Y761788995D01*
X-251735078Y761788996D01*
X-251864659Y761895341D01*
X-251971004Y762024922D01*
X-252007446Y762093100D01*
X-252050024Y762172758D01*
X-252098687Y762333177D01*
X-252115117Y762500000D01*
X-252098687Y762666823D01*
X-252050024Y762827242D01*
X-251971005Y762975076D01*
X-251971004Y762975078D01*
X-251864659Y763104659D01*
X-251735078Y763211004D01*
X-251719906Y763219114D01*
X-251587242Y763290024D01*
X-251426823Y763338687D01*
X-251301804Y763351000D01*
X-251218196Y763351000D01*
X-251093177Y763338687D01*
X-251093177Y763338687D01*
G37*
G36*
X-253633177Y763338687D02*
G01*
X-253472758Y763290024D01*
X-253340094Y763219114D01*
X-253324922Y763211004D01*
X-253195341Y763104659D01*
X-253088996Y762975078D01*
X-253088995Y762975076D01*
X-253009976Y762827242D01*
X-252961313Y762666823D01*
X-252944883Y762500000D01*
X-252961313Y762333177D01*
X-253009976Y762172758D01*
X-253052554Y762093100D01*
X-253088996Y762024922D01*
X-253195341Y761895341D01*
X-253324922Y761788996D01*
X-253324924Y761788995D01*
X-253472758Y761709976D01*
X-253633177Y761661313D01*
X-253758196Y761649000D01*
X-253841804Y761649000D01*
X-253966823Y761661313D01*
X-254127242Y761709976D01*
X-254275076Y761788995D01*
X-254275078Y761788996D01*
X-254404659Y761895341D01*
X-254511004Y762024922D01*
X-254547446Y762093100D01*
X-254590024Y762172758D01*
X-254638687Y762333177D01*
X-254655117Y762500000D01*
X-254638687Y762666823D01*
X-254590024Y762827242D01*
X-254511005Y762975076D01*
X-254511004Y762975078D01*
X-254404659Y763104659D01*
X-254275078Y763211004D01*
X-254259906Y763219114D01*
X-254127242Y763290024D01*
X-253966823Y763338687D01*
X-253841804Y763351000D01*
X-253758196Y763351000D01*
X-253633177Y763338687D01*
X-253633177Y763338687D01*
G37*
G36*
X-256173177Y763338687D02*
G01*
X-256012758Y763290024D01*
X-255880094Y763219114D01*
X-255864922Y763211004D01*
X-255735341Y763104659D01*
X-255628996Y762975078D01*
X-255628995Y762975076D01*
X-255549976Y762827242D01*
X-255501313Y762666823D01*
X-255484883Y762500000D01*
X-255501313Y762333177D01*
X-255549976Y762172758D01*
X-255592554Y762093100D01*
X-255628996Y762024922D01*
X-255735341Y761895341D01*
X-255864922Y761788996D01*
X-255864924Y761788995D01*
X-256012758Y761709976D01*
X-256173177Y761661313D01*
X-256298196Y761649000D01*
X-256381804Y761649000D01*
X-256506823Y761661313D01*
X-256667242Y761709976D01*
X-256815076Y761788995D01*
X-256815078Y761788996D01*
X-256944659Y761895341D01*
X-257051004Y762024922D01*
X-257087446Y762093100D01*
X-257130024Y762172758D01*
X-257178687Y762333177D01*
X-257195117Y762500000D01*
X-257178687Y762666823D01*
X-257130024Y762827242D01*
X-257051005Y762975076D01*
X-257051004Y762975078D01*
X-256944659Y763104659D01*
X-256815078Y763211004D01*
X-256799906Y763219114D01*
X-256667242Y763290024D01*
X-256506823Y763338687D01*
X-256381804Y763351000D01*
X-256298196Y763351000D01*
X-256173177Y763338687D01*
X-256173177Y763338687D01*
G37*
G36*
X-258713177Y763338687D02*
G01*
X-258552758Y763290024D01*
X-258420094Y763219114D01*
X-258404922Y763211004D01*
X-258275341Y763104659D01*
X-258168996Y762975078D01*
X-258168995Y762975076D01*
X-258089976Y762827242D01*
X-258041313Y762666823D01*
X-258024883Y762500000D01*
X-258041313Y762333177D01*
X-258089976Y762172758D01*
X-258132554Y762093100D01*
X-258168996Y762024922D01*
X-258275341Y761895341D01*
X-258404922Y761788996D01*
X-258404924Y761788995D01*
X-258552758Y761709976D01*
X-258713177Y761661313D01*
X-258838196Y761649000D01*
X-258921804Y761649000D01*
X-259046823Y761661313D01*
X-259207242Y761709976D01*
X-259355076Y761788995D01*
X-259355078Y761788996D01*
X-259484659Y761895341D01*
X-259591004Y762024922D01*
X-259627446Y762093100D01*
X-259670024Y762172758D01*
X-259718687Y762333177D01*
X-259735117Y762500000D01*
X-259718687Y762666823D01*
X-259670024Y762827242D01*
X-259591005Y762975076D01*
X-259591004Y762975078D01*
X-259484659Y763104659D01*
X-259355078Y763211004D01*
X-259339906Y763219114D01*
X-259207242Y763290024D01*
X-259046823Y763338687D01*
X-258921804Y763351000D01*
X-258838196Y763351000D01*
X-258713177Y763338687D01*
X-258713177Y763338687D01*
G37*
G36*
X-263793177Y763338687D02*
G01*
X-263632758Y763290024D01*
X-263500094Y763219114D01*
X-263484922Y763211004D01*
X-263355341Y763104659D01*
X-263248996Y762975078D01*
X-263248995Y762975076D01*
X-263169976Y762827242D01*
X-263121313Y762666823D01*
X-263104883Y762500000D01*
X-263121313Y762333177D01*
X-263169976Y762172758D01*
X-263212554Y762093100D01*
X-263248996Y762024922D01*
X-263355341Y761895341D01*
X-263484922Y761788996D01*
X-263484924Y761788995D01*
X-263632758Y761709976D01*
X-263793177Y761661313D01*
X-263918196Y761649000D01*
X-264001804Y761649000D01*
X-264126823Y761661313D01*
X-264287242Y761709976D01*
X-264435076Y761788995D01*
X-264435078Y761788996D01*
X-264564659Y761895341D01*
X-264671004Y762024922D01*
X-264707446Y762093100D01*
X-264750024Y762172758D01*
X-264798687Y762333177D01*
X-264815117Y762500000D01*
X-264798687Y762666823D01*
X-264750024Y762827242D01*
X-264671005Y762975076D01*
X-264671004Y762975078D01*
X-264564659Y763104659D01*
X-264435078Y763211004D01*
X-264419906Y763219114D01*
X-264287242Y763290024D01*
X-264126823Y763338687D01*
X-264001804Y763351000D01*
X-263918196Y763351000D01*
X-263793177Y763338687D01*
X-263793177Y763338687D01*
G37*
G36*
X-212431772Y763788297D02*
G01*
X-212276900Y763724147D01*
X-212137519Y763631015D01*
X-212018985Y763512481D01*
X-211925853Y763373100D01*
X-211861703Y763218228D01*
X-211829000Y763053816D01*
X-211829000Y762886184D01*
X-211861703Y762721772D01*
X-211925853Y762566900D01*
X-212018985Y762427519D01*
X-212137519Y762308985D01*
X-212276900Y762215853D01*
X-212431772Y762151703D01*
X-212596184Y762119000D01*
X-212763816Y762119000D01*
X-212928228Y762151703D01*
X-213083100Y762215853D01*
X-213222481Y762308985D01*
X-213341015Y762427519D01*
X-213434147Y762566900D01*
X-213498297Y762721772D01*
X-213531000Y762886184D01*
X-213531000Y763053816D01*
X-213498297Y763218228D01*
X-213434147Y763373100D01*
X-213341015Y763512481D01*
X-213222481Y763631015D01*
X-213083100Y763724147D01*
X-212928228Y763788297D01*
X-212763816Y763821000D01*
X-212596184Y763821000D01*
X-212431772Y763788297D01*
X-212431772Y763788297D01*
G37*
G36*
X-227671772Y763788297D02*
G01*
X-227516900Y763724147D01*
X-227377519Y763631015D01*
X-227258985Y763512481D01*
X-227165853Y763373100D01*
X-227101703Y763218228D01*
X-227069000Y763053816D01*
X-227069000Y762886184D01*
X-227101703Y762721772D01*
X-227165853Y762566900D01*
X-227258985Y762427519D01*
X-227377519Y762308985D01*
X-227516900Y762215853D01*
X-227671772Y762151703D01*
X-227836184Y762119000D01*
X-228003816Y762119000D01*
X-228168228Y762151703D01*
X-228323100Y762215853D01*
X-228462481Y762308985D01*
X-228581015Y762427519D01*
X-228674147Y762566900D01*
X-228738297Y762721772D01*
X-228771000Y762886184D01*
X-228771000Y763053816D01*
X-228738297Y763218228D01*
X-228674147Y763373100D01*
X-228581015Y763512481D01*
X-228462481Y763631015D01*
X-228323100Y763724147D01*
X-228168228Y763788297D01*
X-228003816Y763821000D01*
X-227836184Y763821000D01*
X-227671772Y763788297D01*
X-227671772Y763788297D01*
G37*
G36*
X-232213177Y764258687D02*
G01*
X-232052758Y764210024D01*
X-231933324Y764146185D01*
X-231904922Y764131004D01*
X-231775341Y764024659D01*
X-231668996Y763895078D01*
X-231668995Y763895076D01*
X-231589976Y763747242D01*
X-231541313Y763586823D01*
X-231524883Y763420000D01*
X-231541313Y763253177D01*
X-231589976Y763092758D01*
X-231626565Y763024305D01*
X-231668996Y762944922D01*
X-231775341Y762815341D01*
X-231904922Y762708996D01*
X-231904924Y762708995D01*
X-232052758Y762629976D01*
X-232213177Y762581313D01*
X-232338196Y762569000D01*
X-232421804Y762569000D01*
X-232546823Y762581313D01*
X-232707242Y762629976D01*
X-232855076Y762708995D01*
X-232855078Y762708996D01*
X-232984659Y762815341D01*
X-233091004Y762944922D01*
X-233133435Y763024305D01*
X-233170024Y763092758D01*
X-233218687Y763253177D01*
X-233235117Y763420000D01*
X-233218687Y763586823D01*
X-233170024Y763747242D01*
X-233091005Y763895076D01*
X-233091004Y763895078D01*
X-232984659Y764024659D01*
X-232855078Y764131004D01*
X-232826676Y764146185D01*
X-232707242Y764210024D01*
X-232546823Y764258687D01*
X-232421804Y764271000D01*
X-232338196Y764271000D01*
X-232213177Y764258687D01*
X-232213177Y764258687D01*
G37*
G36*
X-239833177Y764258687D02*
G01*
X-239672758Y764210024D01*
X-239553324Y764146185D01*
X-239524922Y764131004D01*
X-239395341Y764024659D01*
X-239288996Y763895078D01*
X-239288995Y763895076D01*
X-239209976Y763747242D01*
X-239161313Y763586823D01*
X-239144883Y763420000D01*
X-239161313Y763253177D01*
X-239209976Y763092758D01*
X-239246565Y763024305D01*
X-239288996Y762944922D01*
X-239395341Y762815341D01*
X-239524922Y762708996D01*
X-239524924Y762708995D01*
X-239672758Y762629976D01*
X-239833177Y762581313D01*
X-239958196Y762569000D01*
X-240041804Y762569000D01*
X-240166823Y762581313D01*
X-240327242Y762629976D01*
X-240475076Y762708995D01*
X-240475078Y762708996D01*
X-240604659Y762815341D01*
X-240711004Y762944922D01*
X-240753435Y763024305D01*
X-240790024Y763092758D01*
X-240838687Y763253177D01*
X-240855117Y763420000D01*
X-240838687Y763586823D01*
X-240790024Y763747242D01*
X-240711005Y763895076D01*
X-240711004Y763895078D01*
X-240604659Y764024659D01*
X-240475078Y764131004D01*
X-240446676Y764146185D01*
X-240327242Y764210024D01*
X-240166823Y764258687D01*
X-240041804Y764271000D01*
X-239958196Y764271000D01*
X-239833177Y764258687D01*
X-239833177Y764258687D01*
G37*
G36*
X-247420925Y765048297D02*
G01*
X-247293968Y765035793D01*
X-247095854Y764975695D01*
X-247095851Y764975694D01*
X-246999025Y764923939D01*
X-246913271Y764878103D01*
X-246753235Y764746765D01*
X-246621897Y764586729D01*
X-246598246Y764542481D01*
X-246524306Y764404149D01*
X-246524305Y764404146D01*
X-246464207Y764206032D01*
X-246443915Y764000000D01*
X-246464207Y763793968D01*
X-246513639Y763631015D01*
X-246524306Y763595851D01*
X-246568869Y763512480D01*
X-246621897Y763413271D01*
X-246753235Y763253235D01*
X-246913271Y763121897D01*
X-246967781Y763092761D01*
X-247095851Y763024306D01*
X-247095854Y763024305D01*
X-247293968Y762964207D01*
X-247396903Y762954069D01*
X-247448369Y762949000D01*
X-247551631Y762949000D01*
X-247603097Y762954069D01*
X-247706032Y762964207D01*
X-247904146Y763024305D01*
X-247904149Y763024306D01*
X-248032219Y763092761D01*
X-248086729Y763121897D01*
X-248246765Y763253235D01*
X-248378103Y763413271D01*
X-248431131Y763512480D01*
X-248475694Y763595851D01*
X-248486361Y763631015D01*
X-248535793Y763793968D01*
X-248556085Y764000000D01*
X-248535793Y764206032D01*
X-248475695Y764404146D01*
X-248475694Y764404149D01*
X-248401754Y764542481D01*
X-248378103Y764586729D01*
X-248246765Y764746765D01*
X-248086729Y764878103D01*
X-248000975Y764923939D01*
X-247904149Y764975694D01*
X-247904146Y764975695D01*
X-247706032Y765035793D01*
X-247579075Y765048297D01*
X-247551631Y765051000D01*
X-247448369Y765051000D01*
X-247420925Y765048297D01*
X-247420925Y765048297D01*
G37*
G36*
X-243251772Y764818297D02*
G01*
X-243096900Y764754147D01*
X-242957519Y764661015D01*
X-242838985Y764542481D01*
X-242745853Y764403100D01*
X-242681703Y764248228D01*
X-242649000Y764083816D01*
X-242649000Y763916184D01*
X-242681703Y763751772D01*
X-242745853Y763596900D01*
X-242838985Y763457519D01*
X-242957519Y763338985D01*
X-243096900Y763245853D01*
X-243251772Y763181703D01*
X-243416184Y763149000D01*
X-243583816Y763149000D01*
X-243748228Y763181703D01*
X-243903100Y763245853D01*
X-244042481Y763338985D01*
X-244161015Y763457519D01*
X-244254147Y763596900D01*
X-244318297Y763751772D01*
X-244351000Y763916184D01*
X-244351000Y764083816D01*
X-244318297Y764248228D01*
X-244254147Y764403100D01*
X-244161015Y764542481D01*
X-244042481Y764661015D01*
X-243903100Y764754147D01*
X-243748228Y764818297D01*
X-243583816Y764851000D01*
X-243416184Y764851000D01*
X-243251772Y764818297D01*
X-243251772Y764818297D01*
G37*
G36*
X-207271772Y765048297D02*
G01*
X-207116900Y764984147D01*
X-206977519Y764891015D01*
X-206858985Y764772481D01*
X-206765853Y764633100D01*
X-206701703Y764478228D01*
X-206669000Y764313816D01*
X-206669000Y764146184D01*
X-206701703Y763981772D01*
X-206765853Y763826900D01*
X-206858985Y763687519D01*
X-206977519Y763568985D01*
X-207116900Y763475853D01*
X-207271772Y763411703D01*
X-207436184Y763379000D01*
X-207603816Y763379000D01*
X-207768228Y763411703D01*
X-207923100Y763475853D01*
X-208062481Y763568985D01*
X-208181015Y763687519D01*
X-208274147Y763826900D01*
X-208338297Y763981772D01*
X-208371000Y764146184D01*
X-208371000Y764313816D01*
X-208338297Y764478228D01*
X-208274147Y764633100D01*
X-208181015Y764772481D01*
X-208062481Y764891015D01*
X-207923100Y764984147D01*
X-207768228Y765048297D01*
X-207603816Y765081000D01*
X-207436184Y765081000D01*
X-207271772Y765048297D01*
X-207271772Y765048297D01*
G37*
G36*
X-192031772Y765048297D02*
G01*
X-191876900Y764984147D01*
X-191737519Y764891015D01*
X-191618985Y764772481D01*
X-191525853Y764633100D01*
X-191461703Y764478228D01*
X-191429000Y764313816D01*
X-191429000Y764146184D01*
X-191461703Y763981772D01*
X-191525853Y763826900D01*
X-191618985Y763687519D01*
X-191737519Y763568985D01*
X-191876900Y763475853D01*
X-192031772Y763411703D01*
X-192196184Y763379000D01*
X-192363816Y763379000D01*
X-192528228Y763411703D01*
X-192683100Y763475853D01*
X-192822481Y763568985D01*
X-192941015Y763687519D01*
X-193034147Y763826900D01*
X-193098297Y763981772D01*
X-193131000Y764146184D01*
X-193131000Y764313816D01*
X-193098297Y764478228D01*
X-193034147Y764633100D01*
X-192941015Y764772481D01*
X-192822481Y764891015D01*
X-192683100Y764984147D01*
X-192528228Y765048297D01*
X-192363816Y765081000D01*
X-192196184Y765081000D01*
X-192031772Y765048297D01*
X-192031772Y765048297D01*
G37*
G36*
X-212431772Y766328297D02*
G01*
X-212276900Y766264147D01*
X-212137519Y766171015D01*
X-212018985Y766052481D01*
X-211925853Y765913100D01*
X-211861703Y765758228D01*
X-211829000Y765593816D01*
X-211829000Y765426184D01*
X-211861703Y765261772D01*
X-211925853Y765106900D01*
X-212018985Y764967519D01*
X-212137519Y764848985D01*
X-212276900Y764755853D01*
X-212431772Y764691703D01*
X-212596184Y764659000D01*
X-212763816Y764659000D01*
X-212928228Y764691703D01*
X-213083100Y764755853D01*
X-213222481Y764848985D01*
X-213341015Y764967519D01*
X-213434147Y765106900D01*
X-213498297Y765261772D01*
X-213531000Y765426184D01*
X-213531000Y765593816D01*
X-213498297Y765758228D01*
X-213434147Y765913100D01*
X-213341015Y766052481D01*
X-213222481Y766171015D01*
X-213083100Y766264147D01*
X-212928228Y766328297D01*
X-212763816Y766361000D01*
X-212596184Y766361000D01*
X-212431772Y766328297D01*
X-212431772Y766328297D01*
G37*
G36*
X-227671772Y766328297D02*
G01*
X-227516900Y766264147D01*
X-227377519Y766171015D01*
X-227258985Y766052481D01*
X-227165853Y765913100D01*
X-227101703Y765758228D01*
X-227069000Y765593816D01*
X-227069000Y765426184D01*
X-227101703Y765261772D01*
X-227165853Y765106900D01*
X-227258985Y764967519D01*
X-227377519Y764848985D01*
X-227516900Y764755853D01*
X-227671772Y764691703D01*
X-227836184Y764659000D01*
X-228003816Y764659000D01*
X-228168228Y764691703D01*
X-228323100Y764755853D01*
X-228462481Y764848985D01*
X-228581015Y764967519D01*
X-228674147Y765106900D01*
X-228738297Y765261772D01*
X-228771000Y765426184D01*
X-228771000Y765593816D01*
X-228738297Y765758228D01*
X-228674147Y765913100D01*
X-228581015Y766052481D01*
X-228462481Y766171015D01*
X-228323100Y766264147D01*
X-228168228Y766328297D01*
X-228003816Y766361000D01*
X-227836184Y766361000D01*
X-227671772Y766328297D01*
X-227671772Y766328297D01*
G37*
G36*
X-232213177Y766798687D02*
G01*
X-232052758Y766750024D01*
X-231933324Y766686185D01*
X-231904922Y766671004D01*
X-231775341Y766564659D01*
X-231668996Y766435078D01*
X-231668995Y766435076D01*
X-231589976Y766287242D01*
X-231541313Y766126823D01*
X-231524883Y765960000D01*
X-231541313Y765793177D01*
X-231589976Y765632758D01*
X-231660886Y765500094D01*
X-231668996Y765484922D01*
X-231775341Y765355341D01*
X-231904922Y765248996D01*
X-231904924Y765248995D01*
X-232052758Y765169976D01*
X-232213177Y765121313D01*
X-232338196Y765109000D01*
X-232421804Y765109000D01*
X-232546823Y765121313D01*
X-232707242Y765169976D01*
X-232855076Y765248995D01*
X-232855078Y765248996D01*
X-232984659Y765355341D01*
X-233091004Y765484922D01*
X-233099114Y765500094D01*
X-233170024Y765632758D01*
X-233218687Y765793177D01*
X-233235117Y765960000D01*
X-233218687Y766126823D01*
X-233170024Y766287242D01*
X-233091005Y766435076D01*
X-233091004Y766435078D01*
X-232984659Y766564659D01*
X-232855078Y766671004D01*
X-232826676Y766686185D01*
X-232707242Y766750024D01*
X-232546823Y766798687D01*
X-232421804Y766811000D01*
X-232338196Y766811000D01*
X-232213177Y766798687D01*
X-232213177Y766798687D01*
G37*
G36*
X-239833177Y766798687D02*
G01*
X-239672758Y766750024D01*
X-239553324Y766686185D01*
X-239524922Y766671004D01*
X-239395341Y766564659D01*
X-239288996Y766435078D01*
X-239288995Y766435076D01*
X-239209976Y766287242D01*
X-239161313Y766126823D01*
X-239144883Y765960000D01*
X-239161313Y765793177D01*
X-239209976Y765632758D01*
X-239280886Y765500094D01*
X-239288996Y765484922D01*
X-239395341Y765355341D01*
X-239524922Y765248996D01*
X-239524924Y765248995D01*
X-239672758Y765169976D01*
X-239833177Y765121313D01*
X-239958196Y765109000D01*
X-240041804Y765109000D01*
X-240166823Y765121313D01*
X-240327242Y765169976D01*
X-240475076Y765248995D01*
X-240475078Y765248996D01*
X-240604659Y765355341D01*
X-240711004Y765484922D01*
X-240719114Y765500094D01*
X-240790024Y765632758D01*
X-240838687Y765793177D01*
X-240855117Y765960000D01*
X-240838687Y766126823D01*
X-240790024Y766287242D01*
X-240711005Y766435076D01*
X-240711004Y766435078D01*
X-240604659Y766564659D01*
X-240475078Y766671004D01*
X-240446676Y766686185D01*
X-240327242Y766750024D01*
X-240166823Y766798687D01*
X-240041804Y766811000D01*
X-239958196Y766811000D01*
X-239833177Y766798687D01*
X-239833177Y766798687D01*
G37*
G36*
X-192031772Y767588297D02*
G01*
X-191876900Y767524147D01*
X-191737519Y767431015D01*
X-191618985Y767312481D01*
X-191525853Y767173100D01*
X-191461703Y767018228D01*
X-191429000Y766853816D01*
X-191429000Y766686184D01*
X-191461703Y766521772D01*
X-191525853Y766366900D01*
X-191618985Y766227519D01*
X-191737519Y766108985D01*
X-191876900Y766015853D01*
X-192031772Y765951703D01*
X-192196184Y765919000D01*
X-192363816Y765919000D01*
X-192528228Y765951703D01*
X-192683100Y766015853D01*
X-192822481Y766108985D01*
X-192941015Y766227519D01*
X-193034147Y766366900D01*
X-193098297Y766521772D01*
X-193131000Y766686184D01*
X-193131000Y766853816D01*
X-193098297Y767018228D01*
X-193034147Y767173100D01*
X-192941015Y767312481D01*
X-192822481Y767431015D01*
X-192683100Y767524147D01*
X-192528228Y767588297D01*
X-192363816Y767621000D01*
X-192196184Y767621000D01*
X-192031772Y767588297D01*
X-192031772Y767588297D01*
G37*
G36*
X-207271772Y767588297D02*
G01*
X-207116900Y767524147D01*
X-206977519Y767431015D01*
X-206858985Y767312481D01*
X-206765853Y767173100D01*
X-206701703Y767018228D01*
X-206669000Y766853816D01*
X-206669000Y766686184D01*
X-206701703Y766521772D01*
X-206765853Y766366900D01*
X-206858985Y766227519D01*
X-206977519Y766108985D01*
X-207116900Y766015853D01*
X-207271772Y765951703D01*
X-207436184Y765919000D01*
X-207603816Y765919000D01*
X-207768228Y765951703D01*
X-207923100Y766015853D01*
X-208062481Y766108985D01*
X-208181015Y766227519D01*
X-208274147Y766366900D01*
X-208338297Y766521772D01*
X-208371000Y766686184D01*
X-208371000Y766853816D01*
X-208338297Y767018228D01*
X-208274147Y767173100D01*
X-208181015Y767312481D01*
X-208062481Y767431015D01*
X-207923100Y767524147D01*
X-207768228Y767588297D01*
X-207603816Y767621000D01*
X-207436184Y767621000D01*
X-207271772Y767588297D01*
X-207271772Y767588297D01*
G37*
G36*
X-212431772Y768868297D02*
G01*
X-212276900Y768804147D01*
X-212137519Y768711015D01*
X-212018985Y768592481D01*
X-211925853Y768453100D01*
X-211861703Y768298228D01*
X-211829000Y768133816D01*
X-211829000Y767966184D01*
X-211861703Y767801772D01*
X-211925853Y767646900D01*
X-212018985Y767507519D01*
X-212137519Y767388985D01*
X-212276900Y767295853D01*
X-212431772Y767231703D01*
X-212596184Y767199000D01*
X-212763816Y767199000D01*
X-212928228Y767231703D01*
X-213083100Y767295853D01*
X-213222481Y767388985D01*
X-213341015Y767507519D01*
X-213434147Y767646900D01*
X-213498297Y767801772D01*
X-213531000Y767966184D01*
X-213531000Y768133816D01*
X-213498297Y768298228D01*
X-213434147Y768453100D01*
X-213341015Y768592481D01*
X-213222481Y768711015D01*
X-213083100Y768804147D01*
X-212928228Y768868297D01*
X-212763816Y768901000D01*
X-212596184Y768901000D01*
X-212431772Y768868297D01*
X-212431772Y768868297D01*
G37*
G36*
X-227671772Y768868297D02*
G01*
X-227516900Y768804147D01*
X-227377519Y768711015D01*
X-227258985Y768592481D01*
X-227165853Y768453100D01*
X-227101703Y768298228D01*
X-227069000Y768133816D01*
X-227069000Y767966184D01*
X-227101703Y767801772D01*
X-227165853Y767646900D01*
X-227258985Y767507519D01*
X-227377519Y767388985D01*
X-227516900Y767295853D01*
X-227671772Y767231703D01*
X-227836184Y767199000D01*
X-228003816Y767199000D01*
X-228168228Y767231703D01*
X-228323100Y767295853D01*
X-228462481Y767388985D01*
X-228581015Y767507519D01*
X-228674147Y767646900D01*
X-228738297Y767801772D01*
X-228771000Y767966184D01*
X-228771000Y768133816D01*
X-228738297Y768298228D01*
X-228674147Y768453100D01*
X-228581015Y768592481D01*
X-228462481Y768711015D01*
X-228323100Y768804147D01*
X-228168228Y768868297D01*
X-228003816Y768901000D01*
X-227836184Y768901000D01*
X-227671772Y768868297D01*
X-227671772Y768868297D01*
G37*
G36*
X-232213177Y769338687D02*
G01*
X-232052758Y769290024D01*
X-231971935Y769246823D01*
X-231904922Y769211004D01*
X-231775341Y769104659D01*
X-231668996Y768975078D01*
X-231668995Y768975076D01*
X-231589976Y768827242D01*
X-231541313Y768666823D01*
X-231524883Y768500000D01*
X-231541313Y768333177D01*
X-231589976Y768172758D01*
X-231660886Y768040094D01*
X-231668996Y768024922D01*
X-231775341Y767895341D01*
X-231904922Y767788996D01*
X-231904924Y767788995D01*
X-232052758Y767709976D01*
X-232213177Y767661313D01*
X-232338196Y767649000D01*
X-232421804Y767649000D01*
X-232546823Y767661313D01*
X-232707242Y767709976D01*
X-232855076Y767788995D01*
X-232855078Y767788996D01*
X-232984659Y767895341D01*
X-233091004Y768024922D01*
X-233099114Y768040094D01*
X-233170024Y768172758D01*
X-233218687Y768333177D01*
X-233235117Y768500000D01*
X-233218687Y768666823D01*
X-233170024Y768827242D01*
X-233091005Y768975076D01*
X-233091004Y768975078D01*
X-232984659Y769104659D01*
X-232855078Y769211004D01*
X-232788065Y769246823D01*
X-232707242Y769290024D01*
X-232546823Y769338687D01*
X-232421804Y769351000D01*
X-232338196Y769351000D01*
X-232213177Y769338687D01*
X-232213177Y769338687D01*
G37*
G36*
X-239149000Y767649000D02*
G01*
X-240851000Y767649000D01*
X-240851000Y769351000D01*
X-239149000Y769351000D01*
X-239149000Y767649000D01*
X-239149000Y767649000D01*
G37*
G36*
X-246449000Y768029000D02*
G01*
X-248551000Y768029000D01*
X-248551000Y770131000D01*
X-246449000Y770131000D01*
X-246449000Y768029000D01*
X-246449000Y768029000D01*
G37*
G36*
X-243333177Y769918687D02*
G01*
X-243172758Y769870024D01*
X-243139936Y769852480D01*
X-243024922Y769791004D01*
X-242895341Y769684659D01*
X-242788996Y769555078D01*
X-242788995Y769555076D01*
X-242709976Y769407242D01*
X-242661313Y769246823D01*
X-242644883Y769080000D01*
X-242661313Y768913177D01*
X-242709976Y768752758D01*
X-242755908Y768666825D01*
X-242788996Y768604922D01*
X-242895341Y768475341D01*
X-243024922Y768368996D01*
X-243024924Y768368995D01*
X-243172758Y768289976D01*
X-243333177Y768241313D01*
X-243458196Y768229000D01*
X-243541804Y768229000D01*
X-243666823Y768241313D01*
X-243827242Y768289976D01*
X-243975076Y768368995D01*
X-243975078Y768368996D01*
X-244104659Y768475341D01*
X-244211004Y768604922D01*
X-244244092Y768666825D01*
X-244290024Y768752758D01*
X-244338687Y768913177D01*
X-244355117Y769080000D01*
X-244338687Y769246823D01*
X-244290024Y769407242D01*
X-244211005Y769555076D01*
X-244211004Y769555078D01*
X-244104659Y769684659D01*
X-243975078Y769791004D01*
X-243860064Y769852480D01*
X-243827242Y769870024D01*
X-243666823Y769918687D01*
X-243541804Y769931000D01*
X-243458196Y769931000D01*
X-243333177Y769918687D01*
X-243333177Y769918687D01*
G37*
G36*
X-192031772Y770128297D02*
G01*
X-191876900Y770064147D01*
X-191737519Y769971015D01*
X-191618985Y769852481D01*
X-191525853Y769713100D01*
X-191461703Y769558228D01*
X-191429000Y769393816D01*
X-191429000Y769226184D01*
X-191461703Y769061772D01*
X-191525853Y768906900D01*
X-191618985Y768767519D01*
X-191737519Y768648985D01*
X-191876900Y768555853D01*
X-192031772Y768491703D01*
X-192196184Y768459000D01*
X-192363816Y768459000D01*
X-192528228Y768491703D01*
X-192683100Y768555853D01*
X-192822481Y768648985D01*
X-192941015Y768767519D01*
X-193034147Y768906900D01*
X-193098297Y769061772D01*
X-193131000Y769226184D01*
X-193131000Y769393816D01*
X-193098297Y769558228D01*
X-193034147Y769713100D01*
X-192941015Y769852481D01*
X-192822481Y769971015D01*
X-192683100Y770064147D01*
X-192528228Y770128297D01*
X-192363816Y770161000D01*
X-192196184Y770161000D01*
X-192031772Y770128297D01*
X-192031772Y770128297D01*
G37*
G36*
X-207271772Y770128297D02*
G01*
X-207116900Y770064147D01*
X-206977519Y769971015D01*
X-206858985Y769852481D01*
X-206765853Y769713100D01*
X-206701703Y769558228D01*
X-206669000Y769393816D01*
X-206669000Y769226184D01*
X-206701703Y769061772D01*
X-206765853Y768906900D01*
X-206858985Y768767519D01*
X-206977519Y768648985D01*
X-207116900Y768555853D01*
X-207271772Y768491703D01*
X-207436184Y768459000D01*
X-207603816Y768459000D01*
X-207768228Y768491703D01*
X-207923100Y768555853D01*
X-208062481Y768648985D01*
X-208181015Y768767519D01*
X-208274147Y768906900D01*
X-208338297Y769061772D01*
X-208371000Y769226184D01*
X-208371000Y769393816D01*
X-208338297Y769558228D01*
X-208274147Y769713100D01*
X-208181015Y769852481D01*
X-208062481Y769971015D01*
X-207923100Y770064147D01*
X-207768228Y770128297D01*
X-207603816Y770161000D01*
X-207436184Y770161000D01*
X-207271772Y770128297D01*
X-207271772Y770128297D01*
G37*
G36*
X-263793177Y770958687D02*
G01*
X-263632758Y770910024D01*
X-263500094Y770839114D01*
X-263484922Y770831004D01*
X-263355341Y770724659D01*
X-263248996Y770595078D01*
X-263248995Y770595076D01*
X-263169976Y770447242D01*
X-263121313Y770286823D01*
X-263104883Y770120000D01*
X-263121313Y769953177D01*
X-263169976Y769792758D01*
X-263212554Y769713100D01*
X-263248996Y769644922D01*
X-263355341Y769515341D01*
X-263484922Y769408996D01*
X-263484924Y769408995D01*
X-263632758Y769329976D01*
X-263793177Y769281313D01*
X-263918196Y769269000D01*
X-264001804Y769269000D01*
X-264126823Y769281313D01*
X-264287242Y769329976D01*
X-264435076Y769408995D01*
X-264435078Y769408996D01*
X-264564659Y769515341D01*
X-264671004Y769644922D01*
X-264707446Y769713100D01*
X-264750024Y769792758D01*
X-264798687Y769953177D01*
X-264815117Y770120000D01*
X-264798687Y770286823D01*
X-264750024Y770447242D01*
X-264671005Y770595076D01*
X-264671004Y770595078D01*
X-264564659Y770724659D01*
X-264435078Y770831004D01*
X-264419906Y770839114D01*
X-264287242Y770910024D01*
X-264126823Y770958687D01*
X-264001804Y770971000D01*
X-263918196Y770971000D01*
X-263793177Y770958687D01*
X-263793177Y770958687D01*
G37*
G36*
X-282753177Y770958687D02*
G01*
X-282592758Y770910024D01*
X-282460094Y770839114D01*
X-282444922Y770831004D01*
X-282315341Y770724659D01*
X-282208996Y770595078D01*
X-282208995Y770595076D01*
X-282129976Y770447242D01*
X-282081313Y770286823D01*
X-282064883Y770120000D01*
X-282081313Y769953177D01*
X-282129976Y769792758D01*
X-282172554Y769713100D01*
X-282208996Y769644922D01*
X-282315341Y769515341D01*
X-282444922Y769408996D01*
X-282444924Y769408995D01*
X-282592758Y769329976D01*
X-282753177Y769281313D01*
X-282878196Y769269000D01*
X-282961804Y769269000D01*
X-283086823Y769281313D01*
X-283247242Y769329976D01*
X-283395076Y769408995D01*
X-283395078Y769408996D01*
X-283524659Y769515341D01*
X-283631004Y769644922D01*
X-283667446Y769713100D01*
X-283710024Y769792758D01*
X-283758687Y769953177D01*
X-283775117Y770120000D01*
X-283758687Y770286823D01*
X-283710024Y770447242D01*
X-283631005Y770595076D01*
X-283631004Y770595078D01*
X-283524659Y770724659D01*
X-283395078Y770831004D01*
X-283379906Y770839114D01*
X-283247242Y770910024D01*
X-283086823Y770958687D01*
X-282961804Y770971000D01*
X-282878196Y770971000D01*
X-282753177Y770958687D01*
X-282753177Y770958687D01*
G37*
G36*
X-251093177Y770958687D02*
G01*
X-250932758Y770910024D01*
X-250800094Y770839114D01*
X-250784922Y770831004D01*
X-250655341Y770724659D01*
X-250548996Y770595078D01*
X-250548995Y770595076D01*
X-250469976Y770447242D01*
X-250421313Y770286823D01*
X-250404883Y770120000D01*
X-250421313Y769953177D01*
X-250469976Y769792758D01*
X-250512554Y769713100D01*
X-250548996Y769644922D01*
X-250655341Y769515341D01*
X-250784922Y769408996D01*
X-250784924Y769408995D01*
X-250932758Y769329976D01*
X-251093177Y769281313D01*
X-251218196Y769269000D01*
X-251301804Y769269000D01*
X-251426823Y769281313D01*
X-251587242Y769329976D01*
X-251735076Y769408995D01*
X-251735078Y769408996D01*
X-251864659Y769515341D01*
X-251971004Y769644922D01*
X-252007446Y769713100D01*
X-252050024Y769792758D01*
X-252098687Y769953177D01*
X-252115117Y770120000D01*
X-252098687Y770286823D01*
X-252050024Y770447242D01*
X-251971005Y770595076D01*
X-251971004Y770595078D01*
X-251864659Y770724659D01*
X-251735078Y770831004D01*
X-251719906Y770839114D01*
X-251587242Y770910024D01*
X-251426823Y770958687D01*
X-251301804Y770971000D01*
X-251218196Y770971000D01*
X-251093177Y770958687D01*
X-251093177Y770958687D01*
G37*
G36*
X-261253177Y770958687D02*
G01*
X-261092758Y770910024D01*
X-260960094Y770839114D01*
X-260944922Y770831004D01*
X-260815341Y770724659D01*
X-260708996Y770595078D01*
X-260708995Y770595076D01*
X-260629976Y770447242D01*
X-260581313Y770286823D01*
X-260564883Y770120000D01*
X-260581313Y769953177D01*
X-260629976Y769792758D01*
X-260672554Y769713100D01*
X-260708996Y769644922D01*
X-260815341Y769515341D01*
X-260944922Y769408996D01*
X-260944924Y769408995D01*
X-261092758Y769329976D01*
X-261253177Y769281313D01*
X-261378196Y769269000D01*
X-261461804Y769269000D01*
X-261586823Y769281313D01*
X-261747242Y769329976D01*
X-261895076Y769408995D01*
X-261895078Y769408996D01*
X-262024659Y769515341D01*
X-262131004Y769644922D01*
X-262167446Y769713100D01*
X-262210024Y769792758D01*
X-262258687Y769953177D01*
X-262275117Y770120000D01*
X-262258687Y770286823D01*
X-262210024Y770447242D01*
X-262131005Y770595076D01*
X-262131004Y770595078D01*
X-262024659Y770724659D01*
X-261895078Y770831004D01*
X-261879906Y770839114D01*
X-261747242Y770910024D01*
X-261586823Y770958687D01*
X-261461804Y770971000D01*
X-261378196Y770971000D01*
X-261253177Y770958687D01*
X-261253177Y770958687D01*
G37*
G36*
X-253633177Y770958687D02*
G01*
X-253472758Y770910024D01*
X-253340094Y770839114D01*
X-253324922Y770831004D01*
X-253195341Y770724659D01*
X-253088996Y770595078D01*
X-253088995Y770595076D01*
X-253009976Y770447242D01*
X-252961313Y770286823D01*
X-252944883Y770120000D01*
X-252961313Y769953177D01*
X-253009976Y769792758D01*
X-253052554Y769713100D01*
X-253088996Y769644922D01*
X-253195341Y769515341D01*
X-253324922Y769408996D01*
X-253324924Y769408995D01*
X-253472758Y769329976D01*
X-253633177Y769281313D01*
X-253758196Y769269000D01*
X-253841804Y769269000D01*
X-253966823Y769281313D01*
X-254127242Y769329976D01*
X-254275076Y769408995D01*
X-254275078Y769408996D01*
X-254404659Y769515341D01*
X-254511004Y769644922D01*
X-254547446Y769713100D01*
X-254590024Y769792758D01*
X-254638687Y769953177D01*
X-254655117Y770120000D01*
X-254638687Y770286823D01*
X-254590024Y770447242D01*
X-254511005Y770595076D01*
X-254511004Y770595078D01*
X-254404659Y770724659D01*
X-254275078Y770831004D01*
X-254259906Y770839114D01*
X-254127242Y770910024D01*
X-253966823Y770958687D01*
X-253841804Y770971000D01*
X-253758196Y770971000D01*
X-253633177Y770958687D01*
X-253633177Y770958687D01*
G37*
G36*
X-256173177Y770958687D02*
G01*
X-256012758Y770910024D01*
X-255880094Y770839114D01*
X-255864922Y770831004D01*
X-255735341Y770724659D01*
X-255628996Y770595078D01*
X-255628995Y770595076D01*
X-255549976Y770447242D01*
X-255501313Y770286823D01*
X-255484883Y770120000D01*
X-255501313Y769953177D01*
X-255549976Y769792758D01*
X-255592554Y769713100D01*
X-255628996Y769644922D01*
X-255735341Y769515341D01*
X-255864922Y769408996D01*
X-255864924Y769408995D01*
X-256012758Y769329976D01*
X-256173177Y769281313D01*
X-256298196Y769269000D01*
X-256381804Y769269000D01*
X-256506823Y769281313D01*
X-256667242Y769329976D01*
X-256815076Y769408995D01*
X-256815078Y769408996D01*
X-256944659Y769515341D01*
X-257051004Y769644922D01*
X-257087446Y769713100D01*
X-257130024Y769792758D01*
X-257178687Y769953177D01*
X-257195117Y770120000D01*
X-257178687Y770286823D01*
X-257130024Y770447242D01*
X-257051005Y770595076D01*
X-257051004Y770595078D01*
X-256944659Y770724659D01*
X-256815078Y770831004D01*
X-256799906Y770839114D01*
X-256667242Y770910024D01*
X-256506823Y770958687D01*
X-256381804Y770971000D01*
X-256298196Y770971000D01*
X-256173177Y770958687D01*
X-256173177Y770958687D01*
G37*
G36*
X-270053177Y770958687D02*
G01*
X-269892758Y770910024D01*
X-269760094Y770839114D01*
X-269744922Y770831004D01*
X-269615341Y770724659D01*
X-269508996Y770595078D01*
X-269508995Y770595076D01*
X-269429976Y770447242D01*
X-269381313Y770286823D01*
X-269364883Y770120000D01*
X-269381313Y769953177D01*
X-269429976Y769792758D01*
X-269472554Y769713100D01*
X-269508996Y769644922D01*
X-269615341Y769515341D01*
X-269744922Y769408996D01*
X-269744924Y769408995D01*
X-269892758Y769329976D01*
X-270053177Y769281313D01*
X-270178196Y769269000D01*
X-270261804Y769269000D01*
X-270386823Y769281313D01*
X-270547242Y769329976D01*
X-270695076Y769408995D01*
X-270695078Y769408996D01*
X-270824659Y769515341D01*
X-270931004Y769644922D01*
X-270967446Y769713100D01*
X-271010024Y769792758D01*
X-271058687Y769953177D01*
X-271075117Y770120000D01*
X-271058687Y770286823D01*
X-271010024Y770447242D01*
X-270931005Y770595076D01*
X-270931004Y770595078D01*
X-270824659Y770724659D01*
X-270695078Y770831004D01*
X-270679906Y770839114D01*
X-270547242Y770910024D01*
X-270386823Y770958687D01*
X-270261804Y770971000D01*
X-270178196Y770971000D01*
X-270053177Y770958687D01*
X-270053177Y770958687D01*
G37*
G36*
X-258713177Y770958687D02*
G01*
X-258552758Y770910024D01*
X-258420094Y770839114D01*
X-258404922Y770831004D01*
X-258275341Y770724659D01*
X-258168996Y770595078D01*
X-258168995Y770595076D01*
X-258089976Y770447242D01*
X-258041313Y770286823D01*
X-258024883Y770120000D01*
X-258041313Y769953177D01*
X-258089976Y769792758D01*
X-258132554Y769713100D01*
X-258168996Y769644922D01*
X-258275341Y769515341D01*
X-258404922Y769408996D01*
X-258404924Y769408995D01*
X-258552758Y769329976D01*
X-258713177Y769281313D01*
X-258838196Y769269000D01*
X-258921804Y769269000D01*
X-259046823Y769281313D01*
X-259207242Y769329976D01*
X-259355076Y769408995D01*
X-259355078Y769408996D01*
X-259484659Y769515341D01*
X-259591004Y769644922D01*
X-259627446Y769713100D01*
X-259670024Y769792758D01*
X-259718687Y769953177D01*
X-259735117Y770120000D01*
X-259718687Y770286823D01*
X-259670024Y770447242D01*
X-259591005Y770595076D01*
X-259591004Y770595078D01*
X-259484659Y770724659D01*
X-259355078Y770831004D01*
X-259339906Y770839114D01*
X-259207242Y770910024D01*
X-259046823Y770958687D01*
X-258921804Y770971000D01*
X-258838196Y770971000D01*
X-258713177Y770958687D01*
X-258713177Y770958687D01*
G37*
G36*
X-272593177Y770958687D02*
G01*
X-272432758Y770910024D01*
X-272300094Y770839114D01*
X-272284922Y770831004D01*
X-272155341Y770724659D01*
X-272048996Y770595078D01*
X-272048995Y770595076D01*
X-271969976Y770447242D01*
X-271921313Y770286823D01*
X-271904883Y770120000D01*
X-271921313Y769953177D01*
X-271969976Y769792758D01*
X-272012554Y769713100D01*
X-272048996Y769644922D01*
X-272155341Y769515341D01*
X-272284922Y769408996D01*
X-272284924Y769408995D01*
X-272432758Y769329976D01*
X-272593177Y769281313D01*
X-272718196Y769269000D01*
X-272801804Y769269000D01*
X-272926823Y769281313D01*
X-273087242Y769329976D01*
X-273235076Y769408995D01*
X-273235078Y769408996D01*
X-273364659Y769515341D01*
X-273471004Y769644922D01*
X-273507446Y769713100D01*
X-273550024Y769792758D01*
X-273598687Y769953177D01*
X-273615117Y770120000D01*
X-273598687Y770286823D01*
X-273550024Y770447242D01*
X-273471005Y770595076D01*
X-273471004Y770595078D01*
X-273364659Y770724659D01*
X-273235078Y770831004D01*
X-273219906Y770839114D01*
X-273087242Y770910024D01*
X-272926823Y770958687D01*
X-272801804Y770971000D01*
X-272718196Y770971000D01*
X-272593177Y770958687D01*
X-272593177Y770958687D01*
G37*
G36*
X-275133177Y770958687D02*
G01*
X-274972758Y770910024D01*
X-274840094Y770839114D01*
X-274824922Y770831004D01*
X-274695341Y770724659D01*
X-274588996Y770595078D01*
X-274588995Y770595076D01*
X-274509976Y770447242D01*
X-274461313Y770286823D01*
X-274444883Y770120000D01*
X-274461313Y769953177D01*
X-274509976Y769792758D01*
X-274552554Y769713100D01*
X-274588996Y769644922D01*
X-274695341Y769515341D01*
X-274824922Y769408996D01*
X-274824924Y769408995D01*
X-274972758Y769329976D01*
X-275133177Y769281313D01*
X-275258196Y769269000D01*
X-275341804Y769269000D01*
X-275466823Y769281313D01*
X-275627242Y769329976D01*
X-275775076Y769408995D01*
X-275775078Y769408996D01*
X-275904659Y769515341D01*
X-276011004Y769644922D01*
X-276047446Y769713100D01*
X-276090024Y769792758D01*
X-276138687Y769953177D01*
X-276155117Y770120000D01*
X-276138687Y770286823D01*
X-276090024Y770447242D01*
X-276011005Y770595076D01*
X-276011004Y770595078D01*
X-275904659Y770724659D01*
X-275775078Y770831004D01*
X-275759906Y770839114D01*
X-275627242Y770910024D01*
X-275466823Y770958687D01*
X-275341804Y770971000D01*
X-275258196Y770971000D01*
X-275133177Y770958687D01*
X-275133177Y770958687D01*
G37*
G36*
X-277673177Y770958687D02*
G01*
X-277512758Y770910024D01*
X-277380094Y770839114D01*
X-277364922Y770831004D01*
X-277235341Y770724659D01*
X-277128996Y770595078D01*
X-277128995Y770595076D01*
X-277049976Y770447242D01*
X-277001313Y770286823D01*
X-276984883Y770120000D01*
X-277001313Y769953177D01*
X-277049976Y769792758D01*
X-277092554Y769713100D01*
X-277128996Y769644922D01*
X-277235341Y769515341D01*
X-277364922Y769408996D01*
X-277364924Y769408995D01*
X-277512758Y769329976D01*
X-277673177Y769281313D01*
X-277798196Y769269000D01*
X-277881804Y769269000D01*
X-278006823Y769281313D01*
X-278167242Y769329976D01*
X-278315076Y769408995D01*
X-278315078Y769408996D01*
X-278444659Y769515341D01*
X-278551004Y769644922D01*
X-278587446Y769713100D01*
X-278630024Y769792758D01*
X-278678687Y769953177D01*
X-278695117Y770120000D01*
X-278678687Y770286823D01*
X-278630024Y770447242D01*
X-278551005Y770595076D01*
X-278551004Y770595078D01*
X-278444659Y770724659D01*
X-278315078Y770831004D01*
X-278299906Y770839114D01*
X-278167242Y770910024D01*
X-278006823Y770958687D01*
X-277881804Y770971000D01*
X-277798196Y770971000D01*
X-277673177Y770958687D01*
X-277673177Y770958687D01*
G37*
G36*
X-266333177Y770958687D02*
G01*
X-266172758Y770910024D01*
X-266040094Y770839114D01*
X-266024922Y770831004D01*
X-265895341Y770724659D01*
X-265788996Y770595078D01*
X-265788995Y770595076D01*
X-265709976Y770447242D01*
X-265661313Y770286823D01*
X-265644883Y770120000D01*
X-265661313Y769953177D01*
X-265709976Y769792758D01*
X-265752554Y769713100D01*
X-265788996Y769644922D01*
X-265895341Y769515341D01*
X-266024922Y769408996D01*
X-266024924Y769408995D01*
X-266172758Y769329976D01*
X-266333177Y769281313D01*
X-266458196Y769269000D01*
X-266541804Y769269000D01*
X-266666823Y769281313D01*
X-266827242Y769329976D01*
X-266975076Y769408995D01*
X-266975078Y769408996D01*
X-267104659Y769515341D01*
X-267211004Y769644922D01*
X-267247446Y769713100D01*
X-267290024Y769792758D01*
X-267338687Y769953177D01*
X-267355117Y770120000D01*
X-267338687Y770286823D01*
X-267290024Y770447242D01*
X-267211005Y770595076D01*
X-267211004Y770595078D01*
X-267104659Y770724659D01*
X-266975078Y770831004D01*
X-266959906Y770839114D01*
X-266827242Y770910024D01*
X-266666823Y770958687D01*
X-266541804Y770971000D01*
X-266458196Y770971000D01*
X-266333177Y770958687D01*
X-266333177Y770958687D01*
G37*
G36*
X-280213177Y770958687D02*
G01*
X-280052758Y770910024D01*
X-279920094Y770839114D01*
X-279904922Y770831004D01*
X-279775341Y770724659D01*
X-279668996Y770595078D01*
X-279668995Y770595076D01*
X-279589976Y770447242D01*
X-279541313Y770286823D01*
X-279524883Y770120000D01*
X-279541313Y769953177D01*
X-279589976Y769792758D01*
X-279632554Y769713100D01*
X-279668996Y769644922D01*
X-279775341Y769515341D01*
X-279904922Y769408996D01*
X-279904924Y769408995D01*
X-280052758Y769329976D01*
X-280213177Y769281313D01*
X-280338196Y769269000D01*
X-280421804Y769269000D01*
X-280546823Y769281313D01*
X-280707242Y769329976D01*
X-280855076Y769408995D01*
X-280855078Y769408996D01*
X-280984659Y769515341D01*
X-281091004Y769644922D01*
X-281127446Y769713100D01*
X-281170024Y769792758D01*
X-281218687Y769953177D01*
X-281235117Y770120000D01*
X-281218687Y770286823D01*
X-281170024Y770447242D01*
X-281091005Y770595076D01*
X-281091004Y770595078D01*
X-280984659Y770724659D01*
X-280855078Y770831004D01*
X-280839906Y770839114D01*
X-280707242Y770910024D01*
X-280546823Y770958687D01*
X-280421804Y770971000D01*
X-280338196Y770971000D01*
X-280213177Y770958687D01*
X-280213177Y770958687D01*
G37*
G36*
X-285293177Y770958687D02*
G01*
X-285132758Y770910024D01*
X-285000094Y770839114D01*
X-284984922Y770831004D01*
X-284855341Y770724659D01*
X-284748996Y770595078D01*
X-284748995Y770595076D01*
X-284669976Y770447242D01*
X-284621313Y770286823D01*
X-284604883Y770120000D01*
X-284621313Y769953177D01*
X-284669976Y769792758D01*
X-284712554Y769713100D01*
X-284748996Y769644922D01*
X-284855341Y769515341D01*
X-284984922Y769408996D01*
X-284984924Y769408995D01*
X-285132758Y769329976D01*
X-285293177Y769281313D01*
X-285418196Y769269000D01*
X-285501804Y769269000D01*
X-285626823Y769281313D01*
X-285787242Y769329976D01*
X-285935076Y769408995D01*
X-285935078Y769408996D01*
X-286064659Y769515341D01*
X-286171004Y769644922D01*
X-286207446Y769713100D01*
X-286250024Y769792758D01*
X-286298687Y769953177D01*
X-286315117Y770120000D01*
X-286298687Y770286823D01*
X-286250024Y770447242D01*
X-286171005Y770595076D01*
X-286171004Y770595078D01*
X-286064659Y770724659D01*
X-285935078Y770831004D01*
X-285919906Y770839114D01*
X-285787242Y770910024D01*
X-285626823Y770958687D01*
X-285501804Y770971000D01*
X-285418196Y770971000D01*
X-285293177Y770958687D01*
X-285293177Y770958687D01*
G37*
G36*
X-287833177Y770958687D02*
G01*
X-287672758Y770910024D01*
X-287540094Y770839114D01*
X-287524922Y770831004D01*
X-287395341Y770724659D01*
X-287288996Y770595078D01*
X-287288995Y770595076D01*
X-287209976Y770447242D01*
X-287161313Y770286823D01*
X-287144883Y770120000D01*
X-287161313Y769953177D01*
X-287209976Y769792758D01*
X-287252554Y769713100D01*
X-287288996Y769644922D01*
X-287395341Y769515341D01*
X-287524922Y769408996D01*
X-287524924Y769408995D01*
X-287672758Y769329976D01*
X-287833177Y769281313D01*
X-287958196Y769269000D01*
X-288041804Y769269000D01*
X-288166823Y769281313D01*
X-288327242Y769329976D01*
X-288475076Y769408995D01*
X-288475078Y769408996D01*
X-288604659Y769515341D01*
X-288711004Y769644922D01*
X-288747446Y769713100D01*
X-288790024Y769792758D01*
X-288838687Y769953177D01*
X-288855117Y770120000D01*
X-288838687Y770286823D01*
X-288790024Y770447242D01*
X-288711005Y770595076D01*
X-288711004Y770595078D01*
X-288604659Y770724659D01*
X-288475078Y770831004D01*
X-288459906Y770839114D01*
X-288327242Y770910024D01*
X-288166823Y770958687D01*
X-288041804Y770971000D01*
X-287958196Y770971000D01*
X-287833177Y770958687D01*
X-287833177Y770958687D01*
G37*
G36*
X-212431772Y771408297D02*
G01*
X-212276900Y771344147D01*
X-212137519Y771251015D01*
X-212018985Y771132481D01*
X-211925853Y770993100D01*
X-211861703Y770838228D01*
X-211829000Y770673816D01*
X-211829000Y770506184D01*
X-211861703Y770341772D01*
X-211925853Y770186900D01*
X-212018985Y770047519D01*
X-212137519Y769928985D01*
X-212276900Y769835853D01*
X-212431772Y769771703D01*
X-212596184Y769739000D01*
X-212763816Y769739000D01*
X-212928228Y769771703D01*
X-213083100Y769835853D01*
X-213222481Y769928985D01*
X-213341015Y770047519D01*
X-213434147Y770186900D01*
X-213498297Y770341772D01*
X-213531000Y770506184D01*
X-213531000Y770673816D01*
X-213498297Y770838228D01*
X-213434147Y770993100D01*
X-213341015Y771132481D01*
X-213222481Y771251015D01*
X-213083100Y771344147D01*
X-212928228Y771408297D01*
X-212763816Y771441000D01*
X-212596184Y771441000D01*
X-212431772Y771408297D01*
X-212431772Y771408297D01*
G37*
G36*
X-227671772Y771408297D02*
G01*
X-227516900Y771344147D01*
X-227377519Y771251015D01*
X-227258985Y771132481D01*
X-227165853Y770993100D01*
X-227101703Y770838228D01*
X-227069000Y770673816D01*
X-227069000Y770506184D01*
X-227101703Y770341772D01*
X-227165853Y770186900D01*
X-227258985Y770047519D01*
X-227377519Y769928985D01*
X-227516900Y769835853D01*
X-227671772Y769771703D01*
X-227836184Y769739000D01*
X-228003816Y769739000D01*
X-228168228Y769771703D01*
X-228323100Y769835853D01*
X-228462481Y769928985D01*
X-228581015Y770047519D01*
X-228674147Y770186900D01*
X-228738297Y770341772D01*
X-228771000Y770506184D01*
X-228771000Y770673816D01*
X-228738297Y770838228D01*
X-228674147Y770993100D01*
X-228581015Y771132481D01*
X-228462481Y771251015D01*
X-228323100Y771344147D01*
X-228168228Y771408297D01*
X-228003816Y771441000D01*
X-227836184Y771441000D01*
X-227671772Y771408297D01*
X-227671772Y771408297D01*
G37*
G36*
X-192031772Y772668297D02*
G01*
X-191876900Y772604147D01*
X-191737519Y772511015D01*
X-191618985Y772392481D01*
X-191525853Y772253100D01*
X-191461703Y772098228D01*
X-191429000Y771933816D01*
X-191429000Y771766184D01*
X-191461703Y771601772D01*
X-191525853Y771446900D01*
X-191618985Y771307519D01*
X-191737519Y771188985D01*
X-191876900Y771095853D01*
X-192031772Y771031703D01*
X-192196184Y770999000D01*
X-192363816Y770999000D01*
X-192528228Y771031703D01*
X-192683100Y771095853D01*
X-192822481Y771188985D01*
X-192941015Y771307519D01*
X-193034147Y771446900D01*
X-193098297Y771601772D01*
X-193131000Y771766184D01*
X-193131000Y771933816D01*
X-193098297Y772098228D01*
X-193034147Y772253100D01*
X-192941015Y772392481D01*
X-192822481Y772511015D01*
X-192683100Y772604147D01*
X-192528228Y772668297D01*
X-192363816Y772701000D01*
X-192196184Y772701000D01*
X-192031772Y772668297D01*
X-192031772Y772668297D01*
G37*
G36*
X-207271772Y772668297D02*
G01*
X-207116900Y772604147D01*
X-206977519Y772511015D01*
X-206858985Y772392481D01*
X-206765853Y772253100D01*
X-206701703Y772098228D01*
X-206669000Y771933816D01*
X-206669000Y771766184D01*
X-206701703Y771601772D01*
X-206765853Y771446900D01*
X-206858985Y771307519D01*
X-206977519Y771188985D01*
X-207116900Y771095853D01*
X-207271772Y771031703D01*
X-207436184Y770999000D01*
X-207603816Y770999000D01*
X-207768228Y771031703D01*
X-207923100Y771095853D01*
X-208062481Y771188985D01*
X-208181015Y771307519D01*
X-208274147Y771446900D01*
X-208338297Y771601772D01*
X-208371000Y771766184D01*
X-208371000Y771933816D01*
X-208338297Y772098228D01*
X-208274147Y772253100D01*
X-208181015Y772392481D01*
X-208062481Y772511015D01*
X-207923100Y772604147D01*
X-207768228Y772668297D01*
X-207603816Y772701000D01*
X-207436184Y772701000D01*
X-207271772Y772668297D01*
X-207271772Y772668297D01*
G37*
G36*
X-227671772Y773948297D02*
G01*
X-227516900Y773884147D01*
X-227377519Y773791015D01*
X-227258985Y773672481D01*
X-227165853Y773533100D01*
X-227101703Y773378228D01*
X-227069000Y773213816D01*
X-227069000Y773046184D01*
X-227101703Y772881772D01*
X-227165853Y772726900D01*
X-227258985Y772587519D01*
X-227377519Y772468985D01*
X-227516900Y772375853D01*
X-227671772Y772311703D01*
X-227836184Y772279000D01*
X-228003816Y772279000D01*
X-228168228Y772311703D01*
X-228323100Y772375853D01*
X-228462481Y772468985D01*
X-228581015Y772587519D01*
X-228674147Y772726900D01*
X-228738297Y772881772D01*
X-228771000Y773046184D01*
X-228771000Y773213816D01*
X-228738297Y773378228D01*
X-228674147Y773533100D01*
X-228581015Y773672481D01*
X-228462481Y773791015D01*
X-228323100Y773884147D01*
X-228168228Y773948297D01*
X-228003816Y773981000D01*
X-227836184Y773981000D01*
X-227671772Y773948297D01*
X-227671772Y773948297D01*
G37*
G36*
X-212431772Y773948297D02*
G01*
X-212276900Y773884147D01*
X-212137519Y773791015D01*
X-212018985Y773672481D01*
X-211925853Y773533100D01*
X-211861703Y773378228D01*
X-211829000Y773213816D01*
X-211829000Y773046184D01*
X-211861703Y772881772D01*
X-211925853Y772726900D01*
X-212018985Y772587519D01*
X-212137519Y772468985D01*
X-212276900Y772375853D01*
X-212431772Y772311703D01*
X-212596184Y772279000D01*
X-212763816Y772279000D01*
X-212928228Y772311703D01*
X-213083100Y772375853D01*
X-213222481Y772468985D01*
X-213341015Y772587519D01*
X-213434147Y772726900D01*
X-213498297Y772881772D01*
X-213531000Y773046184D01*
X-213531000Y773213816D01*
X-213498297Y773378228D01*
X-213434147Y773533100D01*
X-213341015Y773672481D01*
X-213222481Y773791015D01*
X-213083100Y773884147D01*
X-212928228Y773948297D01*
X-212763816Y773981000D01*
X-212596184Y773981000D01*
X-212431772Y773948297D01*
X-212431772Y773948297D01*
G37*
G36*
X-192031772Y775208297D02*
G01*
X-191876900Y775144147D01*
X-191737519Y775051015D01*
X-191618985Y774932481D01*
X-191525853Y774793100D01*
X-191461703Y774638228D01*
X-191429000Y774473816D01*
X-191429000Y774306184D01*
X-191461703Y774141772D01*
X-191525853Y773986900D01*
X-191618985Y773847519D01*
X-191737519Y773728985D01*
X-191876900Y773635853D01*
X-192031772Y773571703D01*
X-192196184Y773539000D01*
X-192363816Y773539000D01*
X-192528228Y773571703D01*
X-192683100Y773635853D01*
X-192822481Y773728985D01*
X-192941015Y773847519D01*
X-193034147Y773986900D01*
X-193098297Y774141772D01*
X-193131000Y774306184D01*
X-193131000Y774473816D01*
X-193098297Y774638228D01*
X-193034147Y774793100D01*
X-192941015Y774932481D01*
X-192822481Y775051015D01*
X-192683100Y775144147D01*
X-192528228Y775208297D01*
X-192363816Y775241000D01*
X-192196184Y775241000D01*
X-192031772Y775208297D01*
X-192031772Y775208297D01*
G37*
G36*
X-207271772Y775208297D02*
G01*
X-207116900Y775144147D01*
X-206977519Y775051015D01*
X-206858985Y774932481D01*
X-206765853Y774793100D01*
X-206701703Y774638228D01*
X-206669000Y774473816D01*
X-206669000Y774306184D01*
X-206701703Y774141772D01*
X-206765853Y773986900D01*
X-206858985Y773847519D01*
X-206977519Y773728985D01*
X-207116900Y773635853D01*
X-207271772Y773571703D01*
X-207436184Y773539000D01*
X-207603816Y773539000D01*
X-207768228Y773571703D01*
X-207923100Y773635853D01*
X-208062481Y773728985D01*
X-208181015Y773847519D01*
X-208274147Y773986900D01*
X-208338297Y774141772D01*
X-208371000Y774306184D01*
X-208371000Y774473816D01*
X-208338297Y774638228D01*
X-208274147Y774793100D01*
X-208181015Y774932481D01*
X-208062481Y775051015D01*
X-207923100Y775144147D01*
X-207768228Y775208297D01*
X-207603816Y775241000D01*
X-207436184Y775241000D01*
X-207271772Y775208297D01*
X-207271772Y775208297D01*
G37*
G36*
X-257149682Y776654847D02*
G01*
X-256931115Y776564313D01*
X-256931113Y776564312D01*
X-256734407Y776432878D01*
X-256567122Y776265593D01*
X-256438503Y776073100D01*
X-256435687Y776068885D01*
X-256345153Y775850318D01*
X-256299000Y775618290D01*
X-256299000Y775381710D01*
X-256345153Y775149682D01*
X-256403432Y775008985D01*
X-256435688Y774931113D01*
X-256567122Y774734407D01*
X-256734407Y774567122D01*
X-256931113Y774435688D01*
X-256931114Y774435687D01*
X-256931115Y774435687D01*
X-257149682Y774345153D01*
X-257381710Y774299000D01*
X-257618290Y774299000D01*
X-257850318Y774345153D01*
X-258068885Y774435687D01*
X-258068886Y774435687D01*
X-258068887Y774435688D01*
X-258265593Y774567122D01*
X-258432878Y774734407D01*
X-258564312Y774931113D01*
X-258596568Y775008985D01*
X-258654847Y775149682D01*
X-258701000Y775381710D01*
X-258701000Y775618290D01*
X-258654847Y775850318D01*
X-258564313Y776068885D01*
X-258561497Y776073100D01*
X-258432878Y776265593D01*
X-258265593Y776432878D01*
X-258068887Y776564312D01*
X-258068885Y776564313D01*
X-257850318Y776654847D01*
X-257618290Y776701000D01*
X-257381710Y776701000D01*
X-257149682Y776654847D01*
X-257149682Y776654847D01*
G37*
G36*
X-267149682Y776654847D02*
G01*
X-266931115Y776564313D01*
X-266931113Y776564312D01*
X-266734407Y776432878D01*
X-266567122Y776265593D01*
X-266438503Y776073100D01*
X-266435687Y776068885D01*
X-266345153Y775850318D01*
X-266299000Y775618290D01*
X-266299000Y775381710D01*
X-266345153Y775149682D01*
X-266403432Y775008985D01*
X-266435688Y774931113D01*
X-266567122Y774734407D01*
X-266734407Y774567122D01*
X-266931113Y774435688D01*
X-266931114Y774435687D01*
X-266931115Y774435687D01*
X-267149682Y774345153D01*
X-267381710Y774299000D01*
X-267618290Y774299000D01*
X-267850318Y774345153D01*
X-268068885Y774435687D01*
X-268068886Y774435687D01*
X-268068887Y774435688D01*
X-268265593Y774567122D01*
X-268432878Y774734407D01*
X-268564312Y774931113D01*
X-268596568Y775008985D01*
X-268654847Y775149682D01*
X-268701000Y775381710D01*
X-268701000Y775618290D01*
X-268654847Y775850318D01*
X-268564313Y776068885D01*
X-268561497Y776073100D01*
X-268432878Y776265593D01*
X-268265593Y776432878D01*
X-268068887Y776564312D01*
X-268068885Y776564313D01*
X-267850318Y776654847D01*
X-267618290Y776701000D01*
X-267381710Y776701000D01*
X-267149682Y776654847D01*
X-267149682Y776654847D01*
G37*
G36*
X-246149682Y776654847D02*
G01*
X-245931115Y776564313D01*
X-245931113Y776564312D01*
X-245734407Y776432878D01*
X-245567122Y776265593D01*
X-245438503Y776073100D01*
X-245435687Y776068885D01*
X-245345153Y775850318D01*
X-245299000Y775618290D01*
X-245299000Y775381710D01*
X-245345153Y775149682D01*
X-245403432Y775008985D01*
X-245435688Y774931113D01*
X-245567122Y774734407D01*
X-245734407Y774567122D01*
X-245931113Y774435688D01*
X-245931114Y774435687D01*
X-245931115Y774435687D01*
X-246149682Y774345153D01*
X-246381710Y774299000D01*
X-246618290Y774299000D01*
X-246850318Y774345153D01*
X-247068885Y774435687D01*
X-247068886Y774435687D01*
X-247068887Y774435688D01*
X-247265593Y774567122D01*
X-247432878Y774734407D01*
X-247564312Y774931113D01*
X-247596568Y775008985D01*
X-247654847Y775149682D01*
X-247701000Y775381710D01*
X-247701000Y775618290D01*
X-247654847Y775850318D01*
X-247564313Y776068885D01*
X-247561497Y776073100D01*
X-247432878Y776265593D01*
X-247265593Y776432878D01*
X-247068887Y776564312D01*
X-247068885Y776564313D01*
X-246850318Y776654847D01*
X-246618290Y776701000D01*
X-246381710Y776701000D01*
X-246149682Y776654847D01*
X-246149682Y776654847D01*
G37*
G36*
X-236149682Y776654847D02*
G01*
X-235931115Y776564313D01*
X-235931113Y776564312D01*
X-235734407Y776432878D01*
X-235567122Y776265593D01*
X-235438503Y776073100D01*
X-235435687Y776068885D01*
X-235345153Y775850318D01*
X-235299000Y775618290D01*
X-235299000Y775381710D01*
X-235345153Y775149682D01*
X-235403432Y775008985D01*
X-235435688Y774931113D01*
X-235567122Y774734407D01*
X-235734407Y774567122D01*
X-235931113Y774435688D01*
X-235931114Y774435687D01*
X-235931115Y774435687D01*
X-236149682Y774345153D01*
X-236381710Y774299000D01*
X-236618290Y774299000D01*
X-236850318Y774345153D01*
X-237068885Y774435687D01*
X-237068886Y774435687D01*
X-237068887Y774435688D01*
X-237265593Y774567122D01*
X-237432878Y774734407D01*
X-237564312Y774931113D01*
X-237596568Y775008985D01*
X-237654847Y775149682D01*
X-237701000Y775381710D01*
X-237701000Y775618290D01*
X-237654847Y775850318D01*
X-237564313Y776068885D01*
X-237561497Y776073100D01*
X-237432878Y776265593D01*
X-237265593Y776432878D01*
X-237068887Y776564312D01*
X-237068885Y776564313D01*
X-236850318Y776654847D01*
X-236618290Y776701000D01*
X-236381710Y776701000D01*
X-236149682Y776654847D01*
X-236149682Y776654847D01*
G37*
G36*
X-212431772Y776488297D02*
G01*
X-212276900Y776424147D01*
X-212137519Y776331015D01*
X-212018985Y776212481D01*
X-211925853Y776073100D01*
X-211861703Y775918228D01*
X-211829000Y775753816D01*
X-211829000Y775586184D01*
X-211861703Y775421772D01*
X-211925853Y775266900D01*
X-212018985Y775127519D01*
X-212137519Y775008985D01*
X-212276900Y774915853D01*
X-212431772Y774851703D01*
X-212596184Y774819000D01*
X-212763816Y774819000D01*
X-212928228Y774851703D01*
X-213083100Y774915853D01*
X-213222481Y775008985D01*
X-213341015Y775127519D01*
X-213434147Y775266900D01*
X-213498297Y775421772D01*
X-213531000Y775586184D01*
X-213531000Y775753816D01*
X-213498297Y775918228D01*
X-213434147Y776073100D01*
X-213341015Y776212481D01*
X-213222481Y776331015D01*
X-213083100Y776424147D01*
X-212928228Y776488297D01*
X-212763816Y776521000D01*
X-212596184Y776521000D01*
X-212431772Y776488297D01*
X-212431772Y776488297D01*
G37*
G36*
X-227671772Y776488297D02*
G01*
X-227516900Y776424147D01*
X-227377519Y776331015D01*
X-227258985Y776212481D01*
X-227165853Y776073100D01*
X-227101703Y775918228D01*
X-227069000Y775753816D01*
X-227069000Y775586184D01*
X-227101703Y775421772D01*
X-227165853Y775266900D01*
X-227258985Y775127519D01*
X-227377519Y775008985D01*
X-227516900Y774915853D01*
X-227671772Y774851703D01*
X-227836184Y774819000D01*
X-228003816Y774819000D01*
X-228168228Y774851703D01*
X-228323100Y774915853D01*
X-228462481Y775008985D01*
X-228581015Y775127519D01*
X-228674147Y775266900D01*
X-228738297Y775421772D01*
X-228771000Y775586184D01*
X-228771000Y775753816D01*
X-228738297Y775918228D01*
X-228674147Y776073100D01*
X-228581015Y776212481D01*
X-228462481Y776331015D01*
X-228323100Y776424147D01*
X-228168228Y776488297D01*
X-228003816Y776521000D01*
X-227836184Y776521000D01*
X-227671772Y776488297D01*
X-227671772Y776488297D01*
G37*
G36*
X-192031772Y777748297D02*
G01*
X-191876900Y777684147D01*
X-191737519Y777591015D01*
X-191618985Y777472481D01*
X-191525853Y777333100D01*
X-191461703Y777178228D01*
X-191429000Y777013816D01*
X-191429000Y776846184D01*
X-191461703Y776681772D01*
X-191525853Y776526900D01*
X-191618985Y776387519D01*
X-191737519Y776268985D01*
X-191876900Y776175853D01*
X-192031772Y776111703D01*
X-192196184Y776079000D01*
X-192363816Y776079000D01*
X-192528228Y776111703D01*
X-192683100Y776175853D01*
X-192822481Y776268985D01*
X-192941015Y776387519D01*
X-193034147Y776526900D01*
X-193098297Y776681772D01*
X-193131000Y776846184D01*
X-193131000Y777013816D01*
X-193098297Y777178228D01*
X-193034147Y777333100D01*
X-192941015Y777472481D01*
X-192822481Y777591015D01*
X-192683100Y777684147D01*
X-192528228Y777748297D01*
X-192363816Y777781000D01*
X-192196184Y777781000D01*
X-192031772Y777748297D01*
X-192031772Y777748297D01*
G37*
G36*
X-207271772Y777748297D02*
G01*
X-207116900Y777684147D01*
X-206977519Y777591015D01*
X-206858985Y777472481D01*
X-206765853Y777333100D01*
X-206701703Y777178228D01*
X-206669000Y777013816D01*
X-206669000Y776846184D01*
X-206701703Y776681772D01*
X-206765853Y776526900D01*
X-206858985Y776387519D01*
X-206977519Y776268985D01*
X-207116900Y776175853D01*
X-207271772Y776111703D01*
X-207436184Y776079000D01*
X-207603816Y776079000D01*
X-207768228Y776111703D01*
X-207923100Y776175853D01*
X-208062481Y776268985D01*
X-208181015Y776387519D01*
X-208274147Y776526900D01*
X-208338297Y776681772D01*
X-208371000Y776846184D01*
X-208371000Y777013816D01*
X-208338297Y777178228D01*
X-208274147Y777333100D01*
X-208181015Y777472481D01*
X-208062481Y777591015D01*
X-207923100Y777684147D01*
X-207768228Y777748297D01*
X-207603816Y777781000D01*
X-207436184Y777781000D01*
X-207271772Y777748297D01*
X-207271772Y777748297D01*
G37*
G36*
X-233649682Y779154847D02*
G01*
X-233437368Y779066903D01*
X-233431113Y779064312D01*
X-233234407Y778932878D01*
X-233067122Y778765593D01*
X-232965230Y778613100D01*
X-232935687Y778568885D01*
X-232845153Y778350318D01*
X-232799000Y778118290D01*
X-232799000Y777881710D01*
X-232845153Y777649682D01*
X-232918553Y777472481D01*
X-232935688Y777431113D01*
X-233067122Y777234407D01*
X-233234407Y777067122D01*
X-233431113Y776935688D01*
X-233431114Y776935687D01*
X-233431115Y776935687D01*
X-233649682Y776845153D01*
X-233881710Y776799000D01*
X-234118290Y776799000D01*
X-234350318Y776845153D01*
X-234568885Y776935687D01*
X-234568886Y776935687D01*
X-234568887Y776935688D01*
X-234765593Y777067122D01*
X-234932878Y777234407D01*
X-235064312Y777431113D01*
X-235081447Y777472481D01*
X-235154847Y777649682D01*
X-235201000Y777881710D01*
X-235201000Y778118290D01*
X-235154847Y778350318D01*
X-235064313Y778568885D01*
X-235034770Y778613100D01*
X-234932878Y778765593D01*
X-234765593Y778932878D01*
X-234568887Y779064312D01*
X-234562632Y779066903D01*
X-234350318Y779154847D01*
X-234118290Y779201000D01*
X-233881710Y779201000D01*
X-233649682Y779154847D01*
X-233649682Y779154847D01*
G37*
G36*
X-241149682Y779154847D02*
G01*
X-240937368Y779066903D01*
X-240931113Y779064312D01*
X-240734407Y778932878D01*
X-240567122Y778765593D01*
X-240465230Y778613100D01*
X-240435687Y778568885D01*
X-240345153Y778350318D01*
X-240299000Y778118290D01*
X-240299000Y777881710D01*
X-240345153Y777649682D01*
X-240418553Y777472481D01*
X-240435688Y777431113D01*
X-240567122Y777234407D01*
X-240734407Y777067122D01*
X-240931113Y776935688D01*
X-240931114Y776935687D01*
X-240931115Y776935687D01*
X-241149682Y776845153D01*
X-241381710Y776799000D01*
X-241618290Y776799000D01*
X-241850318Y776845153D01*
X-242068885Y776935687D01*
X-242068886Y776935687D01*
X-242068887Y776935688D01*
X-242265593Y777067122D01*
X-242432878Y777234407D01*
X-242564312Y777431113D01*
X-242581447Y777472481D01*
X-242654847Y777649682D01*
X-242701000Y777881710D01*
X-242701000Y778118290D01*
X-242654847Y778350318D01*
X-242564313Y778568885D01*
X-242534770Y778613100D01*
X-242432878Y778765593D01*
X-242265593Y778932878D01*
X-242068887Y779064312D01*
X-242062632Y779066903D01*
X-241850318Y779154847D01*
X-241618290Y779201000D01*
X-241381710Y779201000D01*
X-241149682Y779154847D01*
X-241149682Y779154847D01*
G37*
G36*
X-248649682Y779154847D02*
G01*
X-248437368Y779066903D01*
X-248431113Y779064312D01*
X-248234407Y778932878D01*
X-248067122Y778765593D01*
X-247965230Y778613100D01*
X-247935687Y778568885D01*
X-247845153Y778350318D01*
X-247799000Y778118290D01*
X-247799000Y777881710D01*
X-247845153Y777649682D01*
X-247918553Y777472481D01*
X-247935688Y777431113D01*
X-248067122Y777234407D01*
X-248234407Y777067122D01*
X-248431113Y776935688D01*
X-248431114Y776935687D01*
X-248431115Y776935687D01*
X-248649682Y776845153D01*
X-248881710Y776799000D01*
X-249118290Y776799000D01*
X-249350318Y776845153D01*
X-249568885Y776935687D01*
X-249568886Y776935687D01*
X-249568887Y776935688D01*
X-249765593Y777067122D01*
X-249932878Y777234407D01*
X-250064312Y777431113D01*
X-250081447Y777472481D01*
X-250154847Y777649682D01*
X-250201000Y777881710D01*
X-250201000Y778118290D01*
X-250154847Y778350318D01*
X-250064313Y778568885D01*
X-250034770Y778613100D01*
X-249932878Y778765593D01*
X-249765593Y778932878D01*
X-249568887Y779064312D01*
X-249562632Y779066903D01*
X-249350318Y779154847D01*
X-249118290Y779201000D01*
X-248881710Y779201000D01*
X-248649682Y779154847D01*
X-248649682Y779154847D01*
G37*
G36*
X-262149682Y779154847D02*
G01*
X-261937368Y779066903D01*
X-261931113Y779064312D01*
X-261734407Y778932878D01*
X-261567122Y778765593D01*
X-261465230Y778613100D01*
X-261435687Y778568885D01*
X-261345153Y778350318D01*
X-261299000Y778118290D01*
X-261299000Y777881710D01*
X-261345153Y777649682D01*
X-261418553Y777472481D01*
X-261435688Y777431113D01*
X-261567122Y777234407D01*
X-261734407Y777067122D01*
X-261931113Y776935688D01*
X-261931114Y776935687D01*
X-261931115Y776935687D01*
X-262149682Y776845153D01*
X-262381710Y776799000D01*
X-262618290Y776799000D01*
X-262850318Y776845153D01*
X-263068885Y776935687D01*
X-263068886Y776935687D01*
X-263068887Y776935688D01*
X-263265593Y777067122D01*
X-263432878Y777234407D01*
X-263564312Y777431113D01*
X-263581447Y777472481D01*
X-263654847Y777649682D01*
X-263701000Y777881710D01*
X-263701000Y778118290D01*
X-263654847Y778350318D01*
X-263564313Y778568885D01*
X-263534770Y778613100D01*
X-263432878Y778765593D01*
X-263265593Y778932878D01*
X-263068887Y779064312D01*
X-263062632Y779066903D01*
X-262850318Y779154847D01*
X-262618290Y779201000D01*
X-262381710Y779201000D01*
X-262149682Y779154847D01*
X-262149682Y779154847D01*
G37*
G36*
X-254649682Y779154847D02*
G01*
X-254437368Y779066903D01*
X-254431113Y779064312D01*
X-254234407Y778932878D01*
X-254067122Y778765593D01*
X-253965230Y778613100D01*
X-253935687Y778568885D01*
X-253845153Y778350318D01*
X-253799000Y778118290D01*
X-253799000Y777881710D01*
X-253845153Y777649682D01*
X-253918553Y777472481D01*
X-253935688Y777431113D01*
X-254067122Y777234407D01*
X-254234407Y777067122D01*
X-254431113Y776935688D01*
X-254431114Y776935687D01*
X-254431115Y776935687D01*
X-254649682Y776845153D01*
X-254881710Y776799000D01*
X-255118290Y776799000D01*
X-255350318Y776845153D01*
X-255568885Y776935687D01*
X-255568886Y776935687D01*
X-255568887Y776935688D01*
X-255765593Y777067122D01*
X-255932878Y777234407D01*
X-256064312Y777431113D01*
X-256081447Y777472481D01*
X-256154847Y777649682D01*
X-256201000Y777881710D01*
X-256201000Y778118290D01*
X-256154847Y778350318D01*
X-256064313Y778568885D01*
X-256034770Y778613100D01*
X-255932878Y778765593D01*
X-255765593Y778932878D01*
X-255568887Y779064312D01*
X-255562632Y779066903D01*
X-255350318Y779154847D01*
X-255118290Y779201000D01*
X-254881710Y779201000D01*
X-254649682Y779154847D01*
X-254649682Y779154847D01*
G37*
G36*
X-269649682Y779154847D02*
G01*
X-269437368Y779066903D01*
X-269431113Y779064312D01*
X-269234407Y778932878D01*
X-269067122Y778765593D01*
X-268965230Y778613100D01*
X-268935687Y778568885D01*
X-268845153Y778350318D01*
X-268799000Y778118290D01*
X-268799000Y777881710D01*
X-268845153Y777649682D01*
X-268918553Y777472481D01*
X-268935688Y777431113D01*
X-269067122Y777234407D01*
X-269234407Y777067122D01*
X-269431113Y776935688D01*
X-269431114Y776935687D01*
X-269431115Y776935687D01*
X-269649682Y776845153D01*
X-269881710Y776799000D01*
X-270118290Y776799000D01*
X-270350318Y776845153D01*
X-270568885Y776935687D01*
X-270568886Y776935687D01*
X-270568887Y776935688D01*
X-270765593Y777067122D01*
X-270932878Y777234407D01*
X-271064312Y777431113D01*
X-271081447Y777472481D01*
X-271154847Y777649682D01*
X-271201000Y777881710D01*
X-271201000Y778118290D01*
X-271154847Y778350318D01*
X-271064313Y778568885D01*
X-271034770Y778613100D01*
X-270932878Y778765593D01*
X-270765593Y778932878D01*
X-270568887Y779064312D01*
X-270562632Y779066903D01*
X-270350318Y779154847D01*
X-270118290Y779201000D01*
X-269881710Y779201000D01*
X-269649682Y779154847D01*
X-269649682Y779154847D01*
G37*
G36*
X-212431772Y779028297D02*
G01*
X-212276900Y778964147D01*
X-212137519Y778871015D01*
X-212018985Y778752481D01*
X-211925853Y778613100D01*
X-211861703Y778458228D01*
X-211829000Y778293816D01*
X-211829000Y778126184D01*
X-211861703Y777961772D01*
X-211925853Y777806900D01*
X-212018985Y777667519D01*
X-212137519Y777548985D01*
X-212276900Y777455853D01*
X-212431772Y777391703D01*
X-212596184Y777359000D01*
X-212763816Y777359000D01*
X-212928228Y777391703D01*
X-213083100Y777455853D01*
X-213222481Y777548985D01*
X-213341015Y777667519D01*
X-213434147Y777806900D01*
X-213498297Y777961772D01*
X-213531000Y778126184D01*
X-213531000Y778293816D01*
X-213498297Y778458228D01*
X-213434147Y778613100D01*
X-213341015Y778752481D01*
X-213222481Y778871015D01*
X-213083100Y778964147D01*
X-212928228Y779028297D01*
X-212763816Y779061000D01*
X-212596184Y779061000D01*
X-212431772Y779028297D01*
X-212431772Y779028297D01*
G37*
G36*
X-227671772Y779028297D02*
G01*
X-227516900Y778964147D01*
X-227377519Y778871015D01*
X-227258985Y778752481D01*
X-227165853Y778613100D01*
X-227101703Y778458228D01*
X-227069000Y778293816D01*
X-227069000Y778126184D01*
X-227101703Y777961772D01*
X-227165853Y777806900D01*
X-227258985Y777667519D01*
X-227377519Y777548985D01*
X-227516900Y777455853D01*
X-227671772Y777391703D01*
X-227836184Y777359000D01*
X-228003816Y777359000D01*
X-228168228Y777391703D01*
X-228323100Y777455853D01*
X-228462481Y777548985D01*
X-228581015Y777667519D01*
X-228674147Y777806900D01*
X-228738297Y777961772D01*
X-228771000Y778126184D01*
X-228771000Y778293816D01*
X-228738297Y778458228D01*
X-228674147Y778613100D01*
X-228581015Y778752481D01*
X-228462481Y778871015D01*
X-228323100Y778964147D01*
X-228168228Y779028297D01*
X-228003816Y779061000D01*
X-227836184Y779061000D01*
X-227671772Y779028297D01*
X-227671772Y779028297D01*
G37*
G36*
X-194571772Y780288297D02*
G01*
X-194416900Y780224147D01*
X-194277519Y780131015D01*
X-194158985Y780012481D01*
X-194065853Y779873100D01*
X-194001703Y779718228D01*
X-193969000Y779553816D01*
X-193969000Y779386184D01*
X-194001703Y779221772D01*
X-194065853Y779066900D01*
X-194158985Y778927519D01*
X-194277519Y778808985D01*
X-194416900Y778715853D01*
X-194571772Y778651703D01*
X-194736184Y778619000D01*
X-194903816Y778619000D01*
X-195068228Y778651703D01*
X-195223100Y778715853D01*
X-195362481Y778808985D01*
X-195481015Y778927519D01*
X-195574147Y779066900D01*
X-195638297Y779221772D01*
X-195671000Y779386184D01*
X-195671000Y779553816D01*
X-195638297Y779718228D01*
X-195574147Y779873100D01*
X-195481015Y780012481D01*
X-195362481Y780131015D01*
X-195223100Y780224147D01*
X-195068228Y780288297D01*
X-194903816Y780321000D01*
X-194736184Y780321000D01*
X-194571772Y780288297D01*
X-194571772Y780288297D01*
G37*
G36*
X-207271772Y780288297D02*
G01*
X-207116900Y780224147D01*
X-206977519Y780131015D01*
X-206858985Y780012481D01*
X-206765853Y779873100D01*
X-206701703Y779718228D01*
X-206669000Y779553816D01*
X-206669000Y779386184D01*
X-206701703Y779221772D01*
X-206765853Y779066900D01*
X-206858985Y778927519D01*
X-206977519Y778808985D01*
X-207116900Y778715853D01*
X-207271772Y778651703D01*
X-207436184Y778619000D01*
X-207603816Y778619000D01*
X-207768228Y778651703D01*
X-207923100Y778715853D01*
X-208062481Y778808985D01*
X-208181015Y778927519D01*
X-208274147Y779066900D01*
X-208338297Y779221772D01*
X-208371000Y779386184D01*
X-208371000Y779553816D01*
X-208338297Y779718228D01*
X-208274147Y779873100D01*
X-208181015Y780012481D01*
X-208062481Y780131015D01*
X-207923100Y780224147D01*
X-207768228Y780288297D01*
X-207603816Y780321000D01*
X-207436184Y780321000D01*
X-207271772Y780288297D01*
X-207271772Y780288297D01*
G37*
G36*
X-192031772Y780288297D02*
G01*
X-191876900Y780224147D01*
X-191737519Y780131015D01*
X-191618985Y780012481D01*
X-191525853Y779873100D01*
X-191461703Y779718228D01*
X-191429000Y779553816D01*
X-191429000Y779386184D01*
X-191461703Y779221772D01*
X-191525853Y779066900D01*
X-191618985Y778927519D01*
X-191737519Y778808985D01*
X-191876900Y778715853D01*
X-192031772Y778651703D01*
X-192196184Y778619000D01*
X-192363816Y778619000D01*
X-192528228Y778651703D01*
X-192683100Y778715853D01*
X-192822481Y778808985D01*
X-192941015Y778927519D01*
X-193034147Y779066900D01*
X-193098297Y779221772D01*
X-193131000Y779386184D01*
X-193131000Y779553816D01*
X-193098297Y779718228D01*
X-193034147Y779873100D01*
X-192941015Y780012481D01*
X-192822481Y780131015D01*
X-192683100Y780224147D01*
X-192528228Y780288297D01*
X-192363816Y780321000D01*
X-192196184Y780321000D01*
X-192031772Y780288297D01*
X-192031772Y780288297D01*
G37*
G36*
X-264818472Y782377602D02*
G01*
X-264643926Y782324653D01*
X-264483050Y782238664D01*
X-264342051Y782122949D01*
X-264226333Y781981947D01*
X-264140348Y781821079D01*
X-264087398Y781646529D01*
X-264074000Y781510490D01*
X-264074000Y779669510D01*
X-264087398Y779533471D01*
X-264140348Y779358921D01*
X-264226333Y779198053D01*
X-264342051Y779057051D01*
X-264483053Y778941333D01*
X-264643921Y778855348D01*
X-264818471Y778802398D01*
X-265000000Y778784520D01*
X-265181528Y778802398D01*
X-265356078Y778855348D01*
X-265516946Y778941333D01*
X-265657948Y779057051D01*
X-265773666Y779198053D01*
X-265859651Y779358921D01*
X-265912601Y779533471D01*
X-265926000Y779669511D01*
X-265926000Y781510489D01*
X-265912602Y781646528D01*
X-265859653Y781821074D01*
X-265773664Y781981950D01*
X-265657949Y782122949D01*
X-265516947Y782238667D01*
X-265356079Y782324652D01*
X-265181529Y782377602D01*
X-265000000Y782395480D01*
X-264818472Y782377602D01*
X-264818472Y782377602D01*
G37*
G36*
X-243818472Y782377602D02*
G01*
X-243643926Y782324653D01*
X-243483050Y782238664D01*
X-243342051Y782122949D01*
X-243226333Y781981947D01*
X-243140348Y781821079D01*
X-243087398Y781646529D01*
X-243074000Y781510490D01*
X-243074000Y779669510D01*
X-243087398Y779533471D01*
X-243140348Y779358921D01*
X-243226333Y779198053D01*
X-243342051Y779057051D01*
X-243483053Y778941333D01*
X-243643921Y778855348D01*
X-243818471Y778802398D01*
X-244000000Y778784520D01*
X-244181528Y778802398D01*
X-244356078Y778855348D01*
X-244516946Y778941333D01*
X-244657948Y779057051D01*
X-244773666Y779198053D01*
X-244859651Y779358921D01*
X-244912601Y779533471D01*
X-244926000Y779669511D01*
X-244926000Y781510489D01*
X-244912602Y781646528D01*
X-244859653Y781821074D01*
X-244773664Y781981950D01*
X-244657949Y782122949D01*
X-244516947Y782238667D01*
X-244356079Y782324652D01*
X-244181529Y782377602D01*
X-244000000Y782395480D01*
X-243818472Y782377602D01*
X-243818472Y782377602D01*
G37*
G36*
X-238818472Y782377602D02*
G01*
X-238643926Y782324653D01*
X-238483050Y782238664D01*
X-238342051Y782122949D01*
X-238226333Y781981947D01*
X-238140348Y781821079D01*
X-238087398Y781646529D01*
X-238074000Y781510490D01*
X-238074000Y779669510D01*
X-238087398Y779533471D01*
X-238140348Y779358921D01*
X-238226333Y779198053D01*
X-238342051Y779057051D01*
X-238483053Y778941333D01*
X-238643921Y778855348D01*
X-238818471Y778802398D01*
X-239000000Y778784520D01*
X-239181528Y778802398D01*
X-239356078Y778855348D01*
X-239516946Y778941333D01*
X-239657948Y779057051D01*
X-239773666Y779198053D01*
X-239859651Y779358921D01*
X-239912601Y779533471D01*
X-239926000Y779669511D01*
X-239926000Y781510489D01*
X-239912602Y781646528D01*
X-239859653Y781821074D01*
X-239773664Y781981950D01*
X-239657949Y782122949D01*
X-239516947Y782238667D01*
X-239356079Y782324652D01*
X-239181529Y782377602D01*
X-239000000Y782395480D01*
X-238818472Y782377602D01*
X-238818472Y782377602D01*
G37*
G36*
X-286818472Y782377602D02*
G01*
X-286643926Y782324653D01*
X-286483050Y782238664D01*
X-286342051Y782122949D01*
X-286226333Y781981947D01*
X-286140348Y781821079D01*
X-286087398Y781646529D01*
X-286074000Y781510490D01*
X-286074000Y779669510D01*
X-286087398Y779533471D01*
X-286140348Y779358921D01*
X-286226333Y779198053D01*
X-286342051Y779057051D01*
X-286483053Y778941333D01*
X-286643921Y778855348D01*
X-286818471Y778802398D01*
X-287000000Y778784520D01*
X-287181528Y778802398D01*
X-287356078Y778855348D01*
X-287516946Y778941333D01*
X-287657948Y779057051D01*
X-287773666Y779198053D01*
X-287859651Y779358921D01*
X-287912601Y779533471D01*
X-287926000Y779669511D01*
X-287926000Y781510489D01*
X-287912602Y781646528D01*
X-287859653Y781821074D01*
X-287773664Y781981950D01*
X-287657949Y782122949D01*
X-287516947Y782238667D01*
X-287356079Y782324652D01*
X-287181529Y782377602D01*
X-287000000Y782395480D01*
X-286818472Y782377602D01*
X-286818472Y782377602D01*
G37*
G36*
X-236318472Y782377602D02*
G01*
X-236143926Y782324653D01*
X-235983050Y782238664D01*
X-235842051Y782122949D01*
X-235726333Y781981947D01*
X-235640348Y781821079D01*
X-235587398Y781646529D01*
X-235574000Y781510490D01*
X-235574000Y779669510D01*
X-235587398Y779533471D01*
X-235640348Y779358921D01*
X-235726333Y779198053D01*
X-235842051Y779057051D01*
X-235983053Y778941333D01*
X-236143921Y778855348D01*
X-236318471Y778802398D01*
X-236500000Y778784520D01*
X-236681528Y778802398D01*
X-236856078Y778855348D01*
X-237016946Y778941333D01*
X-237157948Y779057051D01*
X-237273666Y779198053D01*
X-237359651Y779358921D01*
X-237412601Y779533471D01*
X-237426000Y779669511D01*
X-237426000Y781510489D01*
X-237412602Y781646528D01*
X-237359653Y781821074D01*
X-237273664Y781981950D01*
X-237157949Y782122949D01*
X-237016947Y782238667D01*
X-236856079Y782324652D01*
X-236681529Y782377602D01*
X-236500000Y782395480D01*
X-236318472Y782377602D01*
X-236318472Y782377602D01*
G37*
G36*
X-259818472Y782377602D02*
G01*
X-259643926Y782324653D01*
X-259483050Y782238664D01*
X-259342051Y782122949D01*
X-259226333Y781981947D01*
X-259140348Y781821079D01*
X-259087398Y781646529D01*
X-259074000Y781510490D01*
X-259074000Y779669510D01*
X-259087398Y779533471D01*
X-259140348Y779358921D01*
X-259226333Y779198053D01*
X-259342051Y779057051D01*
X-259483053Y778941333D01*
X-259643921Y778855348D01*
X-259818471Y778802398D01*
X-260000000Y778784520D01*
X-260181528Y778802398D01*
X-260356078Y778855348D01*
X-260516946Y778941333D01*
X-260657948Y779057051D01*
X-260773666Y779198053D01*
X-260859651Y779358921D01*
X-260912601Y779533471D01*
X-260926000Y779669511D01*
X-260926000Y781510489D01*
X-260912602Y781646528D01*
X-260859653Y781821074D01*
X-260773664Y781981950D01*
X-260657949Y782122949D01*
X-260516947Y782238667D01*
X-260356079Y782324652D01*
X-260181529Y782377602D01*
X-260000000Y782395480D01*
X-259818472Y782377602D01*
X-259818472Y782377602D01*
G37*
G36*
X-284318472Y782377602D02*
G01*
X-284143926Y782324653D01*
X-283983050Y782238664D01*
X-283842051Y782122949D01*
X-283726333Y781981947D01*
X-283640348Y781821079D01*
X-283587398Y781646529D01*
X-283574000Y781510490D01*
X-283574000Y779669510D01*
X-283587398Y779533471D01*
X-283640348Y779358921D01*
X-283726333Y779198053D01*
X-283842051Y779057051D01*
X-283983053Y778941333D01*
X-284143921Y778855348D01*
X-284318471Y778802398D01*
X-284500000Y778784520D01*
X-284681528Y778802398D01*
X-284856078Y778855348D01*
X-285016946Y778941333D01*
X-285157948Y779057051D01*
X-285273666Y779198053D01*
X-285359651Y779358921D01*
X-285412601Y779533471D01*
X-285426000Y779669511D01*
X-285426000Y781510489D01*
X-285412602Y781646528D01*
X-285359653Y781821074D01*
X-285273664Y781981950D01*
X-285157949Y782122949D01*
X-285016947Y782238667D01*
X-284856079Y782324652D01*
X-284681529Y782377602D01*
X-284500000Y782395480D01*
X-284318472Y782377602D01*
X-284318472Y782377602D01*
G37*
G36*
X-279318472Y782377602D02*
G01*
X-279143926Y782324653D01*
X-278983050Y782238664D01*
X-278842051Y782122949D01*
X-278726333Y781981947D01*
X-278640348Y781821079D01*
X-278587398Y781646529D01*
X-278574000Y781510490D01*
X-278574000Y779669510D01*
X-278587398Y779533471D01*
X-278640348Y779358921D01*
X-278726333Y779198053D01*
X-278842051Y779057051D01*
X-278983053Y778941333D01*
X-279143921Y778855348D01*
X-279318471Y778802398D01*
X-279500000Y778784520D01*
X-279681528Y778802398D01*
X-279856078Y778855348D01*
X-280016946Y778941333D01*
X-280157948Y779057051D01*
X-280273666Y779198053D01*
X-280359651Y779358921D01*
X-280412601Y779533471D01*
X-280426000Y779669511D01*
X-280426000Y781510489D01*
X-280412602Y781646528D01*
X-280359653Y781821074D01*
X-280273664Y781981950D01*
X-280157949Y782122949D01*
X-280016947Y782238667D01*
X-279856079Y782324652D01*
X-279681529Y782377602D01*
X-279500000Y782395480D01*
X-279318472Y782377602D01*
X-279318472Y782377602D01*
G37*
G36*
X-276818472Y782377602D02*
G01*
X-276643926Y782324653D01*
X-276483050Y782238664D01*
X-276342051Y782122949D01*
X-276226333Y781981947D01*
X-276140348Y781821079D01*
X-276087398Y781646529D01*
X-276074000Y781510490D01*
X-276074000Y779669510D01*
X-276087398Y779533471D01*
X-276140348Y779358921D01*
X-276226333Y779198053D01*
X-276342051Y779057051D01*
X-276483053Y778941333D01*
X-276643921Y778855348D01*
X-276818471Y778802398D01*
X-277000000Y778784520D01*
X-277181528Y778802398D01*
X-277356078Y778855348D01*
X-277516946Y778941333D01*
X-277657948Y779057051D01*
X-277773666Y779198053D01*
X-277859651Y779358921D01*
X-277912601Y779533471D01*
X-277926000Y779669511D01*
X-277926000Y781510489D01*
X-277912602Y781646528D01*
X-277859653Y781821074D01*
X-277773664Y781981950D01*
X-277657949Y782122949D01*
X-277516947Y782238667D01*
X-277356079Y782324652D01*
X-277181529Y782377602D01*
X-277000000Y782395480D01*
X-276818472Y782377602D01*
X-276818472Y782377602D01*
G37*
G36*
X-257318472Y782377602D02*
G01*
X-257143926Y782324653D01*
X-256983050Y782238664D01*
X-256842051Y782122949D01*
X-256726333Y781981947D01*
X-256640348Y781821079D01*
X-256587398Y781646529D01*
X-256574000Y781510490D01*
X-256574000Y779669510D01*
X-256587398Y779533471D01*
X-256640348Y779358921D01*
X-256726333Y779198053D01*
X-256842051Y779057051D01*
X-256983053Y778941333D01*
X-257143921Y778855348D01*
X-257318471Y778802398D01*
X-257500000Y778784520D01*
X-257681528Y778802398D01*
X-257856078Y778855348D01*
X-258016946Y778941333D01*
X-258157948Y779057051D01*
X-258273666Y779198053D01*
X-258359651Y779358921D01*
X-258412601Y779533471D01*
X-258426000Y779669511D01*
X-258426000Y781510489D01*
X-258412602Y781646528D01*
X-258359653Y781821074D01*
X-258273664Y781981950D01*
X-258157949Y782122949D01*
X-258016947Y782238667D01*
X-257856079Y782324652D01*
X-257681529Y782377602D01*
X-257500000Y782395480D01*
X-257318472Y782377602D01*
X-257318472Y782377602D01*
G37*
G36*
X-267318472Y782377602D02*
G01*
X-267143926Y782324653D01*
X-266983050Y782238664D01*
X-266842051Y782122949D01*
X-266726333Y781981947D01*
X-266640348Y781821079D01*
X-266587398Y781646529D01*
X-266574000Y781510490D01*
X-266574000Y779669510D01*
X-266587398Y779533471D01*
X-266640348Y779358921D01*
X-266726333Y779198053D01*
X-266842051Y779057051D01*
X-266983053Y778941333D01*
X-267143921Y778855348D01*
X-267318471Y778802398D01*
X-267500000Y778784520D01*
X-267681528Y778802398D01*
X-267856078Y778855348D01*
X-268016946Y778941333D01*
X-268157948Y779057051D01*
X-268273666Y779198053D01*
X-268359651Y779358921D01*
X-268412601Y779533471D01*
X-268426000Y779669511D01*
X-268426000Y781510489D01*
X-268412602Y781646528D01*
X-268359653Y781821074D01*
X-268273664Y781981950D01*
X-268157949Y782122949D01*
X-268016947Y782238667D01*
X-267856079Y782324652D01*
X-267681529Y782377602D01*
X-267500000Y782395480D01*
X-267318472Y782377602D01*
X-267318472Y782377602D01*
G37*
G36*
X-246318472Y782377602D02*
G01*
X-246143926Y782324653D01*
X-245983050Y782238664D01*
X-245842051Y782122949D01*
X-245726333Y781981947D01*
X-245640348Y781821079D01*
X-245587398Y781646529D01*
X-245574000Y781510490D01*
X-245574000Y779669510D01*
X-245587398Y779533471D01*
X-245640348Y779358921D01*
X-245726333Y779198053D01*
X-245842051Y779057051D01*
X-245983053Y778941333D01*
X-246143921Y778855348D01*
X-246318471Y778802398D01*
X-246500000Y778784520D01*
X-246681528Y778802398D01*
X-246856078Y778855348D01*
X-247016946Y778941333D01*
X-247157948Y779057051D01*
X-247273666Y779198053D01*
X-247359651Y779358921D01*
X-247412601Y779533471D01*
X-247426000Y779669511D01*
X-247426000Y781510489D01*
X-247412602Y781646528D01*
X-247359653Y781821074D01*
X-247273664Y781981950D01*
X-247157949Y782122949D01*
X-247016947Y782238667D01*
X-246856079Y782324652D01*
X-246681529Y782377602D01*
X-246500000Y782395480D01*
X-246318472Y782377602D01*
X-246318472Y782377602D01*
G37*
G36*
X-212431772Y781568297D02*
G01*
X-212276900Y781504147D01*
X-212137519Y781411015D01*
X-212018985Y781292481D01*
X-211925853Y781153100D01*
X-211861703Y780998228D01*
X-211829000Y780833816D01*
X-211829000Y780666184D01*
X-211861703Y780501772D01*
X-211925853Y780346900D01*
X-212018985Y780207519D01*
X-212137519Y780088985D01*
X-212276900Y779995853D01*
X-212431772Y779931703D01*
X-212596184Y779899000D01*
X-212763816Y779899000D01*
X-212928228Y779931703D01*
X-213083100Y779995853D01*
X-213222481Y780088985D01*
X-213341015Y780207519D01*
X-213434147Y780346900D01*
X-213498297Y780501772D01*
X-213531000Y780666184D01*
X-213531000Y780833816D01*
X-213498297Y780998228D01*
X-213434147Y781153100D01*
X-213341015Y781292481D01*
X-213222481Y781411015D01*
X-213083100Y781504147D01*
X-212928228Y781568297D01*
X-212763816Y781601000D01*
X-212596184Y781601000D01*
X-212431772Y781568297D01*
X-212431772Y781568297D01*
G37*
G36*
X-227671772Y781568297D02*
G01*
X-227516900Y781504147D01*
X-227377519Y781411015D01*
X-227258985Y781292481D01*
X-227165853Y781153100D01*
X-227101703Y780998228D01*
X-227069000Y780833816D01*
X-227069000Y780666184D01*
X-227101703Y780501772D01*
X-227165853Y780346900D01*
X-227258985Y780207519D01*
X-227377519Y780088985D01*
X-227516900Y779995853D01*
X-227671772Y779931703D01*
X-227836184Y779899000D01*
X-228003816Y779899000D01*
X-228168228Y779931703D01*
X-228323100Y779995853D01*
X-228462481Y780088985D01*
X-228581015Y780207519D01*
X-228674147Y780346900D01*
X-228738297Y780501772D01*
X-228771000Y780666184D01*
X-228771000Y780833816D01*
X-228738297Y780998228D01*
X-228674147Y781153100D01*
X-228581015Y781292481D01*
X-228462481Y781411015D01*
X-228323100Y781504147D01*
X-228168228Y781568297D01*
X-228003816Y781601000D01*
X-227836184Y781601000D01*
X-227671772Y781568297D01*
X-227671772Y781568297D01*
G37*
G36*
X-227671772Y784108297D02*
G01*
X-227516900Y784044147D01*
X-227377519Y783951015D01*
X-227258985Y783832481D01*
X-227165853Y783693100D01*
X-227101703Y783538228D01*
X-227069000Y783373816D01*
X-227069000Y783206184D01*
X-227101703Y783041772D01*
X-227165853Y782886900D01*
X-227258985Y782747519D01*
X-227377519Y782628985D01*
X-227516900Y782535853D01*
X-227671772Y782471703D01*
X-227836184Y782439000D01*
X-228003816Y782439000D01*
X-228168228Y782471703D01*
X-228323100Y782535853D01*
X-228462481Y782628985D01*
X-228581015Y782747519D01*
X-228674147Y782886900D01*
X-228738297Y783041772D01*
X-228771000Y783206184D01*
X-228771000Y783373816D01*
X-228738297Y783538228D01*
X-228674147Y783693100D01*
X-228581015Y783832481D01*
X-228462481Y783951015D01*
X-228323100Y784044147D01*
X-228168228Y784108297D01*
X-228003816Y784141000D01*
X-227836184Y784141000D01*
X-227671772Y784108297D01*
X-227671772Y784108297D01*
G37*
G36*
X-212431772Y784108297D02*
G01*
X-212276900Y784044147D01*
X-212137519Y783951015D01*
X-212018985Y783832481D01*
X-211925853Y783693100D01*
X-211861703Y783538228D01*
X-211829000Y783373816D01*
X-211829000Y783206184D01*
X-211861703Y783041772D01*
X-211925853Y782886900D01*
X-212018985Y782747519D01*
X-212137519Y782628985D01*
X-212276900Y782535853D01*
X-212431772Y782471703D01*
X-212596184Y782439000D01*
X-212763816Y782439000D01*
X-212928228Y782471703D01*
X-213083100Y782535853D01*
X-213222481Y782628985D01*
X-213341015Y782747519D01*
X-213434147Y782886900D01*
X-213498297Y783041772D01*
X-213531000Y783206184D01*
X-213531000Y783373816D01*
X-213498297Y783538228D01*
X-213434147Y783693100D01*
X-213341015Y783832481D01*
X-213222481Y783951015D01*
X-213083100Y784044147D01*
X-212928228Y784108297D01*
X-212763816Y784141000D01*
X-212596184Y784141000D01*
X-212431772Y784108297D01*
X-212431772Y784108297D01*
G37*
G36*
X-239699000Y784295000D02*
G01*
X-243301000Y784295000D01*
X-243301000Y786897000D01*
X-239699000Y786897000D01*
X-239699000Y784295000D01*
X-239699000Y784295000D01*
G37*
G36*
X-280199000Y784295000D02*
G01*
X-283801000Y784295000D01*
X-283801000Y786897000D01*
X-280199000Y786897000D01*
X-280199000Y784295000D01*
X-280199000Y784295000D01*
G37*
G36*
X-260699000Y784295000D02*
G01*
X-264301000Y784295000D01*
X-264301000Y786897000D01*
X-260699000Y786897000D01*
X-260699000Y784295000D01*
X-260699000Y784295000D01*
G37*
G36*
X-227671772Y786648297D02*
G01*
X-227516900Y786584147D01*
X-227377519Y786491015D01*
X-227258985Y786372481D01*
X-227165853Y786233100D01*
X-227101703Y786078228D01*
X-227069000Y785913816D01*
X-227069000Y785746184D01*
X-227101703Y785581772D01*
X-227165853Y785426900D01*
X-227258985Y785287519D01*
X-227377519Y785168985D01*
X-227516900Y785075853D01*
X-227671772Y785011703D01*
X-227836184Y784979000D01*
X-228003816Y784979000D01*
X-228168228Y785011703D01*
X-228323100Y785075853D01*
X-228462481Y785168985D01*
X-228581015Y785287519D01*
X-228674147Y785426900D01*
X-228738297Y785581772D01*
X-228771000Y785746184D01*
X-228771000Y785913816D01*
X-228738297Y786078228D01*
X-228674147Y786233100D01*
X-228581015Y786372481D01*
X-228462481Y786491015D01*
X-228323100Y786584147D01*
X-228168228Y786648297D01*
X-228003816Y786681000D01*
X-227836184Y786681000D01*
X-227671772Y786648297D01*
X-227671772Y786648297D01*
G37*
G36*
X-212431772Y786648297D02*
G01*
X-212276900Y786584147D01*
X-212137519Y786491015D01*
X-212018985Y786372481D01*
X-211925853Y786233100D01*
X-211861703Y786078228D01*
X-211829000Y785913816D01*
X-211829000Y785746184D01*
X-211861703Y785581772D01*
X-211925853Y785426900D01*
X-212018985Y785287519D01*
X-212137519Y785168985D01*
X-212276900Y785075853D01*
X-212431772Y785011703D01*
X-212596184Y784979000D01*
X-212763816Y784979000D01*
X-212928228Y785011703D01*
X-213083100Y785075853D01*
X-213222481Y785168985D01*
X-213341015Y785287519D01*
X-213434147Y785426900D01*
X-213498297Y785581772D01*
X-213531000Y785746184D01*
X-213531000Y785913816D01*
X-213498297Y786078228D01*
X-213434147Y786233100D01*
X-213341015Y786372481D01*
X-213222481Y786491015D01*
X-213083100Y786584147D01*
X-212928228Y786648297D01*
X-212763816Y786681000D01*
X-212596184Y786681000D01*
X-212431772Y786648297D01*
X-212431772Y786648297D01*
G37*
G36*
X-267193436Y788510611D02*
G01*
X-267002167Y788431385D01*
X-267002165Y788431384D01*
X-266830027Y788316365D01*
X-266683635Y788169973D01*
X-266651427Y788121771D01*
X-266568615Y787997833D01*
X-266489389Y787806564D01*
X-266449000Y787603516D01*
X-266449000Y787396484D01*
X-266489389Y787193436D01*
X-266502395Y787162037D01*
X-266568616Y787002165D01*
X-266683635Y786830027D01*
X-266830027Y786683635D01*
X-267002165Y786568616D01*
X-267002166Y786568615D01*
X-267002167Y786568615D01*
X-267193436Y786489389D01*
X-267396484Y786449000D01*
X-267603516Y786449000D01*
X-267806564Y786489389D01*
X-267997833Y786568615D01*
X-267997834Y786568615D01*
X-267997835Y786568616D01*
X-268169973Y786683635D01*
X-268316365Y786830027D01*
X-268431384Y787002165D01*
X-268497605Y787162037D01*
X-268510611Y787193436D01*
X-268551000Y787396484D01*
X-268551000Y787603516D01*
X-268510611Y787806564D01*
X-268431385Y787997833D01*
X-268348572Y788121771D01*
X-268316365Y788169973D01*
X-268169973Y788316365D01*
X-267997835Y788431384D01*
X-267997833Y788431385D01*
X-267806564Y788510611D01*
X-267603516Y788551000D01*
X-267396484Y788551000D01*
X-267193436Y788510611D01*
X-267193436Y788510611D01*
G37*
G36*
X-246193436Y788510611D02*
G01*
X-246002167Y788431385D01*
X-246002165Y788431384D01*
X-245830027Y788316365D01*
X-245683635Y788169973D01*
X-245651427Y788121771D01*
X-245568615Y787997833D01*
X-245489389Y787806564D01*
X-245449000Y787603516D01*
X-245449000Y787396484D01*
X-245489389Y787193436D01*
X-245502395Y787162037D01*
X-245568616Y787002165D01*
X-245683635Y786830027D01*
X-245830027Y786683635D01*
X-246002165Y786568616D01*
X-246002166Y786568615D01*
X-246002167Y786568615D01*
X-246193436Y786489389D01*
X-246396484Y786449000D01*
X-246603516Y786449000D01*
X-246806564Y786489389D01*
X-246997833Y786568615D01*
X-246997834Y786568615D01*
X-246997835Y786568616D01*
X-247169973Y786683635D01*
X-247316365Y786830027D01*
X-247431384Y787002165D01*
X-247497605Y787162037D01*
X-247510611Y787193436D01*
X-247551000Y787396484D01*
X-247551000Y787603516D01*
X-247510611Y787806564D01*
X-247431385Y787997833D01*
X-247348572Y788121771D01*
X-247316365Y788169973D01*
X-247169973Y788316365D01*
X-246997835Y788431384D01*
X-246997833Y788431385D01*
X-246806564Y788510611D01*
X-246603516Y788551000D01*
X-246396484Y788551000D01*
X-246193436Y788510611D01*
X-246193436Y788510611D01*
G37*
G36*
X-236193436Y788510611D02*
G01*
X-236002167Y788431385D01*
X-236002165Y788431384D01*
X-235830027Y788316365D01*
X-235683635Y788169973D01*
X-235651427Y788121771D01*
X-235568615Y787997833D01*
X-235489389Y787806564D01*
X-235449000Y787603516D01*
X-235449000Y787396484D01*
X-235489389Y787193436D01*
X-235502395Y787162037D01*
X-235568616Y787002165D01*
X-235683635Y786830027D01*
X-235830027Y786683635D01*
X-236002165Y786568616D01*
X-236002166Y786568615D01*
X-236002167Y786568615D01*
X-236193436Y786489389D01*
X-236396484Y786449000D01*
X-236603516Y786449000D01*
X-236806564Y786489389D01*
X-236997833Y786568615D01*
X-236997834Y786568615D01*
X-236997835Y786568616D01*
X-237169973Y786683635D01*
X-237316365Y786830027D01*
X-237431384Y787002165D01*
X-237497605Y787162037D01*
X-237510611Y787193436D01*
X-237551000Y787396484D01*
X-237551000Y787603516D01*
X-237510611Y787806564D01*
X-237431385Y787997833D01*
X-237348572Y788121771D01*
X-237316365Y788169973D01*
X-237169973Y788316365D01*
X-236997835Y788431384D01*
X-236997833Y788431385D01*
X-236806564Y788510611D01*
X-236603516Y788551000D01*
X-236396484Y788551000D01*
X-236193436Y788510611D01*
X-236193436Y788510611D01*
G37*
G36*
X-257193436Y788510611D02*
G01*
X-257002167Y788431385D01*
X-257002165Y788431384D01*
X-256830027Y788316365D01*
X-256683635Y788169973D01*
X-256651427Y788121771D01*
X-256568615Y787997833D01*
X-256489389Y787806564D01*
X-256449000Y787603516D01*
X-256449000Y787396484D01*
X-256489389Y787193436D01*
X-256502395Y787162037D01*
X-256568616Y787002165D01*
X-256683635Y786830027D01*
X-256830027Y786683635D01*
X-257002165Y786568616D01*
X-257002166Y786568615D01*
X-257002167Y786568615D01*
X-257193436Y786489389D01*
X-257396484Y786449000D01*
X-257603516Y786449000D01*
X-257806564Y786489389D01*
X-257997833Y786568615D01*
X-257997834Y786568615D01*
X-257997835Y786568616D01*
X-258169973Y786683635D01*
X-258316365Y786830027D01*
X-258431384Y787002165D01*
X-258497605Y787162037D01*
X-258510611Y787193436D01*
X-258551000Y787396484D01*
X-258551000Y787603516D01*
X-258510611Y787806564D01*
X-258431385Y787997833D01*
X-258348572Y788121771D01*
X-258316365Y788169973D01*
X-258169973Y788316365D01*
X-257997835Y788431384D01*
X-257997833Y788431385D01*
X-257806564Y788510611D01*
X-257603516Y788551000D01*
X-257396484Y788551000D01*
X-257193436Y788510611D01*
X-257193436Y788510611D01*
G37*
G36*
X-203699000Y787149000D02*
G01*
X-205501000Y787149000D01*
X-205501000Y788951000D01*
X-203699000Y788951000D01*
X-203699000Y787149000D01*
X-203699000Y787149000D01*
G37*
G36*
X-201949557Y788944481D02*
G01*
X-201883373Y788937963D01*
X-201713534Y788886443D01*
X-201557009Y788802778D01*
X-201521271Y788773448D01*
X-201419814Y788690186D01*
X-201336552Y788588729D01*
X-201307222Y788552991D01*
X-201223557Y788396466D01*
X-201172037Y788226627D01*
X-201154641Y788050000D01*
X-201172037Y787873373D01*
X-201223557Y787703534D01*
X-201307222Y787547009D01*
X-201330209Y787519000D01*
X-201419814Y787409814D01*
X-201521271Y787326552D01*
X-201557009Y787297222D01*
X-201713534Y787213557D01*
X-201883373Y787162037D01*
X-201949557Y787155519D01*
X-202015740Y787149000D01*
X-202104260Y787149000D01*
X-202170443Y787155519D01*
X-202236627Y787162037D01*
X-202406466Y787213557D01*
X-202562991Y787297222D01*
X-202598729Y787326552D01*
X-202700186Y787409814D01*
X-202789791Y787519000D01*
X-202812778Y787547009D01*
X-202896443Y787703534D01*
X-202947963Y787873373D01*
X-202965359Y788050000D01*
X-202947963Y788226627D01*
X-202896443Y788396466D01*
X-202812778Y788552991D01*
X-202783448Y788588729D01*
X-202700186Y788690186D01*
X-202598729Y788773448D01*
X-202562991Y788802778D01*
X-202406466Y788886443D01*
X-202236627Y788937963D01*
X-202170443Y788944481D01*
X-202104260Y788951000D01*
X-202015740Y788951000D01*
X-201949557Y788944481D01*
X-201949557Y788944481D01*
G37*
G36*
X-199409557Y788944481D02*
G01*
X-199343373Y788937963D01*
X-199173534Y788886443D01*
X-199017009Y788802778D01*
X-198981271Y788773448D01*
X-198879814Y788690186D01*
X-198796552Y788588729D01*
X-198767222Y788552991D01*
X-198683557Y788396466D01*
X-198632037Y788226627D01*
X-198614641Y788050000D01*
X-198632037Y787873373D01*
X-198683557Y787703534D01*
X-198767222Y787547009D01*
X-198790209Y787519000D01*
X-198879814Y787409814D01*
X-198981271Y787326552D01*
X-199017009Y787297222D01*
X-199173534Y787213557D01*
X-199343373Y787162037D01*
X-199409557Y787155519D01*
X-199475740Y787149000D01*
X-199564260Y787149000D01*
X-199630443Y787155519D01*
X-199696627Y787162037D01*
X-199866466Y787213557D01*
X-200022991Y787297222D01*
X-200058729Y787326552D01*
X-200160186Y787409814D01*
X-200249791Y787519000D01*
X-200272778Y787547009D01*
X-200356443Y787703534D01*
X-200407963Y787873373D01*
X-200425359Y788050000D01*
X-200407963Y788226627D01*
X-200356443Y788396466D01*
X-200272778Y788552991D01*
X-200243448Y788588729D01*
X-200160186Y788690186D01*
X-200058729Y788773448D01*
X-200022991Y788802778D01*
X-199866466Y788886443D01*
X-199696627Y788937963D01*
X-199630443Y788944481D01*
X-199564260Y788951000D01*
X-199475740Y788951000D01*
X-199409557Y788944481D01*
X-199409557Y788944481D01*
G37*
G36*
X-196869557Y788944481D02*
G01*
X-196803373Y788937963D01*
X-196633534Y788886443D01*
X-196477009Y788802778D01*
X-196441271Y788773448D01*
X-196339814Y788690186D01*
X-196256552Y788588729D01*
X-196227222Y788552991D01*
X-196143557Y788396466D01*
X-196092037Y788226627D01*
X-196074641Y788050000D01*
X-196092037Y787873373D01*
X-196143557Y787703534D01*
X-196227222Y787547009D01*
X-196250209Y787519000D01*
X-196339814Y787409814D01*
X-196441271Y787326552D01*
X-196477009Y787297222D01*
X-196633534Y787213557D01*
X-196803373Y787162037D01*
X-196869557Y787155519D01*
X-196935740Y787149000D01*
X-197024260Y787149000D01*
X-197090443Y787155519D01*
X-197156627Y787162037D01*
X-197326466Y787213557D01*
X-197482991Y787297222D01*
X-197518729Y787326552D01*
X-197620186Y787409814D01*
X-197709791Y787519000D01*
X-197732778Y787547009D01*
X-197816443Y787703534D01*
X-197867963Y787873373D01*
X-197885359Y788050000D01*
X-197867963Y788226627D01*
X-197816443Y788396466D01*
X-197732778Y788552991D01*
X-197703448Y788588729D01*
X-197620186Y788690186D01*
X-197518729Y788773448D01*
X-197482991Y788802778D01*
X-197326466Y788886443D01*
X-197156627Y788937963D01*
X-197090443Y788944481D01*
X-197024260Y788951000D01*
X-196935740Y788951000D01*
X-196869557Y788944481D01*
X-196869557Y788944481D01*
G37*
G36*
X-194329557Y788944481D02*
G01*
X-194263373Y788937963D01*
X-194093534Y788886443D01*
X-193937009Y788802778D01*
X-193901271Y788773448D01*
X-193799814Y788690186D01*
X-193716552Y788588729D01*
X-193687222Y788552991D01*
X-193603557Y788396466D01*
X-193552037Y788226627D01*
X-193534641Y788050000D01*
X-193552037Y787873373D01*
X-193603557Y787703534D01*
X-193687222Y787547009D01*
X-193710209Y787519000D01*
X-193799814Y787409814D01*
X-193901271Y787326552D01*
X-193937009Y787297222D01*
X-194093534Y787213557D01*
X-194263373Y787162037D01*
X-194329557Y787155519D01*
X-194395740Y787149000D01*
X-194484260Y787149000D01*
X-194550443Y787155519D01*
X-194616627Y787162037D01*
X-194786466Y787213557D01*
X-194942991Y787297222D01*
X-194978729Y787326552D01*
X-195080186Y787409814D01*
X-195169791Y787519000D01*
X-195192778Y787547009D01*
X-195276443Y787703534D01*
X-195327963Y787873373D01*
X-195345359Y788050000D01*
X-195327963Y788226627D01*
X-195276443Y788396466D01*
X-195192778Y788552991D01*
X-195163448Y788588729D01*
X-195080186Y788690186D01*
X-194978729Y788773448D01*
X-194942991Y788802778D01*
X-194786466Y788886443D01*
X-194616627Y788937963D01*
X-194550443Y788944481D01*
X-194484260Y788951000D01*
X-194395740Y788951000D01*
X-194329557Y788944481D01*
X-194329557Y788944481D01*
G37*
G36*
X-191789557Y788944481D02*
G01*
X-191723373Y788937963D01*
X-191553534Y788886443D01*
X-191397009Y788802778D01*
X-191361271Y788773448D01*
X-191259814Y788690186D01*
X-191176552Y788588729D01*
X-191147222Y788552991D01*
X-191063557Y788396466D01*
X-191012037Y788226627D01*
X-190994641Y788050000D01*
X-191012037Y787873373D01*
X-191063557Y787703534D01*
X-191147222Y787547009D01*
X-191170209Y787519000D01*
X-191259814Y787409814D01*
X-191361271Y787326552D01*
X-191397009Y787297222D01*
X-191553534Y787213557D01*
X-191723373Y787162037D01*
X-191789557Y787155519D01*
X-191855740Y787149000D01*
X-191944260Y787149000D01*
X-192010443Y787155519D01*
X-192076627Y787162037D01*
X-192246466Y787213557D01*
X-192402991Y787297222D01*
X-192438729Y787326552D01*
X-192540186Y787409814D01*
X-192629791Y787519000D01*
X-192652778Y787547009D01*
X-192736443Y787703534D01*
X-192787963Y787873373D01*
X-192805359Y788050000D01*
X-192787963Y788226627D01*
X-192736443Y788396466D01*
X-192652778Y788552991D01*
X-192623448Y788588729D01*
X-192540186Y788690186D01*
X-192438729Y788773448D01*
X-192402991Y788802778D01*
X-192246466Y788886443D01*
X-192076627Y788937963D01*
X-192010443Y788944481D01*
X-191944260Y788951000D01*
X-191855740Y788951000D01*
X-191789557Y788944481D01*
X-191789557Y788944481D01*
G37*
G36*
X-212431772Y789188297D02*
G01*
X-212276900Y789124147D01*
X-212137519Y789031015D01*
X-212018985Y788912481D01*
X-211925853Y788773100D01*
X-211861703Y788618228D01*
X-211829000Y788453816D01*
X-211829000Y788286184D01*
X-211861703Y788121772D01*
X-211925853Y787966900D01*
X-212018985Y787827519D01*
X-212137519Y787708985D01*
X-212276900Y787615853D01*
X-212431772Y787551703D01*
X-212596184Y787519000D01*
X-212763816Y787519000D01*
X-212928228Y787551703D01*
X-213083100Y787615853D01*
X-213222481Y787708985D01*
X-213341015Y787827519D01*
X-213434147Y787966900D01*
X-213498297Y788121772D01*
X-213531000Y788286184D01*
X-213531000Y788453816D01*
X-213498297Y788618228D01*
X-213434147Y788773100D01*
X-213341015Y788912481D01*
X-213222481Y789031015D01*
X-213083100Y789124147D01*
X-212928228Y789188297D01*
X-212763816Y789221000D01*
X-212596184Y789221000D01*
X-212431772Y789188297D01*
X-212431772Y789188297D01*
G37*
G36*
X-227069000Y787519000D02*
G01*
X-228771000Y787519000D01*
X-228771000Y789221000D01*
X-227069000Y789221000D01*
X-227069000Y787519000D01*
X-227069000Y787519000D01*
G37*
M02*
