M48
; DRILL file {KiCad (5.1.4-0-10_14)} date 2021 June 29, Tuesday 13:44:31
; FORMAT={-:-/ absolute / metric / decimal}
; #@! TF.CreationDate,2021-06-29T13:44:31+12:00
; #@! TF.GenerationSoftware,Kicad,Pcbnew,(5.1.4-0-10_14)
; #@! TF.FileFunction,Plated,1,2,PTH
FMAT,2
METRIC
T1C0.750
T2C0.800
T3C1.000
T4C1.100
T5C1.200
T6C1.500
T7C3.200
%
G90
G05
T1
X-207.5Y747.5
X-206.23Y748.77
X-204.96Y747.5
T2
X-263.96Y762.5
X-261.42Y762.5
X-258.88Y770.12
X-258.88Y762.5
X-256.34Y770.12
X-256.34Y762.5
X-253.8Y770.12
X-251.26Y770.12
X-255.08Y757.0
X-250.0Y757.0
X-243.5Y769.08
X-243.5Y764.0
X-255.08Y753.5
X-250.0Y753.5
X-266.5Y770.12
X-263.96Y770.12
X-261.42Y770.12
X-253.8Y762.5
X-251.26Y762.5
X-288.0Y770.12
X-288.0Y762.5
X-285.46Y770.12
X-285.46Y762.5
X-282.92Y770.12
X-282.92Y762.5
X-266.5Y762.5
X-240.0Y768.5
X-270.22Y770.12
X-240.0Y765.96
X-272.76Y770.12
X-280.38Y770.12
X-280.38Y762.5
X-277.84Y770.12
X-277.84Y762.5
X-275.3Y770.12
X-275.3Y762.5
X-272.76Y762.5
X-270.22Y762.5
X-240.0Y763.42
X-240.0Y760.88
X-232.38Y768.5
X-232.38Y765.96
X-232.38Y763.42
X-232.38Y760.88
X-227.0Y755.0
X-259.5Y759.0
X-224.5Y755.0
X-237.58Y756.5
X-232.5Y756.5
X-287.5Y759.0
X-282.5Y759.0
X-272.0Y759.0
X-267.0Y759.0
X-264.5Y759.0
X-280.0Y759.0
X-275.0Y759.0
T3
X-220.5Y757.0
X-215.42Y757.0
X-204.6Y788.05
X-202.06Y788.05
X-199.52Y788.05
X-196.98Y788.05
X-194.44Y788.05
X-191.9Y788.05
X-247.5Y769.08
X-247.5Y764.0
X-229.78Y749.5
X-229.78Y746.96
X-227.24Y749.5
X-227.24Y746.96
X-224.7Y749.5
X-224.7Y746.96
X-222.16Y749.5
X-222.16Y746.96
X-219.62Y749.5
X-219.62Y746.96
X-217.08Y749.5
X-217.08Y746.96
X-214.54Y749.5
X-214.54Y746.96
X-212.0Y749.5
X-212.0Y746.96
T4
X-207.52Y779.47
X-207.52Y776.93
X-207.52Y774.39
X-207.52Y771.85
X-207.52Y769.31
X-207.52Y766.77
X-207.52Y764.23
X-207.52Y761.69
X-207.52Y759.15
X-207.52Y756.61
X-207.52Y754.07
X-207.52Y751.53
X-194.82Y779.47
X-192.28Y779.47
X-192.28Y776.93
X-192.28Y774.39
X-192.28Y771.85
X-192.28Y769.31
X-192.28Y766.77
X-192.28Y764.23
X-192.28Y761.69
X-192.28Y759.15
X-192.28Y756.61
X-192.28Y754.07
X-192.28Y751.53
X-227.92Y788.37
X-227.92Y785.83
X-227.92Y783.29
X-227.92Y780.75
X-227.92Y778.21
X-227.92Y775.67
X-227.92Y773.13
X-227.92Y770.59
X-227.92Y768.05
X-227.92Y765.51
X-227.92Y762.97
X-227.92Y760.43
X-212.68Y788.37
X-212.68Y785.83
X-212.68Y783.29
X-212.68Y780.75
X-212.68Y778.21
X-212.68Y775.67
X-212.68Y773.13
X-212.68Y770.59
X-212.68Y768.05
X-212.68Y765.51
X-212.68Y762.97
X-212.68Y760.43
T5
X-246.5Y780.59
X-244.0Y780.59
X-241.5Y785.596
X-236.5Y780.59
X-267.5Y780.59
X-265.0Y780.59
X-262.5Y785.596
X-260.0Y780.59
X-257.5Y780.59
X-239.0Y780.59
X-287.0Y780.59
X-284.5Y780.59
X-282.0Y785.596
X-279.5Y780.59
X-277.0Y780.59
T6
X-249.0Y778.0
X-246.5Y787.5
X-246.5Y775.5
X-241.5Y778.0
X-236.5Y787.5
X-236.5Y775.5
X-234.0Y778.0
X-270.0Y778.0
X-267.5Y787.5
X-267.5Y775.5
X-262.5Y778.0
X-257.5Y787.5
X-257.5Y775.5
X-255.0Y778.0
X-279.0Y752.05
X-277.615Y749.21
X-276.23Y752.05
X-274.845Y749.21
X-273.46Y752.05
X-272.075Y749.21
X-270.69Y752.05
X-269.305Y749.21
X-267.92Y752.05
T7
X-285.96Y750.63
X-260.96Y750.63
T0
M30
