G04 #@! TF.GenerationSoftware,KiCad,Pcbnew,(5.1.4-0-10_14)*
G04 #@! TF.CreationDate,2021-06-29T13:44:29+12:00*
G04 #@! TF.ProjectId,transcribe_circuit,7472616e-7363-4726-9962-655f63697263,rev?*
G04 #@! TF.SameCoordinates,Original*
G04 #@! TF.FileFunction,Legend,Bot*
G04 #@! TF.FilePolarity,Positive*
%FSLAX46Y46*%
G04 Gerber Fmt 4.6, Leading zero omitted, Abs format (unit mm)*
G04 Created by KiCad (PCBNEW (5.1.4-0-10_14)) date 2021-06-29 13:44:29*
%MOMM*%
%LPD*%
G04 APERTURE LIST*
%ADD10C,0.600000*%
%ADD11C,0.300000*%
%ADD12C,0.150000*%
%ADD13C,0.120000*%
G04 APERTURE END LIST*
D10*
X-197661904Y774600000D02*
X-197661904Y770790476D01*
X-202661904Y770314285D02*
X-203376190Y769361904D01*
X-202661904Y768409523D01*
X-203138095Y761980952D02*
X-203138095Y761504761D01*
X-202900000Y761028571D01*
X-202661904Y760790476D01*
X-202185714Y760552380D01*
X-201233333Y760314285D01*
X-200042857Y760314285D01*
X-199090476Y760552380D01*
X-198614285Y760790476D01*
X-198376190Y761028571D01*
X-198138095Y761504761D01*
X-198138095Y761980952D01*
X-198376190Y762457142D01*
X-198614285Y762695238D01*
X-199090476Y762933333D01*
X-200042857Y763171428D01*
X-201233333Y763171428D01*
X-202185714Y762933333D01*
X-202661904Y762695238D01*
X-202900000Y762457142D01*
X-203138095Y761980952D01*
X-203138095Y758647619D02*
X-203138095Y755552380D01*
X-201233333Y757219047D01*
X-201233333Y756504761D01*
X-200995238Y756028571D01*
X-200757142Y755790476D01*
X-200280952Y755552380D01*
X-199090476Y755552380D01*
X-198614285Y755790476D01*
X-198376190Y756028571D01*
X-198138095Y756504761D01*
X-198138095Y757933333D01*
X-198376190Y758409523D01*
X-198614285Y758647619D01*
D11*
X-195221428Y773885714D02*
X-194221428Y773885714D01*
X-195221428Y774528571D02*
X-194435714Y774528571D01*
X-194292857Y774457142D01*
X-194221428Y774314285D01*
X-194221428Y774100000D01*
X-194292857Y773957142D01*
X-194364285Y773885714D01*
X-195221428Y773171428D02*
X-194221428Y773171428D01*
X-195078571Y773171428D02*
X-195150000Y773100000D01*
X-195221428Y772957142D01*
X-195221428Y772742857D01*
X-195150000Y772600000D01*
X-195007142Y772528571D01*
X-194221428Y772528571D01*
X-194221428Y771171428D02*
X-195721428Y771171428D01*
X-194292857Y771171428D02*
X-194221428Y771314285D01*
X-194221428Y771600000D01*
X-194292857Y771742857D01*
X-194364285Y771814285D01*
X-194507142Y771885714D01*
X-194935714Y771885714D01*
X-195078571Y771814285D01*
X-195150000Y771742857D01*
X-195221428Y771600000D01*
X-195221428Y771314285D01*
X-195150000Y771171428D01*
X-194292857Y769885714D02*
X-194221428Y770028571D01*
X-194221428Y770314285D01*
X-194292857Y770457142D01*
X-194435714Y770528571D01*
X-195007142Y770528571D01*
X-195150000Y770457142D01*
X-195221428Y770314285D01*
X-195221428Y770028571D01*
X-195150000Y769885714D01*
X-195007142Y769814285D01*
X-194864285Y769814285D01*
X-194721428Y770528571D01*
X-194221428Y769171428D02*
X-195221428Y769171428D01*
X-194935714Y769171428D02*
X-195078571Y769100000D01*
X-195150000Y769028571D01*
X-195221428Y768885714D01*
X-195221428Y768742857D01*
X-194292857Y768314285D02*
X-194221428Y768171428D01*
X-194221428Y767885714D01*
X-194292857Y767742857D01*
X-194435714Y767671428D01*
X-194507142Y767671428D01*
X-194650000Y767742857D01*
X-194721428Y767885714D01*
X-194721428Y768100000D01*
X-194792857Y768242857D01*
X-194935714Y768314285D01*
X-195007142Y768314285D01*
X-195150000Y768242857D01*
X-195221428Y768100000D01*
X-195221428Y767885714D01*
X-195150000Y767742857D01*
X-194292857Y766385714D02*
X-194221428Y766528571D01*
X-194221428Y766814285D01*
X-194292857Y766957142D01*
X-194364285Y767028571D01*
X-194507142Y767100000D01*
X-194935714Y767100000D01*
X-195078571Y767028571D01*
X-195150000Y766957142D01*
X-195221428Y766814285D01*
X-195221428Y766528571D01*
X-195150000Y766385714D01*
X-194221428Y765528571D02*
X-194292857Y765671428D01*
X-194364285Y765742857D01*
X-194507142Y765814285D01*
X-194935714Y765814285D01*
X-195078571Y765742857D01*
X-195150000Y765671428D01*
X-195221428Y765528571D01*
X-195221428Y765314285D01*
X-195150000Y765171428D01*
X-195078571Y765100000D01*
X-194935714Y765028571D01*
X-194507142Y765028571D01*
X-194364285Y765100000D01*
X-194292857Y765171428D01*
X-194221428Y765314285D01*
X-194221428Y765528571D01*
X-194221428Y764385714D02*
X-195221428Y764385714D01*
X-194935714Y764385714D02*
X-195078571Y764314285D01*
X-195150000Y764242857D01*
X-195221428Y764100000D01*
X-195221428Y763957142D01*
X-194292857Y762885714D02*
X-194221428Y763028571D01*
X-194221428Y763314285D01*
X-194292857Y763457142D01*
X-194435714Y763528571D01*
X-195007142Y763528571D01*
X-195150000Y763457142D01*
X-195221428Y763314285D01*
X-195221428Y763028571D01*
X-195150000Y762885714D01*
X-195007142Y762814285D01*
X-194864285Y762814285D01*
X-194721428Y763528571D01*
X-194292857Y762242857D02*
X-194221428Y762100000D01*
X-194221428Y761814285D01*
X-194292857Y761671428D01*
X-194435714Y761600000D01*
X-194507142Y761600000D01*
X-194650000Y761671428D01*
X-194721428Y761814285D01*
X-194721428Y762028571D01*
X-194792857Y762171428D01*
X-194935714Y762242857D01*
X-195007142Y762242857D01*
X-195150000Y762171428D01*
X-195221428Y762028571D01*
X-195221428Y761814285D01*
X-195150000Y761671428D01*
X-194364285Y760957142D02*
X-194292857Y760885714D01*
X-194221428Y760957142D01*
X-194292857Y761028571D01*
X-194364285Y760957142D01*
X-194221428Y760957142D01*
X-194292857Y760314285D02*
X-194221428Y760171428D01*
X-194221428Y759885714D01*
X-194292857Y759742857D01*
X-194435714Y759671428D01*
X-194507142Y759671428D01*
X-194650000Y759742857D01*
X-194721428Y759885714D01*
X-194721428Y760100000D01*
X-194792857Y760242857D01*
X-194935714Y760314285D01*
X-195007142Y760314285D01*
X-195150000Y760242857D01*
X-195221428Y760100000D01*
X-195221428Y759885714D01*
X-195150000Y759742857D01*
X-194221428Y759028571D02*
X-195721428Y759028571D01*
X-194221428Y758385714D02*
X-195007142Y758385714D01*
X-195150000Y758457142D01*
X-195221428Y758600000D01*
X-195221428Y758814285D01*
X-195150000Y758957142D01*
X-195078571Y759028571D01*
X-194221428Y757457142D02*
X-194292857Y757600000D01*
X-194364285Y757671428D01*
X-194507142Y757742857D01*
X-194935714Y757742857D01*
X-195078571Y757671428D01*
X-195150000Y757600000D01*
X-195221428Y757457142D01*
X-195221428Y757242857D01*
X-195150000Y757100000D01*
X-195078571Y757028571D01*
X-194935714Y756957142D01*
X-194507142Y756957142D01*
X-194364285Y757028571D01*
X-194292857Y757100000D01*
X-194221428Y757242857D01*
X-194221428Y757457142D01*
X-195221428Y756314285D02*
X-193721428Y756314285D01*
X-195150000Y756314285D02*
X-195221428Y756171428D01*
X-195221428Y755885714D01*
X-195150000Y755742857D01*
X-195078571Y755671428D01*
X-194935714Y755600000D01*
X-194507142Y755600000D01*
X-194364285Y755671428D01*
X-194292857Y755742857D01*
X-194221428Y755885714D01*
X-194221428Y756171428D01*
X-194292857Y756314285D01*
D12*
X-208790000Y750260000D02*
X-208790000Y789630000D01*
X-203710000Y750260000D02*
X-208790000Y750260000D01*
X-191010000Y750260000D02*
X-196090000Y750260000D01*
X-191010000Y789630000D02*
X-191010000Y750260000D01*
X-208790000Y789630000D02*
X-191010000Y789630000D01*
D13*
X-203710000Y750260000D02*
X-196090000Y750260000D01*
X-206250000Y782010000D02*
X-193550000Y782010000D01*
X-193550000Y782010000D02*
X-193550000Y795980000D01*
X-193550000Y795980000D02*
X-206250000Y795980000D01*
X-206250000Y795980000D02*
X-206250000Y782010000D01*
D12*
X-211410000Y789640000D02*
X-211410000Y759160000D01*
X-216490000Y789640000D02*
X-211410000Y789640000D01*
X-216490000Y792180000D02*
X-216490000Y789640000D01*
X-224110000Y792180000D02*
X-216490000Y792180000D01*
X-224110000Y789640000D02*
X-224110000Y792180000D01*
X-229190000Y789640000D02*
X-224110000Y789640000D01*
X-229190000Y759160000D02*
X-229190000Y789640000D01*
X-211410000Y759160000D02*
X-229190000Y759160000D01*
M02*
